SplineFontDB: 3.0
FontName: Mikhak-Bold
FullName: Mikhak Bold
FamilyName: Mikhak Bold
Weight: Bold
Copyright: Copyright (c) 2018 by www.opentypeshop.com (Amin Abedi(@aminabedi68)) with Reserved Font Name Mikhak. All rights reserved.
Version: 1.00
ItalicAngle: 0
UnderlinePosition: 0
UnderlineWidth: 0
Ascent: 1638
Descent: 410
InvalidEm: 0
sfntRevision: 0x00010003
LayerCount: 2
Layer: 0 0 "Back" 1
Layer: 1 0 "Fore" 0
PreferredKerning: 4
XUID: [1021 89 1101065813 17353]
StyleMap: 0x0040
FSType: 0
OS2Version: 4
OS2_WeightWidthSlopeOnly: 0
OS2_UseTypoMetrics: 1
CreationTime: 1497005464
ModificationTime: 1531663326
PfmFamily: 33
TTFWeight: 700
TTFWidth: 5
LineGap: 0
VLineGap: 0
OS2TypoAscent: 600
OS2TypoAOffset: 1
OS2TypoDescent: -550
OS2TypoDOffset: 1
OS2TypoLinegap: 0
OS2WinAscent: -200
OS2WinAOffset: 1
OS2WinDescent: -50
OS2WinDOffset: 1
HheadAscent: -200
HheadAOffset: 1
HheadDescent: 50
HheadDOffset: 1
OS2SubXSize: 1277
OS2SubYSize: 1185
OS2SubXOff: 0
OS2SubYOff: 256
OS2SupXSize: 1277
OS2SupYSize: 1185
OS2SupXOff: 0
OS2SupYOff: 870
OS2StrikeYSize: 91
OS2StrikeYPos: 766
OS2CapHeight: 1400
OS2XHeight: 1012
OS2Vendor: 'AA68'
Lookup: 4 1 0 "'ccmp' Glyph Composition/Decomposition in Arabic lookup 0" { "'ccmp' Glyph Composition/Decomposition in Arabic lookup 0 subtable 0"  } ['ccmp' ('arab' <'FAR ' 'dflt' > ) ]
Lookup: 1 9 0 "Single Substitution 1" { "Single Substitution 1 subtable"  } []
Lookup: 2 9 0 "Multiple Substitution 2" { "Multiple Substitution 2 subtable"  } []
Lookup: 2 9 0 "Multiple Substitution 3" { "Multiple Substitution 3 subtable"  } []
Lookup: 1 9 0 "'fina' Terminal Forms in Arabic lookup 4" { "'fina' Terminal Forms in Arabic lookup 4 subtable"  } ['fina' ('arab' <'FAR ' 'dflt' > ) ]
Lookup: 1 9 0 "'medi' Medial Forms in Arabic lookup 5" { "'medi' Medial Forms in Arabic lookup 5 subtable"  } ['medi' ('arab' <'FAR ' 'dflt' > ) ]

StartChar: a
Encoding: 97 97 0
Width: 1229
VWidth: 2426
Flags: HMW
LayerCount: 2
Fore
SplineSet
1069 -55 m 0
 950 -55 886 35 862 114 c 1
 769 14 639 -55 480 -55 c 0
 215 -55 60 167 60 419 c 0
 60 710 264 1063 605 1063 c 0
 714 1063 820 1021 899 951 c 0
 903 948 906 945 909 941 c 1
 910 950 912 959 913 968 c 0
 919 1018 964 1055 1013 1055 c 0
 1072 1055 1112 1006 1112 955 c 0
 1112 951 1112 946 1111 942 c 2
 1049 454 l 2
 1045 402 1040 347 1040 293 c 0
 1040 214 1058 145 1069 145 c 0
 1123 145 1169 99 1169 45 c 0
 1169 -9 1123 -55 1069 -55 c 0
890 794 m 1
 873 783 853 776 833 776 c 0
 809 776 786 785 767 801 c 0
 724 839 662 863 605 863 c 0
 422 863 260 644 260 419 c 0
 260 241 349 145 480 145 c 0
 676 145 808 316 851 538 c 0
 860 587 876 692 890 794 c 1
EndSplineSet
Colour: ffff
EndChar

StartChar: c
Encoding: 99 99 1
Width: 1031
VWidth: 2426
Flags: HMW
LayerCount: 2
Fore
SplineSet
955 877 m 0
 955 821 908 777 855 777 c 0
 832 777 809 785 790 801 c 0
 738 846 682 871 611 871 c 0
 413 871 260 640 260 411 c 0
 260 252 315 145 528 145 c 0
 648 145 734 178 819 229 c 0
 835 239 852 243 870 243 c 0
 921 243 971 203 971 144 c 0
 971 110 954 76 923 57 c 0
 816 -8 688 -55 528 -55 c 0
 195 -55 60 178 60 411 c 0
 60 698 249 1071 611 1071 c 0
 734 1071 838 1024 920 953 c 0
 943 933 955 905 955 877 c 0
EndSplineSet
Colour: ffff
EndChar

StartChar: e
Encoding: 101 101 2
Width: 1141
VWidth: 2426
Flags: HMW
LayerCount: 2
Fore
SplineSet
981 281 m 0
 1034 281 1081 236 1081 181 c 0
 1081 154 1070 126 1048 107 c 0
 934 3 784 -55 630 -55 c 0
 411 -55 221 60 152 257 c 1
 102 261 60 302 60 355 c 0
 60 397 87 437 126 451 c 1
 144 759 371 1071 713 1071 c 0
 866 1071 1049 972 1049 775 c 0
 1049 600 903 508 829 464 c 0
 684 378 524 317 359 283 c 1
 405 201 499 145 630 145 c 0
 734 145 836 185 914 255 c 0
 933 272 957 281 981 281 c 0
330 482 m 1
 470 512 605 564 727 636 c 0
 801 680 849 728 849 775 c 0
 849 822 802 871 713 871 c 0
 520 871 361 698 330 482 c 1
EndSplineSet
Colour: ffff
EndChar

StartChar: f
Encoding: 102 102 3
Width: 773
VWidth: 2426
Flags: HMW
LayerCount: 2
Fore
SplineSet
160 449 m 0
 107 449 60 492 60 549 c 0
 60 600 100 645 152 649 c 0
 182 651 210 653 237 653 c 1
 243 781 251 908 263 1037 c 0
 275 1179 316 1389 484 1424 c 0
 495 1426 507 1428 519 1428 c 0
 590 1428 645 1387 687 1340 c 0
 704 1321 712 1297 712 1273 c 0
 712 1220 667 1173 612 1173 c 0
 584 1173 557 1184 537 1206 c 0
 531 1213 526 1219 522 1222 c 1
 500 1193 471 1111 463 1019 c 0
 452 895 443 772 437 650 c 1
 499 647 561 641 625 634 c 0
 675 628 713 585 713 535 c 0
 713 477 665 435 613 435 c 0
 609 435 605 436 601 436 c 0
 542 443 486 447 429 450 c 1
 424 303 423 154 423 2 c 0
 423 0 423 -2 423 -4 c 0
 423 -58 377 -104 323 -104 c 0
 265 -104 223 -56 223 2 c 0
 223 154 225 303 229 451 c 1
 206 450 183 449 160 449 c 0
EndSplineSet
Colour: ffff
EndChar

StartChar: g
Encoding: 103 103 4
Width: 1137
VWidth: 2426
Flags: HMW
LayerCount: 2
Fore
SplineSet
874 916 m 1
 869 862 823 824 773 824 c 0
 755 824 738 829 722 839 c 0
 692 857 636 871 593 871 c 0
 408 871 269 660 269 420 c 0
 269 260 382 145 516 145 c 0
 794 145 869 491 874 916 c 1
60 -172 m 0
 60 -121 100 -71 159 -71 c 0
 193 -71 228 -89 246 -120 c 0
 288 -191 383 -265 521 -265 c 0
 693 -265 778 -159 829 59 c 1
 749 -12 641 -55 516 -55 c 0
 258 -55 69 164 69 420 c 0
 69 708 240 1071 593 1071 c 0
 670 1071 754 1053 826 1009 c 0
 854 992 872 962 874 930 c 2
 874 971 l 2
 874 1026 920 1071 974 1071 c 0
 1032 1071 1072 1020 1074 975 c 0
 1076 925 1077 842 1077 764 c 2
 1077 658 l 2
 1077 187 1058 -465 521 -465 c 0
 309 -465 150 -351 74 -222 c 0
 65 -206 60 -189 60 -172 c 0
EndSplineSet
Colour: ffff
EndChar

StartChar: o
Encoding: 111 111 5
Width: 1109
VWidth: 2426
Flags: HMW
LayerCount: 2
Fore
SplineSet
567 871 m 0
 373 871 260 715 260 486 c 0
 260 269 362 145 520 145 c 0
 700 145 849 320 849 538 c 0
 849 732 743 871 567 871 c 0
567 1071 m 0
 881 1071 1049 804 1049 538 c 0
 1049 240 840 -55 520 -55 c 0
 218 -55 60 207 60 486 c 0
 60 777 227 1071 567 1071 c 0
EndSplineSet
Colour: ffff
EndChar

StartChar: s
Encoding: 115 115 6
Width: 980
VWidth: 2426
Flags: HMW
LayerCount: 2
Fore
SplineSet
888 786 m 0
 888 735 849 685 789 685 c 0
 743 685 700 718 690 764 c 0
 676 827 610 872 501 872 c 0
 373 872 294 808 287 756 c 1
 290 671 394 628 550 589 c 0
 675 558 920 487 920 239 c 0
 920 -2 652 -55 488 -55 c 0
 328 -55 155 -1 77 116 c 0
 66 133 60 151 60 170 c 0
 60 221 101 271 159 271 c 0
 192 271 224 255 243 226 c 0
 257 205 368 145 488 145 c 0
 658 145 720 204 720 239 c 0
 720 315 643 360 502 395 c 0
 383 425 87 484 87 760 c 2
 87 768 l 1
 105 986 332 1072 501 1072 c 0
 656 1072 844 999 886 806 c 0
 888 799 888 793 888 786 c 0
EndSplineSet
Colour: ffff
EndChar

StartChar: t
Encoding: 116 116 7
Width: 775
VWidth: 2426
Flags: HMW
LayerCount: 2
Fore
SplineSet
402 1316 m 0
 460 1316 502 1268 502 1216 c 0
 502 1212 501 1208 501 1204 c 0
 490 1113 480 1022 472 931 c 1
 525 929 577 926 627 919 c 0
 677 913 715 869 715 820 c 0
 715 762 667 720 615 720 c 0
 611 720 607 720 603 721 c 0
 556 727 507 730 456 732 c 1
 448 607 443 482 443 355 c 0
 443 196 482 145 576 145 c 0
 594 145 598 147 612 147 c 0
 664 147 712 108 712 48 c 0
 712 3 681 -39 636 -50 c 0
 604 -58 582 -55 576 -55 c 0
 322 -55 243 166 243 355 c 0
 243 481 248 606 256 729 c 1
 228 727 199 724 172 721 c 0
 168 721 164 720 160 720 c 0
 108 720 60 762 60 820 c 0
 60 870 98 913 148 919 c 0
 189 924 230 928 272 930 c 1
 281 1030 292 1129 303 1228 c 0
 309 1278 352 1316 402 1316 c 0
EndSplineSet
Colour: ffff
EndChar

StartChar: v
Encoding: 118 118 8
Width: 1084
VWidth: 2426
Flags: HMW
LayerCount: 2
Fore
SplineSet
60 970 m 0
 60 1020 99 1071 159 1071 c 0
 197 1071 233 1050 250 1014 c 0
 346 810 460 560 538 307 c 1
 655 523 758 757 828 999 c 0
 841 1042 882 1071 925 1071 c 0
 985 1071 1024 1020 1024 970 c 0
 1024 961 1023 952 1020 943 c 0
 920 598 759 270 587 -8 c 0
 571 -34 543 -55 503 -55 c 0
 457 -55 413 -22 404 26 c 0
 344 330 195 661 70 928 c 0
 64 941 60 956 60 970 c 0
EndSplineSet
Colour: ffff
EndChar

StartChar: w
Encoding: 119 119 9
Width: 1501
VWidth: 2426
Flags: HMW
LayerCount: 2
Fore
SplineSet
303 1054 m 0
 362 1054 402 1003 402 953 c 0
 402 936 398 920 389 905 c 0
 342 822 260 565 260 374 c 0
 260 208 303 145 406 145 c 0
 538 145 679 470 679 681 c 0
 679 736 725 781 779 781 c 0
 836 781 878 733 879 683 c 0
 884 388 922 145 1038 145 c 0
 1167 145 1241 270 1241 513 c 0
 1241 661 1206 818 1162 906 c 0
 1155 920 1151 935 1151 950 c 0
 1151 1000 1190 1051 1250 1051 c 0
 1287 1051 1324 1031 1341 996 c 0
 1405 868 1441 689 1441 513 c 0
 1441 262 1355 -55 1038 -55 c 0
 879 -55 786 61 742 178 c 1
 675 62 566 -55 406 -55 c 0
 139 -55 60 180 60 374 c 0
 60 613 146 880 215 1003 c 0
 233 1035 268 1054 303 1054 c 0
EndSplineSet
Colour: ffff
EndChar

StartChar: x
Encoding: 120 120 10
Width: 1137
VWidth: 2426
Flags: HMW
LayerCount: 2
Fore
SplineSet
135 956 m 0
 135 1006 174 1057 234 1057 c 0
 271 1057 308 1036 325 1001 c 0
 383 885 463 761 554 638 c 1
 878 1034 l 2
 898 1058 926 1071 955 1071 c 0
 1011 1071 1055 1024 1055 971 c 0
 1055 949 1047 926 1032 908 c 2
 679 477 l 1
 801 328 931 188 1048 71 c 0
 1067 52 1077 26 1077 -0 c 0
 1077 -54 1031 -100 977 -100 c 0
 951 -100 925 -90 906 -71 c 0
 794 41 669 174 549 318 c 1
 237 -63 l 2
 217 -87 189 -100 160 -100 c 0
 104 -100 60 -53 60 0 c 0
 60 22 68 45 83 63 c 2
 422 478 l 1
 314 621 216 769 145 913 c 0
 138 927 135 941 135 956 c 0
EndSplineSet
Colour: ffff
EndChar

StartChar: y
Encoding: 121 121 11
Width: 1093
VWidth: 2426
Flags: HMW
LayerCount: 2
Fore
SplineSet
226 1071 m 0
 284 1071 326 1023 326 971 c 0
 326 967 325 964 325 960 c 0
 311 838 305 711 305 589 c 0
 305 298 341 145 531 145 c 0
 657 145 735 245 783 455 c 0
 819 610 826 785 833 961 c 0
 835 1012 878 1057 933 1057 c 0
 987 1057 1033 1012 1033 957 c 0
 1033 852 1026 741 1025 634 c 0
 1024 563 1023 492 1021 421 c 0
 1008 27 949 -465 469 -465 c 0
 262 -465 132 -368 70 -243 c 0
 63 -229 60 -215 60 -200 c 0
 60 -150 99 -99 159 -99 c 0
 196 -99 233 -120 250 -155 c 0
 280 -216 326 -265 469 -265 c 0
 651 -265 730 -168 778 31 c 1
 712 -23 627 -55 531 -55 c 0
 139 -55 105 328 105 589 c 0
 105 719 113 852 127 982 c 0
 133 1033 176 1071 226 1071 c 0
EndSplineSet
Colour: ffff
EndChar

StartChar: z
Encoding: 122 122 12
Width: 1054
VWidth: 2426
Flags: HMW
LayerCount: 2
Fore
SplineSet
160 782 m 0
 109 782 60 823 60 882 c 0
 60 930 96 973 144 981 c 0
 232 996 377 1014 538 1014 c 2
 579 1014 l 2
 697 1014 858 1006 911 872 c 0
 918 853 922 833 922 813 c 0
 922 760 897 700 845 653 c 0
 635 460 486 294 321 93 c 1
 461 110 705 129 894 129 c 0
 948 129 994 84 994 29 c 0
 994 -25 950 -70 896 -71 c 0
 691 -75 407 -95 301 -111 c 0
 282 -115 262 -117 246 -117 c 0
 204 -117 157 -107 120 -74 c 0
 87 -45 71 -2 71 37 c 0
 71 86 91 125 118 160 c 0
 307 393 470 580 707 798 c 1
 672 808 608 814 538 814 c 0
 393 814 256 796 176 783 c 0
 171 782 165 782 160 782 c 0
EndSplineSet
Colour: ffff
EndChar

StartChar: A
Encoding: 65 65 13
Width: 1416
VWidth: 1823
Flags: HMW
LayerCount: 2
Fore
SplineSet
527 604 m 1
 925 568 l 1
 732 1059 l 1
 527 604 l 1
159 -68 m 0
 99 -68 60 -17 60 33 c 0
 60 47 63 60 69 73 c 2
 249 474 l 1
 242 488 238 504 238 520 c 0
 238 568 272 606 314 617 c 1
 647 1357 l 2
 664 1394 701 1416 739 1416 c 0
 784 1416 818 1385 831 1353 c 2
 1157 524 l 1
 1176 506 1188 480 1188 452 c 0
 1188 450 1188 448 1188 446 c 2
 1349 37 l 2
 1354 25 1356 13 1356 1 c 0
 1356 -49 1317 -100 1257 -100 c 0
 1217 -100 1178 -76 1163 -37 c 2
 1007 358 l 1
 440 410 l 1
 251 -9 l 2
 234 -46 197 -68 159 -68 c 0
EndSplineSet
Colour: ffff
EndChar

StartChar: B
Encoding: 66 66 14
Width: 1098
VWidth: 2426
Flags: HMW
LayerCount: 2
Fore
SplineSet
446 639 m 0
 395 639 329 632 285 629 c 1
 284 481 278 319 268 165 c 1
 329 152 396 145 461 145 c 0
 690 145 838 223 838 406 c 0
 838 535 744 606 563 631 c 0
 526 636 486 639 446 639 c 0
284 833 m 1
 381 840 459 847 545 869 c 0
 694 908 757 966 757 1028 c 0
 757 1156 668 1216 493 1216 c 0
 421 1216 342 1204 266 1181 c 1
 275 1069 282 967 284 833 c 1
808 766 m 1
 937 702 1038 580 1038 406 c 0
 1038 55 718 -55 461 -55 c 0
 348 -55 233 -37 133 -6 c 0
 90 7 63 49 63 90 c 2
 63 97 l 1
 78 293 85 517 85 706 c 0
 85 934 75 1059 60 1242 c 1
 60 1250 l 2
 60 1291 87 1329 124 1343 c 0
 238 1387 368 1416 493 1416 c 0
 710 1416 957 1312 957 1028 c 0
 957 910 889 821 808 766 c 1
EndSplineSet
Colour: ffff
EndChar

StartChar: C
Encoding: 67 67 15
Width: 1271
VWidth: 2426
Flags: HMW
LayerCount: 2
Fore
SplineSet
1176 1277 m 0
 1176 1217 1125 1178 1075 1178 c 0
 1062 1178 1048 1181 1035 1187 c 0
 966 1218 891 1232 814 1232 c 0
 492 1232 260 987 260 662 c 0
 260 349 481 145 810 145 c 0
 898 145 987 166 1065 207 c 0
 1080 215 1094 219 1110 219 c 0
 1160 219 1211 179 1211 120 c 0
 1211 84 1192 49 1158 31 c 0
 1050 -26 930 -55 810 -55 c 0
 387 -55 60 233 60 662 c 0
 60 1089 378 1432 814 1432 c 0
 917 1432 1020 1412 1117 1369 c 0
 1154 1353 1176 1315 1176 1277 c 0
EndSplineSet
Colour: ffff
EndChar

StartChar: D
Encoding: 68 68 16
Width: 1239
VWidth: 2426
Flags: HMW
LayerCount: 2
Fore
SplineSet
286 1212 m 1
 299 1076 305 976 305 811 c 0
 305 589 292 369 269 162 c 1
 316 151 364 145 412 145 c 0
 742 145 979 372 979 701 c 0
 979 1066 762 1216 366 1216 c 0
 339 1216 314 1215 286 1212 c 1
155 1392 m 0
 224 1408 296 1416 366 1416 c 0
 824 1416 1179 1196 1179 701 c 0
 1179 260 844 -55 412 -55 c 0
 314 -55 216 -37 124 -1 c 0
 84 15 60 56 60 94 c 0
 60 98 61 101 61 105 c 0
 89 327 105 567 105 811 c 0
 105 1006 98 1092 78 1285 c 0
 78 1288 77 1291 77 1294 c 0
 77 1342 115 1383 155 1392 c 0
EndSplineSet
Colour: ffff
EndChar

StartChar: E
Encoding: 69 69 17
Width: 1098
VWidth: 2426
Flags: HMW
LayerCount: 2
Fore
SplineSet
937 1459 m 0
 988 1459 1038 1420 1038 1360 c 0
 1038 1315 1007 1273 961 1262 c 0
 815 1228 635 1216 472 1216 c 0
 425 1216 377 1217 331 1219 c 1
 339 1136 342 1062 342 960 c 0
 342 923 342 886 341 850 c 1
 393 852 445 854 500 854 c 0
 626 854 749 846 871 832 c 0
 921 826 959 783 959 733 c 0
 959 675 911 633 859 633 c 0
 855 633 851 634 847 634 c 0
 733 648 618 654 500 654 c 0
 441 654 387 653 332 650 c 1
 325 540 314 433 300 333 c 0
 298 318 297 309 297 295 c 0
 297 165 435 145 768 145 c 0
 822 145 873 146 922 146 c 0
 976 146 1022 101 1022 46 c 0
 1022 -8 978 -53 924 -54 c 0
 873 -55 822 -55 770 -55 c 2
 703 -55 l 2
 448 -55 97 -41 97 295 c 0
 97 316 98 338 102 363 c 0
 114 449 124 543 131 640 c 1
 92 652 60 688 60 735 c 0
 60 782 94 824 140 833 c 1
 141 875 142 918 142 960 c 0
 142 1102 136 1180 119 1312 c 0
 119 1315 118 1318 118 1321 c 0
 118 1363 154 1425 218 1425 c 0
 220 1425 222 1425 224 1425 c 0
 307 1420 390 1416 472 1416 c 0
 625 1416 793 1428 915 1456 c 0
 922 1458 930 1459 937 1459 c 0
EndSplineSet
Colour: ffff
EndChar

StartChar: F
Encoding: 70 70 18
Width: 1092
VWidth: 2426
Flags: HMW
LayerCount: 2
Fore
SplineSet
931 1438 m 0
 982 1438 1032 1399 1032 1339 c 0
 1032 1294 1001 1252 955 1241 c 0
 808 1207 629 1196 466 1196 c 0
 419 1196 371 1197 325 1199 c 1
 337 1078 342 961 345 837 c 1
 393 840 441 841 489 841 c 0
 612 841 734 832 855 818 c 0
 905 812 943 769 943 719 c 0
 943 661 895 619 843 619 c 0
 839 619 835 620 831 620 c 0
 717 634 602 641 489 641 c 0
 442 641 395 639 348 637 c 1
 348 619 348 601 348 583 c 0
 348 374 336 171 316 -11 c 0
 310 -62 267 -100 217 -100 c 0
 159 -100 117 -52 117 0 c 0
 117 4 118 7 118 11 c 0
 137 185 148 382 148 583 c 0
 148 596 148 609 148 622 c 1
 101 628 60 668 60 721 c 0
 60 770 97 813 146 820 c 1
 142 983 133 1130 114 1292 c 0
 114 1294 113 1297 113 1300 c 0
 113 1341 148 1404 213 1404 c 0
 215 1404 217 1404 219 1404 c 0
 300 1399 383 1396 466 1396 c 0
 619 1396 788 1407 909 1435 c 0
 916 1437 924 1438 931 1438 c 0
EndSplineSet
Colour: ffff
EndChar

StartChar: G
Encoding: 71 71 19
Width: 1352
VWidth: 2426
Flags: HMW
LayerCount: 2
Fore
SplineSet
641 685 m 0
 641 744 690 785 741 785 c 0
 747 785 752 784 758 783 c 0
 819 772 907 765 990 765 c 0
 1055 765 1122 770 1167 778 c 0
 1172 779 1178 779 1183 779 c 0
 1238 779 1281 731 1284 687 c 0
 1289 621 1292 559 1292 500 c 0
 1292 156 1110 -55 716 -55 c 0
 348 -55 60 247 60 639 c 0
 60 1046 284 1416 763 1416 c 0
 883 1416 1001 1377 1097 1306 c 0
 1123 1287 1137 1257 1137 1226 c 0
 1137 1169 1089 1126 1037 1126 c 0
 1016 1126 996 1133 978 1146 c 0
 918 1191 839 1216 763 1216 c 0
 418 1216 260 980 260 639 c 0
 260 347 466 145 716 145 c 0
 1018 145 1092 244 1092 500 c 0
 1092 522 1092 543 1091 568 c 1
 1060 566 1024 565 990 565 c 0
 895 565 799 574 724 587 c 0
 676 595 641 638 641 685 c 0
EndSplineSet
Colour: ffff
EndChar

StartChar: H
Encoding: 72 72 20
Width: 1239
VWidth: 2426
Flags: HMW
LayerCount: 2
Fore
SplineSet
232 1416 m 0
 287 1416 332 1370 332 1316 c 0
 332 1136 329 955 322 775 c 1
 494 773 706 767 891 761 c 1
 867 1312 l 2
 865 1367 910 1416 967 1416 c 0
 1020 1416 1065 1373 1067 1320 c 2
 1092 753 l 1
 1141 747 1179 704 1179 654 c 0
 1179 606 1144 566 1101 556 c 1
 1126 -17 l 2
 1128 -72 1083 -121 1026 -121 c 0
 973 -121 928 -78 926 -25 c 2
 900 561 l 1
 710 568 488 573 312 575 c 1
 301 377 287 182 268 -10 c 0
 263 -61 218 -100 168 -100 c 0
 110 -100 68 -52 68 0 c 0
 68 3 69 7 69 10 c 0
 88 199 102 393 112 589 c 1
 82 606 60 639 60 676 c 0
 60 716 84 751 119 767 c 1
 126 950 130 1134 132 1317 c 0
 132 1371 178 1416 232 1416 c 0
EndSplineSet
Colour: ffff
EndChar

StartChar: I
Encoding: 73 73 21
Width: 355
VWidth: 2426
Flags: HMW
LayerCount: 2
Fore
SplineSet
160 -100 m 0
 104 -100 59 -52 60 3 c 2
 95 1364 l 2
 96 1418 142 1461 195 1461 c 0
 251 1461 296 1413 295 1358 c 2
 260 -3 l 2
 259 -57 213 -100 160 -100 c 0
EndSplineSet
Colour: ffff
EndChar

StartChar: J
Encoding: 74 74 22
Width: 680
VWidth: 2426
Flags: HMW
LayerCount: 2
Fore
SplineSet
160 148 m 0
 184 148 209 145 233 145 c 0
 352 145 375 177 375 330 c 0
 375 663 366 918 331 1217 c 1
 173 1217 l 2
 119 1217 73 1263 73 1317 c 0
 73 1371 119 1417 173 1417 c 2
 520 1417 l 2
 575 1417 620 1371 620 1317 c 0
 620 1261 574 1225 532 1218 c 1
 566 918 575 658 575 330 c 0
 575 127 482 -55 233 -55 c 0
 206 -55 179 -54 152 -52 c 0
 100 -48 60 -3 60 48 c 0
 60 105 107 148 160 148 c 0
EndSplineSet
Colour: ffff
EndChar

StartChar: K
Encoding: 75 75 23
Width: 1177
VWidth: 2426
Flags: HMW
LayerCount: 2
Fore
SplineSet
946 1461 m 0
 1003 1461 1046 1413 1046 1361 c 0
 1046 1340 1039 1319 1026 1301 c 0
 836 1044 570 847 317 694 c 1
 523 470 813 257 1071 91 c 0
 1100 72 1117 39 1117 6 c 0
 1117 -52 1067 -93 1016 -93 c 0
 997 -93 979 -88 963 -77 c 0
 736 69 481 252 272 454 c 1
 260 -3 l 2
 259 -57 213 -100 160 -100 c 0
 104 -100 59 -52 60 3 c 2
 77 669 l 1
 69 684 65 701 65 720 c 0
 65 739 70 757 80 774 c 1
 95 1363 l 2
 96 1417 142 1460 195 1460 c 0
 251 1460 296 1412 295 1357 c 2
 283 909 l 1
 501 1048 716 1218 866 1421 c 0
 885 1447 915 1461 946 1461 c 0
EndSplineSet
Colour: ffff
EndChar

StartChar: L
Encoding: 76 76 24
Width: 1126
VWidth: 2426
Flags: HMW
LayerCount: 2
Fore
SplineSet
78 1316 m 2
 78 1369 121 1416 178 1416 c 0
 230 1416 275 1375 278 1323 c 0
 289 1154 294 990 294 830 c 0
 294 598 283 370 267 142 c 1
 969 122 l 2
 1023 120 1066 75 1066 22 c 0
 1066 -33 1020 -78 966 -78 c 0
 965 -78 964 -78 963 -78 c 2
 157 -55 l 2
 108 -54 60 -10 60 45 c 2
 60 53 l 1
 80 316 94 570 94 830 c 0
 94 986 89 1144 78 1309 c 1
 78 1316 l 2
EndSplineSet
Colour: ffff
EndChar

StartChar: M
Encoding: 77 77 25
Width: 1539
VWidth: 2426
Flags: HMW
LayerCount: 2
Fore
SplineSet
160 -100 m 0
 102 -100 60 -52 60 0 c 0
 60 3 61 7 61 10 c 2
 198 1310 l 2
 203 1361 247 1400 297 1400 c 0
 348 1400 384 1358 393 1326 c 0
 454 1103 595 800 695 627 c 0
 721 583 743 552 757 537 c 1
 770 550 789 574 811 612 c 0
 925 804 1067 1161 1102 1336 c 0
 1112 1383 1155 1416 1201 1416 c 0
 1262 1416 1299 1358 1300 1319 c 0
 1318 810 1373 477 1476 35 c 0
 1478 28 1479 20 1479 13 c 0
 1479 -38 1440 -88 1380 -88 c 0
 1335 -88 1293 -57 1282 -11 c 0
 1214 280 1165 530 1134 814 c 1
 1087 705 1034 595 983 510 c 0
 931 421 869 329 757 329 c 0
 635 329 573 437 521 527 c 0
 468 619 409 736 352 864 c 1
 259 -10 l 2
 254 -61 210 -100 160 -100 c 0
EndSplineSet
Colour: ffff
EndChar

StartChar: N
Encoding: 78 78 26
Width: 1227
VWidth: 2426
Flags: HMW
LayerCount: 2
Fore
SplineSet
160 -100 m 0
 104 -100 60 -53 60 0 c 0
 60 446 99 865 105 1317 c 0
 106 1371 151 1416 205 1416 c 0
 239 1416 270 1397 285 1377 c 0
 529 1056 753 714 956 372 c 1
 967 1362 l 2
 968 1416 1013 1461 1067 1461 c 0
 1122 1461 1168 1415 1167 1360 c 2
 1152 3 l 2
 1151 -46 1110 -96 1053 -96 c 0
 1018 -96 983 -78 965 -45 c 0
 767 312 543 675 299 1019 c 1
 290 675 276 343 260 -4 c 0
 258 -57 213 -100 160 -100 c 0
EndSplineSet
Colour: ffff
EndChar

StartChar: O
Encoding: 79 79 27
Width: 1485
VWidth: 2426
Flags: HMW
LayerCount: 2
Fore
SplineSet
713 145 m 0
 1008 145 1225 347 1225 684 c 0
 1225 994 1053 1216 799 1216 c 0
 492 1216 260 954 260 613 c 0
 260 311 444 145 713 145 c 0
713 -55 m 0
 342 -55 60 207 60 613 c 0
 60 1044 364 1416 799 1416 c 0
 1197 1416 1425 1062 1425 684 c 0
 1425 245 1116 -55 713 -55 c 0
EndSplineSet
Colour: ffff
EndChar

StartChar: P
Encoding: 80 80 28
Width: 1269
VWidth: 2426
Flags: HMW
LayerCount: 2
Fore
SplineSet
421 1177 m 1
 443 1158 456 1131 456 1101 c 0
 456 1098 456 1095 456 1092 c 2
 405 522 l 1
 460 515 557 509 560 509 c 0
 793 509 1009 669 1009 862 c 0
 1009 1073 857 1216 636 1216 c 0
 567 1216 490 1201 421 1177 c 1
160 1037 m 0
 104 1037 60 1084 60 1137 c 0
 60 1160 69 1184 85 1203 c 0
 207 1342 439 1416 636 1416 c 0
 953 1416 1209 1189 1209 862 c 0
 1209 513 859 309 560 309 c 0
 516 309 451 312 387 320 c 1
 358 -9 l 2
 353 -60 309 -100 258 -100 c 0
 201 -100 158 -53 158 0 c 0
 158 3 158 6 158 9 c 2
 192 394 l 1
 182 410 177 429 177 448 c 0
 177 475 187 497 203 514 c 1
 254 1090 l 1
 247 1084 241 1077 235 1071 c 0
 215 1049 188 1037 160 1037 c 0
EndSplineSet
Colour: ffff
EndChar

StartChar: Q
Encoding: 81 81 29
Width: 1485
VWidth: 1823
Flags: HMW
LayerCount: 2
Fore
SplineSet
783 438 m 0
 783 490 825 539 882 539 c 0
 913 539 945 525 964 498 c 0
 1094 318 1209 185 1374 40 c 0
 1396 20 1408 -7 1408 -35 c 0
 1408 -91 1361 -135 1308 -135 c 0
 1285 -135 1261 -126 1242 -110 c 0
 1065 45 938 192 802 380 c 0
 789 397 783 418 783 438 c 0
EndSplineSet
Refer: 27 79 N 1 0 0 1 0 0 2
Colour: ffff
EndChar

StartChar: R
Encoding: 82 82 30
Width: 1270
VWidth: 1823
Flags: HMW
LayerCount: 2
Fore
SplineSet
419 1180 m 1
 442 1161 456 1132 456 1102 c 2
 456 1095 l 1
 418 528 l 1
 466 513 553 508 560 507 c 0
 795 507 977 676 977 862 c 0
 977 1078 839 1216 622 1216 c 0
 555 1216 483 1202 419 1180 c 1
160 1037 m 0
 104 1037 60 1084 60 1137 c 0
 60 1160 69 1184 85 1203 c 0
 205 1340 424 1416 622 1416 c 0
 943 1416 1177 1184 1177 862 c 0
 1177 601 979 396 736 330 c 1
 1160 87 l 2
 1192 69 1210 34 1210 -1 c 0
 1210 -60 1160 -100 1109 -100 c 0
 1092 -100 1075 -96 1060 -87 c 2
 402 291 l 1
 382 -7 l 2
 378 -59 334 -100 282 -100 c 0
 225 -100 182 -53 182 0 c 2
 182 7 l 1
 209 404 l 1
 185 423 170 453 170 484 c 0
 170 523 191 553 220 569 c 1
 255 1091 l 1
 248 1085 241 1078 235 1071 c 0
 215 1049 188 1037 160 1037 c 0
EndSplineSet
Colour: ffff
EndChar

StartChar: S
Encoding: 83 83 31
Width: 1182
VWidth: 2426
Flags: HMW
LayerCount: 2
Fore
SplineSet
1061 1229 m 0
 1061 1170 1010 1130 960 1130 c 0
 944 1130 927 1135 912 1143 c 0
 826 1191 724 1216 619 1216 c 0
 413 1216 265 1098 265 960 c 0
 265 892 375 833 611 762 c 0
 806 703 1122 626 1122 343 c 0
 1122 32 811 -55 578 -55 c 0
 407 -55 234 -17 112 51 c 0
 79 69 60 104 60 139 c 0
 60 198 111 238 161 238 c 0
 177 238 194 233 209 225 c 0
 289 181 437 145 578 145 c 0
 799 145 922 216 922 343 c 0
 922 434 794 497 553 570 c 0
 369 625 65 696 65 960 c 0
 65 1256 355 1416 619 1416 c 0
 756 1416 892 1383 1010 1317 c 0
 1042 1299 1061 1264 1061 1229 c 0
EndSplineSet
Colour: ffff
EndChar

StartChar: T
Encoding: 84 84 32
Width: 1423
VWidth: 2426
Flags: HMW
LayerCount: 2
Fore
SplineSet
1363 1297 m 0
 1363 1242 1317 1197 1263 1197 c 2
 1261 1197 l 1
 815 1205 l 1
 812 988 798 772 798 551 c 0
 798 368 808 186 808 3 c 0
 808 -51 764 -97 708 -97 c 0
 655 -97 610 -53 608 -0 c 0
 602 184 598 367 598 551 c 0
 598 774 603 990 612 1208 c 1
 158 1216 l 2
 104 1217 60 1262 60 1316 c 0
 60 1371 106 1416 160 1416 c 2
 162 1416 l 1
 1265 1397 l 2
 1319 1396 1363 1351 1363 1297 c 0
EndSplineSet
Colour: ffff
EndChar

StartChar: U
Encoding: 85 85 33
Width: 1230
VWidth: 2426
Flags: HMW
LayerCount: 2
Fore
SplineSet
235 1434 m 0
 295 1434 334 1384 334 1333 c 0
 334 1326 334 1320 332 1313 c 0
 291 1123 260 941 260 734 c 0
 260 363 328 145 591 145 c 0
 916 145 970 631 970 1095 c 0
 970 1182 962 1273 962 1361 c 0
 962 1414 1006 1461 1062 1461 c 0
 1115 1461 1160 1418 1162 1365 c 0
 1166 1278 1170 1187 1170 1095 c 0
 1170 705 1164 -55 591 -55 c 0
 136 -55 60 377 60 734 c 0
 60 961 93 1159 136 1355 c 0
 146 1401 189 1434 235 1434 c 0
EndSplineSet
Colour: ffff
EndChar

StartChar: V
Encoding: 86 86 34
Width: 1368
VWidth: 2426
Flags: HMW
LayerCount: 2
Fore
SplineSet
60 1315 m 0
 60 1365 99 1416 159 1416 c 0
 199 1416 237 1392 253 1353 c 2
 672 307 l 1
 1116 1355 l 2
 1132 1393 1170 1416 1209 1416 c 0
 1269 1416 1308 1365 1308 1315 c 0
 1308 1302 1305 1289 1300 1277 c 2
 761 6 l 2
 749 -23 715 -55 670 -55 c 0
 630 -55 592 -31 576 8 c 2
 67 1279 l 2
 62 1291 60 1303 60 1315 c 0
EndSplineSet
Colour: ffff
EndChar

StartChar: W
Encoding: 87 87 35
Width: 2006
VWidth: 2426
Flags: HMW
LayerCount: 2
Fore
SplineSet
60 1348 m 0
 60 1398 99 1449 159 1449 c 0
 202 1449 243 1421 256 1378 c 2
 569 340 l 1
 938 1218 l 2
 954 1256 992 1279 1031 1279 c 0
 1078 1279 1114 1245 1125 1211 c 2
 1415 356 l 1
 1751 1348 l 2
 1765 1389 1805 1416 1847 1416 c 0
 1907 1416 1946 1365 1946 1315 c 0
 1946 1305 1945 1294 1941 1284 c 2
 1510 13 l 2
 1498 -21 1464 -55 1416 -55 c 0
 1374 -55 1334 -29 1320 13 c 2
 1020 897 l 1
 645 6 l 2
 633 -24 599 -55 554 -55 c 0
 511 -55 470 -27 457 16 c 2
 64 1320 l 2
 61 1329 60 1339 60 1348 c 0
EndSplineSet
Colour: ffff
EndChar

StartChar: X
Encoding: 88 88 36
Width: 1267
VWidth: 2426
Flags: HMW
LayerCount: 2
Fore
SplineSet
103 1276 m 0
 103 1328 145 1377 202 1377 c 0
 234 1377 266 1362 285 1335 c 2
 622 857 l 1
 987 1394 l 2
 1006 1422 1039 1438 1071 1438 c 0
 1129 1438 1170 1388 1170 1337 c 0
 1170 1318 1164 1299 1153 1282 c 2
 745 683 l 1
 1189 54 l 2
 1201 37 1207 17 1207 -3 c 0
 1207 -55 1165 -104 1108 -104 c 0
 1076 -104 1044 -89 1025 -62 c 2
 625 505 l 1
 243 -56 l 2
 224 -84 191 -100 159 -100 c 0
 101 -100 60 -50 60 1 c 0
 60 20 66 39 77 56 c 2
 501 680 l 1
 121 1219 l 2
 109 1236 103 1256 103 1276 c 0
EndSplineSet
Colour: ffff
EndChar

StartChar: Y
Encoding: 89 89 37
Width: 1267
VWidth: 2426
Flags: HMW
LayerCount: 2
Fore
SplineSet
736 2 m 2
 737 -53 692 -100 636 -100 c 0
 582 -100 537 -56 536 -2 c 2
 526 601 l 1
 79 1229 l 2
 67 1246 60 1266 60 1286 c 0
 60 1338 102 1387 159 1387 c 0
 191 1387 222 1372 241 1345 c 2
 623 808 l 1
 1024 1394 l 2
 1043 1422 1076 1438 1108 1438 c 0
 1166 1438 1207 1388 1207 1337 c 0
 1207 1318 1202 1299 1190 1282 c 2
 726 603 l 1
 736 2 l 2
EndSplineSet
Colour: ffff
EndChar

StartChar: Z
Encoding: 90 90 38
Width: 1422
VWidth: 2426
Flags: HMW
LayerCount: 2
Fore
SplineSet
161 1140 m 0
 111 1140 60 1179 60 1239 c 0
 60 1284 91 1326 136 1337 c 0
 342 1388 529 1416 745 1416 c 0
 767 1416 797 1417 831 1417 c 0
 951 1417 1122 1403 1184 1278 c 0
 1194 1258 1200 1234 1200 1211 c 0
 1200 1153 1170 1108 1136 1071 c 0
 848 754 617 492 401 167 c 1
 660 191 921 204 1197 204 c 2
 1262 204 l 2
 1316 204 1362 158 1362 104 c 0
 1362 50 1316 4 1262 4 c 2
 1197 4 l 2
 855 4 536 -16 217 -52 c 0
 213 -52 209 -53 205 -53 c 0
 146 -53 106 -2 106 48 c 0
 106 66 111 83 121 99 c 0
 378 522 644 826 977 1193 c 1
 920 1209 817 1216 745 1216 c 0
 547 1216 378 1192 184 1143 c 0
 176 1141 169 1140 161 1140 c 0
EndSplineSet
Colour: ffff
EndChar

StartChar: zero
Encoding: 48 48 39
Width: 1141
VWidth: 2426
Flags: HMW
LayerCount: 2
Fore
SplineSet
260 516 m 0
 260 277 323 145 490 145 c 0
 767 145 881 493 881 873 c 0
 881 1105 775 1261 600 1261 c 0
 375 1261 260 865 260 516 c 0
60 516 m 0
 60 825 137 1461 600 1461 c 0
 935 1461 1081 1153 1081 873 c 0
 1081 511 979 -55 490 -55 c 0
 145 -55 60 265 60 516 c 0
EndSplineSet
Colour: ffff
EndChar

StartChar: one
Encoding: 49 49 40
Width: 616
VWidth: 2426
Flags: HMW
LayerCount: 2
Fore
SplineSet
379 -100 m 0
 323 -100 279 -53 279 0 c 0
 279 2 279 4 279 6 c 2
 344 1121 l 1
 301 1089 256 1059 210 1032 c 0
 195 1023 178 1018 161 1018 c 0
 110 1018 60 1058 60 1117 c 0
 60 1152 78 1186 110 1204 c 0
 194 1253 282 1321 354 1389 c 0
 369 1403 396 1416 422 1416 c 2
 456 1416 l 2
 508 1416 556 1372 556 1316 c 0
 556 1314 556 1312 556 1310 c 2
 479 -6 l 2
 476 -58 431 -100 379 -100 c 0
EndSplineSet
Colour: ffff
EndChar

StartChar: two
Encoding: 50 50 41
Width: 1171
VWidth: 2426
Flags: HMW
LayerCount: 2
Fore
SplineSet
161 -55 m 0
 106 -55 60 -9 60 45 c 0
 60 72 72 99 93 119 c 2
 470 463 l 2
 707 679 853 837 853 991 c 0
 853 1102 768 1216 609 1216 c 0
 432 1216 308 1065 308 874 c 0
 308 820 262 774 208 774 c 0
 154 774 108 820 108 874 c 0
 108 1149 300 1416 609 1416 c 0
 880 1416 1053 1206 1053 991 c 0
 1053 717 829 521 604 315 c 2
 439 164 l 1
 501 166 563 167 626 167 c 0
 755 167 885 162 1016 156 c 0
 1069 154 1111 109 1111 56 c 0
 1111 0 1064 -44 1011 -44 c 2
 1006 -44 l 1
 876 -38 749 -33 626 -33 c 0
 471 -33 321 -38 170 -54 c 0
 167 -54 164 -55 161 -55 c 0
EndSplineSet
Colour: ffff
EndChar

StartChar: three
Encoding: 51 51 42
Width: 1078
VWidth: 2426
Flags: HMW
LayerCount: 2
Fore
SplineSet
224 937 m 0
 164 937 125 987 125 1038 c 0
 125 1045 125 1052 127 1059 c 0
 178 1285 386 1416 581 1416 c 0
 784 1416 970 1264 970 978 c 0
 970 868 919 778 846 720 c 1
 944 667 1013 570 1018 435 c 1
 1018 122 760 -55 484 -55 c 0
 347 -55 207 -12 97 79 c 0
 73 99 60 127 60 156 c 0
 60 212 107 256 160 256 c 0
 182 256 206 248 224 233 c 0
 293 176 389 145 484 145 c 0
 681 145 817 255 818 431 c 1
 814 522 767 559 629 581 c 0
 600 586 566 590 531 590 c 0
 470 590 416 571 361 571 c 0
 308 571 261 614 261 671 c 0
 261 721 301 763 344 770 c 0
 429 785 535 797 609 821 c 0
 727 859 770 903 770 978 c 0
 770 1168 678 1216 581 1216 c 0
 470 1216 350 1137 323 1015 c 0
 313 969 270 937 224 937 c 0
EndSplineSet
Colour: ffff
EndChar

StartChar: four
Encoding: 52 52 43
Width: 1268
VWidth: 2426
Flags: HMW
LayerCount: 2
Fore
SplineSet
834 1024 m 0
 892 1024 934 976 934 924 c 0
 934 920 933 917 933 913 c 2
 878 434 l 1
 948 447 1017 462 1084 478 c 0
 1092 480 1099 481 1107 481 c 0
 1158 481 1208 442 1208 382 c 0
 1208 337 1177 295 1132 284 c 0
 1043 262 950 243 855 227 c 1
 827 -11 l 2
 821 -61 778 -100 728 -100 c 0
 670 -100 628 -52 628 0 c 0
 628 4 629 7 629 11 c 2
 650 199 l 1
 556 189 462 184 368 184 c 0
 323 184 279 186 231 193 c 0
 193 197 119 210 79 284 c 0
 67 307 60 333 60 359 c 0
 60 415 81 452 102 480 c 0
 321 776 487 1001 629 1353 c 0
 645 1392 683 1416 723 1416 c 0
 783 1416 822 1365 822 1315 c 0
 822 1303 820 1291 815 1279 c 0
 668 915 493 671 283 388 c 1
 312 385 338 384 368 384 c 0
 469 384 572 391 674 403 c 1
 735 935 l 2
 741 985 784 1024 834 1024 c 0
EndSplineSet
Colour: ffff
EndChar

StartChar: five
Encoding: 53 53 44
Width: 1133
VWidth: 2426
Flags: HMW
LayerCount: 2
Fore
SplineSet
962 1437 m 0
 1013 1437 1063 1398 1063 1338 c 0
 1063 1292 1031 1249 984 1239 c 0
 902 1222 774 1216 637 1216 c 0
 537 1216 433 1220 347 1228 c 1
 333 1028 l 1
 401 1054 469 1066 538 1066 c 0
 812 1066 1073 861 1073 510 c 0
 1073 136 785 -67 496 -67 c 0
 356 -67 214 -21 98 72 c 0
 73 92 60 120 60 150 c 0
 60 206 108 250 160 250 c 0
 182 250 204 242 222 228 c 0
 301 165 400 133 496 133 c 0
 695 133 873 258 873 510 c 0
 873 749 712 866 538 866 c 0
 451 866 360 835 286 769 c 0
 269 754 244 744 219 744 c 0
 164 744 119 790 119 844 c 2
 119 851 l 1
 155 1348 l 2
 159 1397 203 1441 256 1441 c 0
 262 1441 269 1440 275 1439 c 0
 346 1425 496 1416 637 1416 c 0
 766 1416 892 1424 942 1435 c 0
 949 1436 955 1437 962 1437 c 0
EndSplineSet
Colour: ffff
EndChar

StartChar: six
Encoding: 54 54 45
Width: 1130
VWidth: 2426
Flags: HMW
LayerCount: 2
Fore
SplineSet
611 1429 m 0
 661 1429 712 1389 712 1330 c 0
 712 1294 692 1259 659 1241 c 0
 523 1168 434 1058 376 927 c 1
 453 969 538 990 621 990 c 0
 775 990 923 916 1006 764 c 0
 1048 687 1070 595 1070 490 c 0
 1070 220 862 -55 564 -55 c 0
 268 -55 117 164 95 408 c 1
 73 427 60 456 60 485 c 0
 60 494 62 502 64 511 c 0
 73 544 85 575 97 605 c 1
 102 667 110 729 123 790 c 0
 176 1035 308 1278 565 1417 c 0
 580 1425 595 1429 611 1429 c 0
294 556 m 1
 293 532 292 508 292 483 c 0
 292 268 375 145 564 145 c 0
 728 145 870 310 870 490 c 0
 870 648 805 730 729 767 c 0
 697 783 660 791 621 791 c 0
 537 791 443 753 366 666 c 0
 339 636 315 599 294 556 c 1
EndSplineSet
Colour: ffff
EndChar

StartChar: eight
Encoding: 56 56 46
Width: 1079
VWidth: 2426
Flags: HMW
LayerCount: 2
Fore
SplineSet
937 1215 m 0
 937 1158 889 1115 837 1115 c 0
 816 1115 795 1122 777 1135 c 0
 711 1184 615 1216 512 1216 c 0
 334 1216 260 1119 260 994 c 0
 260 926 302 866 376 814 c 1
 538 935 735 1024 879 1088 c 0
 892 1094 905 1096 918 1096 c 0
 968 1096 1019 1057 1019 997 c 0
 1019 958 996 920 959 904 c 0
 846 854 707 791 584 714 c 1
 721 654 931 556 931 350 c 0
 931 108 732 -55 506 -55 c 0
 273 -55 88 114 88 354 c 0
 88 481 147 590 225 678 c 1
 140 747 60 853 60 994 c 0
 60 1227 236 1416 512 1416 c 0
 655 1416 791 1374 897 1295 c 0
 923 1276 937 1246 937 1215 c 0
401 573 m 1
 326 498 288 425 288 354 c 0
 288 226 371 145 506 145 c 0
 640 145 731 230 731 350 c 0
 731 405 613 488 429 561 c 0
 420 565 411 569 401 573 c 1
EndSplineSet
Colour: ffff
EndChar

StartChar: period
Encoding: 46 46 47
Width: 518
VWidth: 2864
Flags: HMW
LayerCount: 2
Fore
SplineSet
66 103 m 0
 66 172 135 225 213 225 c 0
 291 225 334 173 334 95 c 0
 334 17 283 -52 205 -52 c 0
 127 -52 66 26 66 103 c 0
EndSplineSet
Colour: ff0000
EndChar

StartChar: comma
Encoding: 44 44 49
Width: 478
VWidth: 1823
Flags: HMW
LayerCount: 2
Fore
SplineSet
111 -307 m 0
 52 -307 12 -257 12 -206 c 0
 12 -189 17 -172 26 -157 c 2
 256 239 l 2
 274 271 308 289 343 289 c 0
 402 289 442 239 442 188 c 0
 442 171 437 154 428 139 c 2
 198 -257 l 2
 180 -289 146 -307 111 -307 c 0
EndSplineSet
Colour: ffff
EndChar

StartChar: bracketleft
Encoding: 91 91 51
Width: 562
VWidth: 2426
Flags: HMW
LayerCount: 2
Fore
SplineSet
449 1421 m 0
 502 1421 549 1378 549 1321 c 0
 549 1270 509 1225 457 1221 c 0
 403 1217 349 1216 295 1216 c 2
 249 1216 l 1
 255 1133 258 1053 258 972 c 0
 258 741 234 502 234 281 c 0
 234 276 234 271 234 266 c 0
 234 159 247 154 449 145 c 0
 502 143 544 98 544 45 c 0
 544 -11 497 -55 444 -55 c 2
 440 -55 l 1
 244 -46 34 1 34 266 c 0
 34 495 58 740 58 972 c 0
 58 1085 52 1196 39 1309 c 0
 39 1312 38 1314 38 1317 c 0
 38 1360 75 1421 138 1421 c 0
 190 1421 241 1416 295 1416 c 0
 350 1416 400 1421 449 1421 c 0
EndSplineSet
Colour: ffff
EndChar

StartChar: bracketright
Encoding: 93 93 52
Width: 735
VWidth: 2426
Flags: HMW
LayerCount: 2
Fore
SplineSet
0 1343 m 0
 0 1402 49 1443 100 1443 c 0
 105 1443 111 1443 116 1442 c 0
 206 1428 310 1418 412 1416 c 0
 470 1415 510 1364 510 1314 c 0
 510 1308 509 1301 508 1295 c 0
 474 1137 472 1064 472 875 c 0
 472 683 526 481 526 285 c 0
 526 6 297 -55 107 -55 c 0
 53 -55 7 -9 7 45 c 0
 7 99 53 145 107 145 c 0
 281 145 326 166 326 285 c 0
 326 476 272 677 272 875 c 0
 272 1017 273 1107 290 1221 c 1
 220 1226 148 1234 84 1244 c 0
 35 1252 0 1295 0 1343 c 0
EndSplineSet
Colour: ffff
EndChar

StartChar: braceleft
Encoding: 123 123 53
Width: 564
VWidth: 1839
Flags: HMW
LayerCount: 2
Fore
SplineSet
158 215 m 0
 158 283 172 335 172 413 c 0
 172 500 159 600 142 647 c 1
 101 662 63 691 63 746 c 0
 63 798 103 841 158 848 c 1
 164 878 167 927 167 983 c 0
 167 1062 161 1127 161 1186 c 0
 161 1343 265 1461 455 1461 c 0
 509 1461 555 1415 555 1361 c 0
 555 1307 509 1261 455 1261 c 0
 367 1261 361 1253 361 1209 c 2
 361 1186 l 2
 361 1131 367 1077 367 1017 c 2
 367 983 l 2
 367 888 365 801 326 726 c 1
 362 636 372 519 372 413 c 0
 372 362 369 316 363 274 c 0
 359 250 358 231 358 215 c 2
 358 192 l 2
 358 152 365 145 458 145 c 0
 512 145 558 99 558 45 c 0
 558 -9 512 -55 458 -55 c 0
 277 -55 158 47 158 215 c 0
EndSplineSet
Colour: ffff
EndChar

StartChar: grave
Encoding: 96 96 55
Width: 525
VWidth: 2426
Flags: HMW
LayerCount: 2
Fore
SplineSet
81 1482 m 0
 81 1534 124 1582 181 1582 c 0
 211 1582 240 1569 260 1544 c 0
 329 1456 402 1318 451 1210 c 0
 457 1197 460 1184 460 1170 c 0
 460 1120 421 1069 361 1069 c 0
 323 1069 286 1091 269 1128 c 0
 226 1224 151 1358 102 1420 c 0
 88 1438 81 1460 81 1482 c 0
EndSplineSet
Colour: ffff
EndChar

StartChar: bar
Encoding: 124 124 56
Width: 356
VWidth: 2426
Flags: HMW
LayerCount: 2
Fore
SplineSet
159 -100 m 0
 104 -100 59 -54 59 0 c 0
 59 367 76 1041 76 1459 c 0
 76 1513 122 1559 176 1559 c 0
 230 1559 276 1513 276 1459 c 0
 276 1039 266 366 259 -2 c 0
 258 -56 213 -100 159 -100 c 0
EndSplineSet
Colour: ffff
EndChar

StartChar: asciicircum
Encoding: 94 94 57
Width: 703
VWidth: 2426
Flags: HMW
LayerCount: 2
Fore
SplineSet
164 1069 m 0
 106 1069 65 1119 65 1170 c 0
 65 1188 70 1206 80 1222 c 2
 246 1491 l 2
 265 1522 299 1537 332 1537 c 0
 355 1537 377 1530 395 1515 c 0
 494 1432 565 1334 623 1212 c 0
 630 1198 633 1184 633 1170 c 0
 633 1120 594 1069 534 1069 c 0
 497 1069 460 1090 443 1126 c 0
 414 1187 385 1235 350 1278 c 1
 250 1116 l 2
 231 1086 198 1069 164 1069 c 0
EndSplineSet
Colour: ffff
EndChar

StartChar: hyphen
Encoding: 45 45 58
Width: 1037
VWidth: 2426
Flags: HMW
LayerCount: 2
Fore
SplineSet
160 337 m 0
 107 337 60 380 60 437 c 0
 60 488 100 533 151 537 c 0
 409 559 631 561 877 561 c 0
 931 561 977 515 977 461 c 0
 977 407 931 361 877 361 c 0
 632 361 417 359 169 337 c 0
 166 337 163 337 160 337 c 0
EndSplineSet
Colour: ffff
EndChar

StartChar: plus
Encoding: 43 43 59
Width: 1033
VWidth: 2426
Flags: HMW
LayerCount: 2
Fore
SplineSet
160 541 m 0
 108 541 60 583 60 641 c 0
 60 690 98 734 148 740 c 0
 236 751 323 758 408 762 c 1
 400 858 386 954 369 1031 c 0
 367 1038 367 1045 367 1052 c 0
 367 1103 406 1153 466 1153 c 0
 512 1153 555 1121 565 1075 c 0
 586 982 600 874 608 767 c 1
 618 767 l 2
 704 767 790 765 878 761 c 0
 931 759 973 714 973 661 c 0
 973 605 926 561 873 561 c 0
 787 561 702 567 618 567 c 2
 616 567 l 1
 616 566 l 2
 616 445 610 340 582 260 c 0
 568 219 527 193 486 193 c 0
 426 193 387 244 387 294 c 0
 387 305 389 315 393 326 c 0
 405 360 416 453 416 562 c 1
 336 558 255 552 172 542 c 0
 168 542 164 541 160 541 c 0
EndSplineSet
Colour: ffff
EndChar

StartChar: exclam
Encoding: 33 33 60
Width: 583
VWidth: 0
Flags: HMW
LayerCount: 2
Fore
SplineSet
150 1361 m 0
 150 1413 192 1461 250 1461 c 0
 299 1461 342 1425 349 1375 c 0
 386 1104 395 838 395 547 c 0
 395 508 395 465 394 422 c 0
 393 368 348 324 294 324 c 0
 239 324 194 370 194 424 c 0
 194 465 195 507 195 547 c 0
 195 834 186 1090 151 1347 c 0
 150 1351 150 1357 150 1361 c 0
433 85 m 0
 433 29 387 -55 298 -55 c 0
 244 -55 150 -19 150 84 c 0
 150 163 214 228 294 228 c 0
 381 228 433 150 433 85 c 0
EndSplineSet
Colour: ffff
EndChar

StartChar: quotesingle
Encoding: 39 39 62
Width: 331
VWidth: 2426
Flags: HMW
LayerCount: 2
Fore
SplineSet
160 845 m 0
 122 845 95 876 95 910 c 2
 95 917 l 1
 102 978 106 1051 106 1126 c 0
 106 1203 102 1283 95 1355 c 0
 95 1357 95 1359 95 1361 c 0
 95 1395 123 1426 160 1426 c 0
 193 1426 222 1400 225 1367 c 0
 232 1291 236 1207 236 1126 c 0
 236 1047 232 970 225 903 c 0
 221 870 192 845 160 845 c 0
EndSplineSet
Colour: ffff00
EndChar

StartChar: parenleft
Encoding: 40 40 63
Width: 636
VWidth: 1839
Flags: HMW
LayerCount: 2
Fore
SplineSet
376 1512 m 0
 436 1512 475 1461 475 1411 c 0
 475 1396 472 1382 465 1368 c 0
 343 1116 315 959 315 682 c 0
 315 418 383 261 511 -2 c 0
 518 -16 521 -30 521 -45 c 0
 521 -95 482 -146 422 -146 c 0
 385 -146 348 -125 331 -90 c 0
 203 173 115 376 115 682 c 0
 115 975 151 1182 285 1456 c 0
 302 1491 339 1512 376 1512 c 0
EndSplineSet
Colour: ffff
EndChar

StartChar: less
Encoding: 60 60 65
Width: 585
VWidth: 1839
Flags: HMW
LayerCount: 2
Fore
SplineSet
525 414 m 0
 525 363 485 313 426 313 c 0
 392 313 358 330 339 361 c 0
 270 474 188 572 94 654 c 0
 71 674 62 701 62 727 c 0
 62 758 75 789 96 806 c 0
 190 884 271 978 338 1095 c 0
 356 1127 391 1145 426 1145 c 0
 485 1145 525 1094 525 1044 c 0
 525 1027 521 1010 512 995 c 0
 453 892 384 804 307 728 c 1
 383 650 452 562 511 465 c 0
 521 449 525 432 525 414 c 0
EndSplineSet
Colour: ffff
EndChar

StartChar: backslash
Encoding: 92 92 66
Width: 967
VWidth: 2426
Flags: HMW
LayerCount: 2
Fore
SplineSet
44 1316 m 0
 44 1368 87 1416 144 1416 c 0
 175 1416 205 1402 224 1376 c 0
 538 954 787 591 983 33 c 0
 987 22 989 12 989 1 c 0
 989 -49 950 -100 890 -100 c 0
 849 -100 809 -74 795 -33 c 0
 608 499 376 836 64 1256 c 0
 51 1274 44 1295 44 1316 c 0
EndSplineSet
Colour: ffff
EndChar

StartChar: asterisk
Encoding: 42 42 67
Width: 1108
VWidth: 1839
Flags: HMW
LayerCount: 2
Fore
SplineSet
417 1345 m 0
 417 1396 458 1445 517 1445 c 0
 564 1445 607 1410 615 1362 c 0
 632 1266 643 1173 649 1080 c 1
 734 1122 822 1161 913 1195 c 0
 924 1199 936 1201 947 1201 c 0
 997 1201 1048 1162 1048 1102 c 0
 1048 1061 1023 1022 983 1007 c 0
 904 977 828 945 754 909 c 1
 829 859 901 804 971 747 c 0
 995 727 1007 699 1007 670 c 0
 1007 614 960 570 907 570 c 0
 885 570 861 578 843 593 c 0
 780 645 715 694 648 739 c 1
 642 647 631 557 616 466 c 0
 608 418 565 382 517 382 c 0
 458 382 417 431 417 482 c 0
 417 487 417 493 418 498 c 0
 431 575 441 653 447 731 c 1
 384 688 323 642 264 593 c 0
 246 578 222 570 200 570 c 0
 147 570 100 614 100 670 c 0
 100 699 112 727 136 747 c 0
 206 805 279 859 354 909 c 1
 281 945 204 977 125 1007 c 0
 85 1022 60 1061 60 1102 c 0
 60 1162 111 1201 161 1201 c 0
 172 1201 184 1199 195 1195 c 0
 282 1162 367 1125 448 1085 c 1
 442 1165 433 1246 419 1328 c 0
 418 1334 417 1339 417 1345 c 0
EndSplineSet
Colour: ffff
EndChar

StartChar: numbersign
Encoding: 35 35 68
Width: 1734
VWidth: 1823
Flags: HMW
LayerCount: 2
Fore
SplineSet
1113 847 m 1
 743 836 l 1
 665 577 l 1
 1059 562 l 1
 1113 847 l 1
387 -100 m 0
 327 -100 288 -49 288 1 c 0
 288 10 289 20 292 29 c 2
 399 387 l 1
 156 396 l 2
 103 398 60 443 60 496 c 0
 60 552 106 596 160 596 c 2
 164 596 l 1
 459 585 l 1
 532 830 l 1
 255 822 l 2
 254 822 253 822 252 822 c 0
 198 822 152 867 152 922 c 0
 152 975 195 1020 249 1022 c 2
 592 1032 l 1
 699 1390 l 2
 712 1433 753 1461 796 1461 c 0
 856 1461 895 1410 895 1360 c 0
 895 1351 894 1341 891 1332 c 2
 803 1038 l 1
 1152 1049 l 1
 1215 1380 l 2
 1224 1427 1266 1461 1313 1461 c 0
 1372 1461 1413 1412 1413 1361 c 0
 1413 1355 1412 1348 1411 1342 c 2
 1356 1055 l 1
 1571 1061 l 2
 1572 1061 1573 1061 1574 1061 c 0
 1628 1061 1674 1016 1674 961 c 0
 1674 908 1630 863 1577 861 c 2
 1318 853 l 1
 1261 554 l 1
 1514 545 l 2
 1567 543 1610 498 1610 445 c 0
 1610 389 1564 345 1510 345 c 2
 1506 345 l 1
 1223 356 l 1
 1151 -19 l 2
 1142 -66 1100 -100 1053 -100 c 0
 994 -100 953 -51 953 0 c 0
 953 6 954 13 955 19 c 2
 1021 363 l 1
 606 379 l 1
 484 -29 l 2
 471 -72 430 -100 387 -100 c 0
EndSplineSet
Colour: ffff
EndChar

StartChar: percent
Encoding: 37 37 69
Width: 1348
VWidth: 1823
Flags: HMW
LayerCount: 2
Fore
SplineSet
382 -100 m 0
 322 -100 283 -49 283 1 c 0
 283 9 284 16 286 24 c 0
 429 594 665 1004 907 1412 c 0
 926 1443 960 1461 994 1461 c 0
 1053 1461 1093 1411 1093 1360 c 0
 1093 1343 1088 1326 1079 1310 c 0
 837 902 615 516 480 -24 c 0
 469 -69 427 -100 382 -100 c 0
967 186 m 0
 1034 186 1088 241 1088 283 c 0
 1088 330 1047 374 979 374 c 0
 915 374 893 351 893 293 c 0
 893 220 940 186 967 186 c 0
967 -14 m 0
 798 -14 693 142 693 293 c 0
 693 459 819 574 979 574 c 0
 1135 574 1288 460 1288 283 c 0
 1288 101 1120 -14 967 -14 c 0
260 1158 m 0
 260 1091 314 1038 357 1038 c 0
 405 1038 447 1077 447 1145 c 0
 447 1210 424 1231 367 1231 c 0
 293 1231 260 1184 260 1158 c 0
60 1158 m 0
 60 1328 217 1431 367 1431 c 0
 534 1431 647 1304 647 1145 c 0
 647 989 533 838 357 838 c 0
 176 838 60 1005 60 1158 c 0
EndSplineSet
Colour: ffff
EndChar

StartChar: slash
Encoding: 47 47 70
Width: 965
VWidth: 1839
Flags: HMW
LayerCount: 2
Fore
SplineSet
199 -100 m 0
 140 -100 100 -50 100 1 c 0
 100 18 104 36 114 52 c 0
 381 496 572 925 667 1381 c 0
 677 1428 720 1461 766 1461 c 0
 826 1461 865 1411 865 1360 c 0
 865 1353 864 1348 863 1341 c 0
 762 857 561 404 286 -52 c 0
 267 -83 233 -100 199 -100 c 0
EndSplineSet
Colour: ffff
EndChar

StartChar: equal
Encoding: 61 61 72
Width: 1037
VWidth: 1839
Flags: HMW
LayerCount: 2
Fore
SplineSet
60 875 m 0
 60 932 107 975 160 975 c 0
 163 975 166 975 169 975 c 0
 278 966 468 961 557 961 c 0
 664 961 779 967 869 975 c 1
 877 975 l 2
 930 975 977 932 977 875 c 0
 977 824 937 779 886 775 c 0
 790 767 672 761 557 761 c 0
 462 761 272 764 151 775 c 0
 100 779 60 824 60 875 c 0
60 472 m 0
 60 531 110 571 161 571 c 0
 167 571 173 570 179 569 c 0
 213 562 398 556 498 556 c 0
 602 556 742 561 869 571 c 1
 877 571 l 2
 930 571 977 528 977 471 c 0
 977 420 937 375 885 371 c 0
 752 361 608 356 498 356 c 0
 388 356 219 358 141 373 c 0
 94 382 60 425 60 472 c 0
EndSplineSet
Colour: ffff
EndChar

StartChar: AE
Encoding: 198 198 75
Width: 1909
VWidth: 2426
Flags: HMW
LayerCount: 2
Fore
SplineSet
1781 1474 m 0
 1832 1474 1882 1435 1882 1375 c 0
 1882 1330 1851 1288 1805 1277 c 0
 1630 1236 1448 1217 1258 1217 c 0
 1240 1217 1205 1218 1160 1218 c 1
 1160 1186 1161 1153 1161 1119 c 0
 1161 1023 1161 918 1159 811 c 1
 1359 811 1555 805 1705 793 c 0
 1757 789 1797 744 1797 693 c 0
 1797 636 1750 593 1697 593 c 2
 1689 593 l 1
 1546 605 1351 611 1153 611 c 1
 1147 461 1136 317 1115 199 c 0
 1112 186 1112 177 1112 173 c 0
 1112 151 1142 108 1286 100 c 0
 1412 92 1510 87 1636 87 c 2
 1698 87 l 2
 1719 87 1740 88 1760 88 c 0
 1813 88 1860 44 1860 -12 c 0
 1860 -64 1818 -109 1765 -112 c 0
 1742 -113 1719 -113 1698 -113 c 2
 1636 -113 l 2
 1505 -113 1402 -108 1274 -100 c 0
 1136 -92 912 -41 912 173 c 0
 912 195 915 215 919 235 c 0
 936 334 947 467 953 609 c 1
 831 607 702 603 600 598 c 1
 492 347 356 108 210 -65 c 0
 190 -88 163 -100 134 -100 c 0
 78 -100 34 -53 34 0 c 0
 34 23 42 47 58 65 c 0
 182 212 305 429 406 659 c 1
 402 669 401 680 401 692 c 0
 401 731 424 766 458 782 c 1
 536 978 596 1176 627 1343 c 0
 635 1384 675 1425 725 1425 c 0
 795 1425 1186 1417 1258 1417 c 0
 1434 1417 1602 1434 1759 1471 c 0
 1766 1473 1774 1474 1781 1474 c 0
681 803 m 1
 769 806 867 809 959 810 c 1
 961 917 961 1023 961 1119 c 0
 961 1154 960 1188 960 1220 c 1
 904 1221 850 1222 806 1223 c 1
 777 1090 734 947 681 803 c 1
EndSplineSet
Colour: ffff
EndChar

StartChar: cedilla
Encoding: 184 184 77
Width: 729
VWidth: 2426
Flags: HMW
LayerCount: 2
Fore
SplineSet
227 0 m 0
 227 56 275 100 327 100 c 0
 349 100 372 93 390 78 c 0
 488 -2 657 -177 657 -361 c 0
 657 -520 511 -601 319 -601 c 0
 248 -601 183 -591 133 -577 c 0
 89 -565 60 -524 60 -480 c 0
 60 -420 111 -381 161 -381 c 0
 170 -381 178 -383 187 -385 c 0
 215 -393 268 -401 319 -401 c 0
 445 -401 458 -377 458 -366 c 0
 458 -363 457 -361 457 -361 c 1
 457 -301 344 -142 264 -78 c 0
 240 -58 227 -29 227 0 c 0
EndSplineSet
Colour: ffff
EndChar

StartChar: Oslash
Encoding: 216 216 78
Width: 1485
VWidth: 1823
Flags: HMW
LayerCount: 2
Fore
SplineSet
169 -55 m 0
 111 -55 70 -5 70 46 c 0
 70 65 76 83 87 100 c 0
 444 636 827 991 1267 1390 c 0
 1286 1407 1310 1416 1334 1416 c 0
 1387 1416 1434 1371 1434 1316 c 0
 1434 1289 1422 1261 1401 1242 c 0
 961 843 596 504 253 -10 c 0
 234 -39 202 -55 169 -55 c 0
EndSplineSet
Refer: 27 79 N 1 0 0 1 0 0 2
Colour: ffff
EndChar

StartChar: uni0627
Encoding: 1575 1575 80
Width: 445
VWidth: 1839
Flags: HMW
AnchorPoint: "Anchor-3" 269 1459 basechar 0
AnchorPoint: "Anchor-1" 144 0 basechar 0
LayerCount: 2
Fore
SplineSet
100 1316 m 0
 100 1368 142 1416 200 1416 c 0
 249 1416 292 1379 299 1329 c 0
 332 1082 345 797 345 531 c 0
 345 363 338 162 324 -7 c 0
 320 -59 275 -99 224 -99 c 0
 167 -99 124 -52 124 1 c 2
 124 9 l 1
 138 170 145 369 145 531 c 0
 145 791 132 1070 101 1303 c 0
 100 1307 100 1312 100 1316 c 0
EndSplineSet
PairPos2: "'kern' Horizontal Kerning in Arabic lookup 2 per glyph data 0" uni063A dx=-267 dy=0 dh=-267 dv=0 dx=0 dy=0 dh=0 dv=0
PairPos2: "'kern' Horizontal Kerning in Arabic lookup 2 per glyph data 0" uni0639 dx=-267 dy=0 dh=-267 dv=0 dx=0 dy=0 dh=0 dv=0
Substitution2: "'fina' Terminal Forms in Arabic lookup 4 subtable" uniFE8E
PairPos2: "'kern' Horizontal Kerning in Arabic lookup 2 per glyph data 1" uni0639 dx=-200 dy=0 dh=-200 dv=0 dx=0 dy=0 dh=0 dv=0
PairPos2: "'kern' Horizontal Kerning in Arabic lookup 2 per glyph data 1" uni063A dx=-200 dy=0 dh=-200 dv=0 dx=0 dy=0 dh=0 dv=0
Colour: ffff
EndChar

StartChar: uni066E
Encoding: 1646 1646 81
Width: 1706
VWidth: 2370
Flags: HMW
AnchorPoint: "Anchor-3" 829 519 basechar 0
AnchorPoint: "Anchor-1" 794 0 basechar 0
LayerCount: 2
Fore
SplineSet
1348 643 m 0
 1348 700 1396 743 1448 743 c 0
 1469 743 1490 736 1508 723 c 0
 1605 650 1656 521 1656 400 c 0
 1656 -17 1083 -55 821 -55 c 0
 543 -55 50 -29 50 389 c 0
 50 467 68 565 123 640 c 0
 142 666 173 680 204 680 c 0
 261 680 303 632 303 580 c 0
 303 559 296 538 283 520 c 0
 270 503 250 431 250 389 c 0
 250 201 493 145 821 145 c 0
 1137 145 1456 227 1456 400 c 0
 1456 467 1419 540 1388 563 c 0
 1362 582 1348 612 1348 643 c 0
EndSplineSet
Substitution2: "'fina' Terminal Forms in Arabic lookup 4 subtable" uniFBE8
Colour: ffff
EndChar

StartChar: uni0631
Encoding: 1585 1585 82
Width: 885
VWidth: 2370
Flags: HMW
AnchorPoint: "Anchor-1" 505 -394 basechar 0
AnchorPoint: "Anchor-3" 648 624 basechar 0
LayerCount: 2
Fore
SplineSet
200 -557 m 0
 148 -557 100 -515 100 -457 c 0
 100 -408 137 -365 186 -358 c 0
 483 -317 635 -170 635 181 c 0
 635 288 616 405 581 489 c 0
 576 501 573 513 573 526 c 0
 573 576 612 627 672 627 c 0
 711 627 749 603 765 565 c 0
 814 447 835 310 835 181 c 0
 835 -258 595 -503 214 -556 c 0
 210 -557 204 -557 200 -557 c 0
EndSplineSet
PairPos2: "'kern' Horizontal Kerning in Arabic lookup 2 per glyph data 2" uniFBFE dx=-134 dy=0 dh=-134 dv=0 dx=0 dy=0 dh=0 dv=0
PairPos2: "'kern' Horizontal Kerning in Arabic lookup 2 per glyph data 2" uniFEF3 dx=-134 dy=0 dh=-134 dv=0 dx=0 dy=0 dh=0 dv=0
PairPos2: "'kern' Horizontal Kerning in Arabic lookup 2 per glyph data 2" uniFB58 dx=-134 dy=0 dh=-134 dv=0 dx=0 dy=0 dh=0 dv=0
Substitution2: "'fina' Terminal Forms in Arabic lookup 4 subtable" uniFEAE
PairPos2: "'kern' Horizontal Kerning in Arabic lookup 2 per glyph data 3" uni06A9 dx=-267 dy=0 dh=-267 dv=0 dx=0 dy=0 dh=0 dv=0
PairPos2: "'kern' Horizontal Kerning in Arabic lookup 2 per glyph data 3" uni06AF dx=-267 dy=0 dh=-267 dv=0 dx=0 dy=0 dh=0 dv=0
PairPos2: "'kern' Horizontal Kerning in Arabic lookup 2 per glyph data 3" uniFB90 dx=-267 dy=0 dh=-267 dv=0 dx=0 dy=0 dh=0 dv=0
PairPos2: "'kern' Horizontal Kerning in Arabic lookup 2 per glyph data 3" uniFB94 dx=-267 dy=0 dh=-267 dv=0 dx=0 dy=0 dh=0 dv=0
PairPos2: "'kern' Horizontal Kerning in Arabic lookup 2 per glyph data 3" uniFEDB dx=-267 dy=0 dh=-267 dv=0 dx=0 dy=0 dh=0 dv=0
PairPos2: "'kern' Horizontal Kerning in Arabic lookup 2 per glyph data 2" uni0622 dx=-267 dy=0 dh=-267 dv=0 dx=0 dy=0 dh=0 dv=0
PairPos2: "'kern' Horizontal Kerning in Arabic lookup 2 per glyph data 2" uni0623 dx=-267 dy=0 dh=-267 dv=0 dx=0 dy=0 dh=0 dv=0
PairPos2: "'kern' Horizontal Kerning in Arabic lookup 2 per glyph data 2" uni0624 dx=-233 dy=0 dh=-233 dv=0 dx=0 dy=0 dh=0 dv=0
PairPos2: "'kern' Horizontal Kerning in Arabic lookup 2 per glyph data 2" uni0627 dx=-267 dy=0 dh=-267 dv=0 dx=0 dy=0 dh=0 dv=0
PairPos2: "'kern' Horizontal Kerning in Arabic lookup 2 per glyph data 2" uni0628 dx=-334 dy=0 dh=-334 dv=0 dx=0 dy=0 dh=0 dv=0
PairPos2: "'kern' Horizontal Kerning in Arabic lookup 2 per glyph data 2" uni0629 dx=-334 dy=0 dh=-334 dv=0 dx=0 dy=0 dh=0 dv=0
PairPos2: "'kern' Horizontal Kerning in Arabic lookup 2 per glyph data 2" uni062A dx=-334 dy=0 dh=-334 dv=0 dx=0 dy=0 dh=0 dv=0
PairPos2: "'kern' Horizontal Kerning in Arabic lookup 2 per glyph data 2" uni062B dx=-334 dy=0 dh=-334 dv=0 dx=0 dy=0 dh=0 dv=0
PairPos2: "'kern' Horizontal Kerning in Arabic lookup 2 per glyph data 2" uni062C dx=-111 dy=0 dh=-111 dv=0 dx=0 dy=0 dh=0 dv=0
PairPos2: "'kern' Horizontal Kerning in Arabic lookup 2 per glyph data 2" uni062D dx=-111 dy=0 dh=-111 dv=0 dx=0 dy=0 dh=0 dv=0
PairPos2: "'kern' Horizontal Kerning in Arabic lookup 2 per glyph data 2" uni062E dx=-111 dy=0 dh=-111 dv=0 dx=0 dy=0 dh=0 dv=0
PairPos2: "'kern' Horizontal Kerning in Arabic lookup 2 per glyph data 2" uni062F dx=-334 dy=0 dh=-334 dv=0 dx=0 dy=0 dh=0 dv=0
PairPos2: "'kern' Horizontal Kerning in Arabic lookup 2 per glyph data 2" uni0630 dx=-334 dy=0 dh=-334 dv=0 dx=0 dy=0 dh=0 dv=0
PairPos2: "'kern' Horizontal Kerning in Arabic lookup 2 per glyph data 2" uni0631 dx=-233 dy=0 dh=-233 dv=0 dx=0 dy=0 dh=0 dv=0
PairPos2: "'kern' Horizontal Kerning in Arabic lookup 2 per glyph data 2" uni0632 dx=-233 dy=0 dh=-233 dv=0 dx=0 dy=0 dh=0 dv=0
PairPos2: "'kern' Horizontal Kerning in Arabic lookup 2 per glyph data 2" uni0633 dx=-334 dy=0 dh=-334 dv=0 dx=0 dy=0 dh=0 dv=0
PairPos2: "'kern' Horizontal Kerning in Arabic lookup 2 per glyph data 2" uni0634 dx=-334 dy=0 dh=-334 dv=0 dx=0 dy=0 dh=0 dv=0
PairPos2: "'kern' Horizontal Kerning in Arabic lookup 2 per glyph data 2" uni0635 dx=-334 dy=0 dh=-334 dv=0 dx=0 dy=0 dh=0 dv=0
PairPos2: "'kern' Horizontal Kerning in Arabic lookup 2 per glyph data 2" uni0636 dx=-334 dy=0 dh=-334 dv=0 dx=0 dy=0 dh=0 dv=0
PairPos2: "'kern' Horizontal Kerning in Arabic lookup 2 per glyph data 2" uni0637 dx=-334 dy=0 dh=-334 dv=0 dx=0 dy=0 dh=0 dv=0
PairPos2: "'kern' Horizontal Kerning in Arabic lookup 2 per glyph data 2" uni0638 dx=-334 dy=0 dh=-334 dv=0 dx=0 dy=0 dh=0 dv=0
PairPos2: "'kern' Horizontal Kerning in Arabic lookup 2 per glyph data 2" uni0641 dx=-334 dy=0 dh=-334 dv=0 dx=0 dy=0 dh=0 dv=0
PairPos2: "'kern' Horizontal Kerning in Arabic lookup 2 per glyph data 2" uni0642 dx=-134 dy=0 dh=-134 dv=0 dx=0 dy=0 dh=0 dv=0
PairPos2: "'kern' Horizontal Kerning in Arabic lookup 2 per glyph data 2" uni0643 dx=-334 dy=0 dh=-334 dv=0 dx=0 dy=0 dh=0 dv=0
PairPos2: "'kern' Horizontal Kerning in Arabic lookup 2 per glyph data 2" uni0644 dx=-100 dy=0 dh=-100 dv=0 dx=0 dy=0 dh=0 dv=0
PairPos2: "'kern' Horizontal Kerning in Arabic lookup 2 per glyph data 2" uni0645 dx=-334 dy=0 dh=-334 dv=0 dx=0 dy=0 dh=0 dv=0
PairPos2: "'kern' Horizontal Kerning in Arabic lookup 2 per glyph data 2" uni0646 dx=-134 dy=0 dh=-134 dv=0 dx=0 dy=0 dh=0 dv=0
PairPos2: "'kern' Horizontal Kerning in Arabic lookup 2 per glyph data 2" uni0647 dx=-334 dy=0 dh=-334 dv=0 dx=0 dy=0 dh=0 dv=0
PairPos2: "'kern' Horizontal Kerning in Arabic lookup 2 per glyph data 2" uni0648 dx=-233 dy=0 dh=-233 dv=0 dx=0 dy=0 dh=0 dv=0
PairPos2: "'kern' Horizontal Kerning in Arabic lookup 2 per glyph data 2" uni067E dx=-334 dy=0 dh=-334 dv=0 dx=0 dy=0 dh=0 dv=0
PairPos2: "'kern' Horizontal Kerning in Arabic lookup 2 per glyph data 2" uni0686 dx=-111 dy=0 dh=-111 dv=0 dx=0 dy=0 dh=0 dv=0
PairPos2: "'kern' Horizontal Kerning in Arabic lookup 2 per glyph data 2" uni0698 dx=-233 dy=0 dh=-233 dv=0 dx=0 dy=0 dh=0 dv=0
PairPos2: "'kern' Horizontal Kerning in Arabic lookup 2 per glyph data 2" uni06A9 dx=-601 dy=0 dh=-601 dv=0 dx=0 dy=0 dh=0 dv=0
PairPos2: "'kern' Horizontal Kerning in Arabic lookup 2 per glyph data 2" uni06AF dx=-601 dy=0 dh=-601 dv=0 dx=0 dy=0 dh=0 dv=0
PairPos2: "'kern' Horizontal Kerning in Arabic lookup 2 per glyph data 2" uni06C0 dx=-334 dy=0 dh=-334 dv=0 dx=0 dy=0 dh=0 dv=0
PairPos2: "'kern' Horizontal Kerning in Arabic lookup 2 per glyph data 2" uni06CA dx=-233 dy=0 dh=-233 dv=0 dx=0 dy=0 dh=0 dv=0
PairPos2: "'kern' Horizontal Kerning in Arabic lookup 2 per glyph data 2" uniFB7C dx=-334 dy=0 dh=-334 dv=0 dx=0 dy=0 dh=0 dv=0
PairPos2: "'kern' Horizontal Kerning in Arabic lookup 2 per glyph data 2" uniFB90 dx=-601 dy=0 dh=-601 dv=0 dx=0 dy=0 dh=0 dv=0
PairPos2: "'kern' Horizontal Kerning in Arabic lookup 2 per glyph data 2" uniFB94 dx=-601 dy=0 dh=-601 dv=0 dx=0 dy=0 dh=0 dv=0
PairPos2: "'kern' Horizontal Kerning in Arabic lookup 2 per glyph data 2" uniFE8B dx=-334 dy=0 dh=-334 dv=0 dx=0 dy=0 dh=0 dv=0
PairPos2: "'kern' Horizontal Kerning in Arabic lookup 2 per glyph data 2" uniFE91 dx=-334 dy=0 dh=-334 dv=0 dx=0 dy=0 dh=0 dv=0
PairPos2: "'kern' Horizontal Kerning in Arabic lookup 2 per glyph data 2" uniFE97 dx=-334 dy=0 dh=-334 dv=0 dx=0 dy=0 dh=0 dv=0
PairPos2: "'kern' Horizontal Kerning in Arabic lookup 2 per glyph data 2" uniFE9B dx=-334 dy=0 dh=-334 dv=0 dx=0 dy=0 dh=0 dv=0
PairPos2: "'kern' Horizontal Kerning in Arabic lookup 2 per glyph data 2" uniFE9F dx=-334 dy=0 dh=-334 dv=0 dx=0 dy=0 dh=0 dv=0
PairPos2: "'kern' Horizontal Kerning in Arabic lookup 2 per glyph data 2" uniFEA3 dx=-334 dy=0 dh=-334 dv=0 dx=0 dy=0 dh=0 dv=0
PairPos2: "'kern' Horizontal Kerning in Arabic lookup 2 per glyph data 2" uniFEA7 dx=-334 dy=0 dh=-334 dv=0 dx=0 dy=0 dh=0 dv=0
PairPos2: "'kern' Horizontal Kerning in Arabic lookup 2 per glyph data 2" uniFEB3 dx=-334 dy=0 dh=-334 dv=0 dx=0 dy=0 dh=0 dv=0
PairPos2: "'kern' Horizontal Kerning in Arabic lookup 2 per glyph data 2" uniFEB7 dx=-334 dy=0 dh=-334 dv=0 dx=0 dy=0 dh=0 dv=0
PairPos2: "'kern' Horizontal Kerning in Arabic lookup 2 per glyph data 2" uniFEBB dx=-334 dy=0 dh=-334 dv=0 dx=0 dy=0 dh=0 dv=0
PairPos2: "'kern' Horizontal Kerning in Arabic lookup 2 per glyph data 2" uniFEBF dx=-334 dy=0 dh=-334 dv=0 dx=0 dy=0 dh=0 dv=0
PairPos2: "'kern' Horizontal Kerning in Arabic lookup 2 per glyph data 2" uniFEC3 dx=-334 dy=0 dh=-334 dv=0 dx=0 dy=0 dh=0 dv=0
PairPos2: "'kern' Horizontal Kerning in Arabic lookup 2 per glyph data 2" uniFEC7 dx=-334 dy=0 dh=-334 dv=0 dx=0 dy=0 dh=0 dv=0
PairPos2: "'kern' Horizontal Kerning in Arabic lookup 2 per glyph data 2" uniFECB dx=-334 dy=0 dh=-334 dv=0 dx=0 dy=0 dh=0 dv=0
PairPos2: "'kern' Horizontal Kerning in Arabic lookup 2 per glyph data 2" uniFECF dx=-334 dy=0 dh=-334 dv=0 dx=0 dy=0 dh=0 dv=0
PairPos2: "'kern' Horizontal Kerning in Arabic lookup 2 per glyph data 2" uniFED3 dx=-334 dy=0 dh=-334 dv=0 dx=0 dy=0 dh=0 dv=0
PairPos2: "'kern' Horizontal Kerning in Arabic lookup 2 per glyph data 2" uniFED7 dx=-334 dy=0 dh=-334 dv=0 dx=0 dy=0 dh=0 dv=0
PairPos2: "'kern' Horizontal Kerning in Arabic lookup 2 per glyph data 2" uniFEDB dx=-601 dy=0 dh=-601 dv=0 dx=0 dy=0 dh=0 dv=0
PairPos2: "'kern' Horizontal Kerning in Arabic lookup 2 per glyph data 2" uniFEDF dx=-334 dy=0 dh=-334 dv=0 dx=0 dy=0 dh=0 dv=0
PairPos2: "'kern' Horizontal Kerning in Arabic lookup 2 per glyph data 2" uniFEE3 dx=-334 dy=0 dh=-334 dv=0 dx=0 dy=0 dh=0 dv=0
PairPos2: "'kern' Horizontal Kerning in Arabic lookup 2 per glyph data 2" uniFEE7 dx=-334 dy=0 dh=-334 dv=0 dx=0 dy=0 dh=0 dv=0
PairPos2: "'kern' Horizontal Kerning in Arabic lookup 2 per glyph data 2" uniFEEB dx=-334 dy=0 dh=-334 dv=0 dx=0 dy=0 dh=0 dv=0
PairPos2: "'kern' Horizontal Kerning in Arabic lookup 2 per glyph data 2" uniFEF5 dx=-334 dy=0 dh=-334 dv=0 dx=0 dy=0 dh=0 dv=0
PairPos2: "'kern' Horizontal Kerning in Arabic lookup 2 per glyph data 2" uniFEF7 dx=-334 dy=0 dh=-334 dv=0 dx=0 dy=0 dh=0 dv=0
PairPos2: "'kern' Horizontal Kerning in Arabic lookup 2 per glyph data 2" uniFEF9 dx=-334 dy=0 dh=-334 dv=0 dx=0 dy=0 dh=0 dv=0
PairPos2: "'kern' Horizontal Kerning in Arabic lookup 2 per glyph data 2" uniFEFB dx=-334 dy=0 dh=-334 dv=0 dx=0 dy=0 dh=0 dv=0
PairPos2: "'kern' Horizontal Kerning in Arabic lookup 2 per glyph data 1" uni0639 dx=-134 dy=0 dh=-134 dv=0 dx=0 dy=0 dh=0 dv=0
PairPos2: "'kern' Horizontal Kerning in Arabic lookup 2 per glyph data 1" uni063A dx=-134 dy=0 dh=-134 dv=0 dx=0 dy=0 dh=0 dv=0
Colour: ffff
EndChar

StartChar: uni0633
Encoding: 1587 1587 83
Width: 2426
VWidth: 2315
Flags: HMW
AnchorPoint: "Anchor-1" 720 -526 basechar 0
AnchorPoint: "Anchor-3" 1751 565 basechar 0
LayerCount: 2
Fore
SplineSet
2096 680 m 0
 2096 731 2137 781 2195 781 c 0
 2228 781 2261 765 2280 736 c 0
 2348 633 2376 493 2376 359 c 0
 2376 171 2297 -95 2051 -95 c 0
 1955 -95 1867 -42 1809 40 c 1
 1749 -42 1660 -96 1553 -96 c 0
 1496 -96 1439 -83 1390 -54 c 1
 1335 -391 1025 -587 689 -587 c 0
 400 -587 50 -430 50 -68 c 0
 50 229 272 452 439 546 c 0
 454 555 470 559 487 559 c 0
 537 559 588 519 588 460 c 0
 588 425 569 390 537 372 c 0
 410 300 250 123 250 -68 c 0
 250 -266 444 -387 689 -387 c 0
 981 -387 1198 -211 1198 50 c 0
 1198 132 1183 212 1165 292 c 1
 1152 330 1139 371 1126 414 c 0
 1123 423 1122 433 1122 442 c 0
 1122 492 1161 543 1220 543 c 0
 1262 543 1299 514 1312 486 c 0
 1331 445 1345 398 1357 348 c 1
 1381 279 1405 226 1428 189 c 0
 1471 117 1500 104 1553 104 c 0
 1623 104 1698 174 1737 441 c 0
 1744 489 1787 526 1836 526 c 0
 1893 526 1936 479 1936 426 c 0
 1936 391 1928 353 1928 326 c 0
 1928 148 2015 105 2051 105 c 0
 2105 105 2176 185 2176 359 c 0
 2176 465 2148 571 2112 626 c 0
 2101 643 2096 661 2096 680 c 0
EndSplineSet
Substitution2: "'init' Initial Forms in Arabic lookup 6 subtable" uniFEB3
Substitution2: "'medi' Medial Forms in Arabic lookup 5 subtable" uniFEB4
Substitution2: "'fina' Terminal Forms in Arabic lookup 4 subtable" uniFEB2
Colour: ffff
EndChar

StartChar: uni066F
Encoding: 1647 1647 84
Width: 1441
VWidth: 2370
Flags: HMW
AnchorPoint: "Anchor-1" 720 -526 basechar 0
AnchorPoint: "Anchor-3" 997 823 basechar 0
LayerCount: 2
Fore
SplineSet
1188 150 m 1
 1178 384 1108 543 1008 543 c 0
 928 543 833 427 833 293 c 0
 833 186 906 121 1046 121 c 0
 1102 121 1145 132 1188 150 c 1
1008 743 m 0
 1356 743 1391 294 1391 83 c 0
 1391 62 1388 40 1386 20 c 0
 1355 -343 1076 -586 705 -586 c 0
 387 -586 50 -385 50 -28 c 0
 50 195 149 386 274 507 c 0
 293 526 319 535 344 535 c 0
 398 535 444 490 444 435 c 0
 444 409 434 382 414 363 c 0
 325 276 250 135 250 -28 c 0
 250 -233 453 -386 705 -386 c 0
 947 -386 1111 -262 1168 -66 c 1
 1131 -74 1090 -79 1046 -79 c 0
 836 -79 633 50 633 293 c 0
 633 485 760 743 1008 743 c 0
EndSplineSet
Substitution2: "'fina' Terminal Forms in Arabic lookup 4 subtable" uniE005
Colour: ffff
EndChar

StartChar: uni06BA
Encoding: 1722 1722 85
Width: 1453
VWidth: 2370
Flags: HMW
AnchorPoint: "Anchor-3" 735 443 basechar 0
AnchorPoint: "Anchor-1" 735 -526 basechar 0
LayerCount: 2
Fore
SplineSet
1081 456 m 0
 1081 506 1121 557 1180 557 c 0
 1215 557 1250 538 1268 506 c 0
 1357 349 1403 170 1403 -1 c 0
 1403 -403 1047 -581 732 -581 c 0
 305 -581 50 -341 50 -37 c 0
 50 176 124 340 248 525 c 0
 267 553 300 569 332 569 c 0
 390 569 431 519 431 468 c 0
 431 449 425 430 414 413 c 0
 298 240 250 128 250 -37 c 0
 250 -209 379 -381 732 -381 c 0
 991 -381 1203 -251 1203 -1 c 0
 1203 134 1165 283 1094 408 c 0
 1085 423 1081 439 1081 456 c 0
EndSplineSet
Colour: ffff
EndChar

StartChar: uni06A1
Encoding: 1697 1697 86
Width: 1699
VWidth: 2370
Flags: HMW
AnchorPoint: "Anchor-1" 801 0 basechar 0
AnchorPoint: "Anchor-3" 1288 1201 basechar 0
LayerCount: 2
Fore
SplineSet
1445 551 m 1
 1425 776 1336 936 1231 936 c 0
 1152 936 1071 832 1071 687 c 0
 1071 572 1130 517 1263 517 c 0
 1330 517 1390 530 1445 551 c 1
202 651 m 0
 259 651 301 602 301 550 c 0
 301 530 295 510 283 493 c 0
 262 463 250 427 250 386 c 0
 250 199 482 145 806 145 c 0
 1078 145 1336 201 1416 334 c 1
 1368 323 1317 317 1263 317 c 0
 1048 317 871 454 871 687 c 0
 871 874 978 1136 1231 1136 c 0
 1580 1136 1649 688 1649 467 c 0
 1649 3 1132 -55 806 -55 c 0
 530 -55 50 -27 50 386 c 0
 50 465 73 543 120 609 c 0
 139 636 170 651 202 651 c 0
EndSplineSet
Substitution2: "'medi' Medial Forms in Arabic lookup 5 subtable" uniE006
Substitution2: "'fina' Terminal Forms in Arabic lookup 4 subtable" uniE005
Colour: ffff
EndChar

StartChar: uni0644
Encoding: 1604 1604 87
Width: 1356
VWidth: 2370
Flags: HMW
AnchorPoint: "Anchor-3" 665 420 basechar 0
AnchorPoint: "Anchor-1" 698 -526 basechar 0
LayerCount: 2
Fore
SplineSet
1054 1361 m 2
 1054 1414 1097 1461 1154 1461 c 0
 1205 1461 1250 1421 1254 1369 c 0
 1280 1060 1306 530 1306 206 c 0
 1306 -197 1090 -527 655 -527 c 0
 359 -527 50 -347 50 25 c 0
 50 218 152 431 312 522 c 0
 327 531 343 535 360 535 c 0
 410 535 461 495 461 436 c 0
 461 401 442 366 410 348 c 0
 334 305 250 154 250 25 c 0
 250 -209 427 -327 655 -327 c 0
 958 -327 1106 -129 1106 206 c 0
 1106 520 1080 1052 1054 1353 c 1
 1054 1361 l 2
EndSplineSet
Substitution2: "'init' Initial Forms in Arabic lookup 6 subtable" uniFEDF
Substitution2: "'medi' Medial Forms in Arabic lookup 5 subtable" uniFEE0
Substitution2: "'fina' Terminal Forms in Arabic lookup 4 subtable" uniFEDE
Colour: ffff
EndChar

StartChar: uni0645
Encoding: 1605 1605 88
Width: 1201
VWidth: 2370
Flags: HMW
AnchorPoint: "Anchor-3" 737 753 basechar 0
AnchorPoint: "Anchor-1" 654 -170 basechar 0
LayerCount: 2
Fore
SplineSet
529 171 m 1
 598 160 685 145 747 145 c 0
 891 145 951 194 951 297 c 0
 951 448 879 535 768 535 c 0
 617 535 528 414 528 207 c 0
 528 195 528 183 529 171 c 1
50 -171 m 1
 50 -144 l 2
 50 70 177 176 328 186 c 1
 328 193 328 200 328 207 c 0
 328 466 465 735 768 735 c 0
 1023 735 1151 512 1151 297 c 0
 1151 50 945 -55 747 -55 c 0
 644 -55 537 -29 440 -18 c 0
 416 -18 387 -13 363 -13 c 0
 360 -13 357 -13 354 -13 c 0
 276 -13 250 -15 250 -144 c 2
 250 -167 l 1
 280 -900 l 2
 282 -955 237 -1004 180 -1004 c 0
 127 -1004 82 -961 80 -908 c 2
 50 -171 l 1
EndSplineSet
Substitution2: "'init' Initial Forms in Arabic lookup 6 subtable" uniFEE3
Substitution2: "'medi' Medial Forms in Arabic lookup 5 subtable" uniFEE4
Substitution2: "'fina' Terminal Forms in Arabic lookup 4 subtable" uniFEE2
Colour: ffff
EndChar

StartChar: uni0635
Encoding: 1589 1589 89
Width: 2493
VWidth: 2315
Flags: HMW
AnchorPoint: "Anchor-1" 720 -526 basechar 0
AnchorPoint: "Anchor-3" 1997 811 basechar 0
LayerCount: 2
Fore
SplineSet
1573 147 m 1
 1627 129 1693 119 1775 119 c 0
 2011 119 2243 235 2243 372 c 0
 2243 450 2178 514 2071 514 c 0
 1877 514 1709 373 1590 169 c 0
 1586 161 1580 154 1573 147 c 1
1130 304 m 0
 1130 356 1171 405 1228 405 c 0
 1260 405 1291 390 1310 362 c 0
 1341 317 1374 278 1408 246 c 1
 1410 254 1414 263 1418 270 c 0
 1553 502 1772 714 2071 714 c 0
 2260 714 2443 582 2443 372 c 0
 2443 25 2013 -81 1775 -81 c 0
 1623 -81 1498 -50 1397 7 c 1
 1373 -365 1046 -587 689 -587 c 0
 400 -587 50 -430 50 -68 c 0
 50 294 419 470 620 552 c 0
 632 557 644 559 656 559 c 0
 706 559 757 520 757 460 c 0
 757 420 734 382 695 366 c 0
 486 282 250 136 250 -68 c 0
 250 -266 444 -387 689 -387 c 0
 982 -387 1198 -211 1198 50 c 0
 1198 120 1178 193 1142 255 c 0
 1134 268 1130 285 1130 304 c 0
EndSplineSet
Substitution2: "'init' Initial Forms in Arabic lookup 6 subtable" uniFEBB
Substitution2: "'medi' Medial Forms in Arabic lookup 5 subtable" uniFEBC
Substitution2: "'fina' Terminal Forms in Arabic lookup 4 subtable" uniFEBA
Colour: ffff
EndChar

StartChar: uni0648
Encoding: 1608 1608 90
Width: 857
VWidth: 2370
Flags: HMW
AnchorPoint: "Anchor-1" 458 -408 basechar 0
AnchorPoint: "Anchor-3" 504 811 basechar 0
LayerCount: 2
Fore
SplineSet
121 -557 m 0
 70 -557 20 -516 20 -457 c 0
 20 -409 55 -366 103 -358 c 0
 344 -317 497 -218 562 -45 c 1
 525 -51 489 -54 454 -54 c 0
 266 -54 83 55 83 290 c 0
 83 512 205 776 438 776 c 0
 766 776 797 353 797 169 c 0
 797 -278 507 -493 137 -556 c 0
 132 -557 126 -557 121 -557 c 0
597 168 m 1
 597 397 530 576 438 576 c 0
 389 576 283 474 283 290 c 0
 283 185 334 146 454 146 c 0
 497 146 546 153 597 168 c 1
EndSplineSet
PairPos2: "'kern' Horizontal Kerning in Arabic lookup 2 per glyph data 4" uni063A dx=178 dy=0 dh=178 dv=0 dx=0 dy=0 dh=0 dv=0
PairPos2: "'kern' Horizontal Kerning in Arabic lookup 2 per glyph data 4" uni0639 dx=178 dy=0 dh=178 dv=0 dx=0 dy=0 dh=0 dv=0
PairPos2: "'kern' Horizontal Kerning in Arabic lookup 2 per glyph data 4" uni0625 dx=223 dy=0 dh=223 dv=0 dx=0 dy=0 dh=0 dv=0
PairPos2: "'kern' Horizontal Kerning in Arabic lookup 2 per glyph data 4" uni06CC dx=89 dy=0 dh=89 dv=0 dx=0 dy=0 dh=0 dv=0
PairPos2: "'kern' Horizontal Kerning in Arabic lookup 2 per glyph data 4" uni0626 dx=89 dy=0 dh=89 dv=0 dx=0 dy=0 dh=0 dv=0
PairPos2: "'kern' Horizontal Kerning in Arabic lookup 2 per glyph data 4" uni064A dx=89 dy=0 dh=89 dv=0 dx=0 dy=0 dh=0 dv=0
PairPos2: "'kern' Horizontal Kerning in Arabic lookup 2 per glyph data 4" uni0649 dx=89 dy=0 dh=89 dv=0 dx=0 dy=0 dh=0 dv=0
Substitution2: "'fina' Terminal Forms in Arabic lookup 4 subtable" uniFEEE
PairPos2: "'kern' Horizontal Kerning in Arabic lookup 2 per glyph data 3" uni06A9 dx=-233 dy=0 dh=-233 dv=0 dx=0 dy=0 dh=0 dv=0
PairPos2: "'kern' Horizontal Kerning in Arabic lookup 2 per glyph data 3" uni06AF dx=-233 dy=0 dh=-233 dv=0 dx=0 dy=0 dh=0 dv=0
PairPos2: "'kern' Horizontal Kerning in Arabic lookup 2 per glyph data 3" uniFB90 dx=-233 dy=0 dh=-233 dv=0 dx=0 dy=0 dh=0 dv=0
PairPos2: "'kern' Horizontal Kerning in Arabic lookup 2 per glyph data 3" uniFB94 dx=-233 dy=0 dh=-233 dv=0 dx=0 dy=0 dh=0 dv=0
PairPos2: "'kern' Horizontal Kerning in Arabic lookup 2 per glyph data 3" uniFEDB dx=-233 dy=0 dh=-233 dv=0 dx=0 dy=0 dh=0 dv=0
Colour: ffff
EndChar

StartChar: uni0637
Encoding: 1591 1591 91
Width: 1491
VWidth: 2370
Flags: HMW
AnchorPoint: "Anchor-3" 1125 811 basechar 0
AnchorPoint: "Anchor-1" 387 0 basechar 0
LayerCount: 2
Fore
SplineSet
309 1360 m 0
 309 1413 352 1461 409 1461 c 0
 461 1461 506 1419 509 1367 c 0
 520 1207 536 954 536 681 c 0
 536 625 536 569 534 512 c 1
 664 677 846 823 1067 823 c 0
 1264 823 1441 680 1441 469 c 0
 1441 106 983 -52 713 -52 c 0
 634 -52 557 -48 481 -40 c 1
 479 -48 478 -57 476 -65 c 0
 467 -112 423 -145 377 -145 c 0
 316 -145 278 -93 278 -44 c 0
 278 -31 281 -20 283 -9 c 1
 230 2 177 15 124 29 c 0
 80 41 50 82 50 126 c 0
 50 186 101 225 151 225 c 0
 159 225 168 223 176 221 c 0
 221 209 267 198 312 189 c 1
 329 345 336 518 336 680 c 0
 336 945 320 1194 309 1354 c 0
 309 1356 309 1358 309 1360 c 0
549 155 m 1
 603 151 657 148 713 148 c 0
 959 148 1241 306 1241 469 c 0
 1241 556 1172 623 1067 623 c 0
 872 623 663 402 549 155 c 1
EndSplineSet
Substitution2: "'init' Initial Forms in Arabic lookup 6 subtable" uniFEC3
Substitution2: "'medi' Medial Forms in Arabic lookup 5 subtable" uniFEC4
Substitution2: "'fina' Terminal Forms in Arabic lookup 4 subtable" uniFEC2
Colour: ffff
EndChar

StartChar: uni06A9
Encoding: 1705 1705 92
Width: 1932
VWidth: 2370
Flags: HMW
AnchorPoint: "Anchor-3" 1331 1342 basechar 0
AnchorPoint: "Anchor-1" 752 0 basechar 0
LayerCount: 2
Fore
SplineSet
1781 1502 m 0
 1831 1502 1882 1462 1882 1403 c 0
 1882 1368 1863 1333 1830 1315 c 2
 1135 929 l 1
 1282 775 1429 566 1429 345 c 0
 1429 31 1060 -55 760 -55 c 0
 496 -55 50 -13 50 405 c 0
 50 454 57 506 71 560 c 0
 82 605 124 636 169 636 c 0
 229 636 268 585 268 535 c 0
 268 527 267 520 265 512 c 0
 255 470 250 434 250 405 c 0
 250 197 464 145 760 145 c 0
 1076 145 1229 245 1229 345 c 0
 1229 506 1063 736 902 876 c 0
 884 892 868 920 868 950 c 0
 868 985 887 1020 920 1038 c 2
 1734 1489 l 2
 1749 1497 1765 1502 1781 1502 c 0
EndSplineSet
Substitution2: "'init' Initial Forms in Arabic lookup 6 subtable" uniFB90
Substitution2: "'medi' Medial Forms in Arabic lookup 5 subtable" uniFB91
Substitution2: "'fina' Terminal Forms in Arabic lookup 4 subtable" uniFB8F
Colour: ffff
EndChar

StartChar: uni062F
Encoding: 1583 1583 93
Width: 880
VWidth: 2370
Flags: HMW
AnchorPoint: "Anchor-3" 483 1006 basechar 0
AnchorPoint: "Anchor-1" 367 0 basechar 0
LayerCount: 2
Fore
SplineSet
265 788 m 0
 265 848 316 887 366 887 c 0
 379 887 392 885 405 879 c 0
 584 801 830 573 830 299 c 0
 830 58 607 -55 387 -55 c 0
 303 -55 211 -42 118 -10 c 0
 77 4 50 44 50 86 c 0
 50 146 101 185 151 185 c 0
 161 185 172 183 182 180 c 0
 254 156 325 145 387 145 c 0
 561 145 630 216 630 299 c 0
 630 451 454 639 325 695 c 0
 288 711 265 749 265 788 c 0
EndSplineSet
Substitution2: "'fina' Terminal Forms in Arabic lookup 4 subtable" uniFEAA
PairPos2: "'kern' Horizontal Kerning in Arabic lookup 2 per glyph data 3" uni06A9 dx=-267 dy=0 dh=-267 dv=0 dx=0 dy=0 dh=0 dv=0
PairPos2: "'kern' Horizontal Kerning in Arabic lookup 2 per glyph data 3" uni06AF dx=-267 dy=0 dh=-267 dv=0 dx=0 dy=0 dh=0 dv=0
PairPos2: "'kern' Horizontal Kerning in Arabic lookup 2 per glyph data 3" uniFB90 dx=-267 dy=0 dh=-267 dv=0 dx=0 dy=0 dh=0 dv=0
PairPos2: "'kern' Horizontal Kerning in Arabic lookup 2 per glyph data 3" uniFB94 dx=-267 dy=0 dh=-267 dv=0 dx=0 dy=0 dh=0 dv=0
PairPos2: "'kern' Horizontal Kerning in Arabic lookup 2 per glyph data 3" uniFEDB dx=-267 dy=0 dh=-267 dv=0 dx=0 dy=0 dh=0 dv=0
PairPos2: "'kern' Horizontal Kerning in Arabic lookup 2 per glyph data 1" uni0639 dx=-334 dy=0 dh=-334 dv=0 dx=0 dy=0 dh=0 dv=0
PairPos2: "'kern' Horizontal Kerning in Arabic lookup 2 per glyph data 1" uni063A dx=-334 dy=0 dh=-334 dv=0 dx=0 dy=0 dh=0 dv=0
Colour: ffff
EndChar

StartChar: uni062D
Encoding: 1581 1581 94
Width: 1232
VWidth: 2370
Flags: HMW
AnchorPoint: "Anchor-3" 434 811 basechar 0
AnchorPoint: "Anchor-1" 699 -744 basechar 0
LayerCount: 2
Fore
SplineSet
1077 -426 m 0
 1127 -426 1178 -466 1178 -525 c 0
 1178 -561 1159 -596 1125 -614 c 0
 989 -686 836 -723 683 -723 c 0
 402 -723 50 -587 50 -231 c 0
 50 195 503 422 781 525 c 1
 642 598 507 665 423 665 c 0
 365 665 314 649 266 510 c 0
 252 469 211 443 170 443 c 0
 110 443 71 494 71 544 c 0
 71 555 73 565 77 576 c 0
 144 767 272 865 423 865 c 0
 686 865 963 631 1101 604 c 0
 1144 596 1182 559 1182 507 c 0
 1182 457 1144 413 1093 407 c 0
 967 393 250 161 250 -231 c 0
 250 -413 434 -523 683 -523 c 0
 804 -523 925 -494 1031 -438 c 0
 1046 -430 1061 -426 1077 -426 c 0
EndSplineSet
Substitution2: "'init' Initial Forms in Arabic lookup 6 subtable" uniFEA3
Substitution2: "'medi' Medial Forms in Arabic lookup 5 subtable" uniFEA4
Substitution2: "'fina' Terminal Forms in Arabic lookup 4 subtable" uniFEA2
Colour: ffff
EndChar

StartChar: uni0639
Encoding: 1593 1593 95
Width: 1277
VWidth: 2370
Flags: HMW
AnchorPoint: "Anchor-3" 600 1249 basechar 0
AnchorPoint: "Anchor-1" 668 -744 basechar 0
LayerCount: 2
Fore
SplineSet
830 632 m 2
 881 632 930 591 930 532 c 0
 930 481 890 436 838 432 c 0
 775 427 720 412 658 383 c 0
 439 282 250 47 250 -169 c 0
 250 -426 443 -542 697 -542 c 0
 830 -542 969 -506 1075 -441 c 0
 1091 -431 1108 -426 1126 -426 c 0
 1177 -426 1227 -466 1227 -525 c 0
 1227 -559 1209 -592 1179 -611 c 0
 1037 -698 864 -742 697 -742 c 0
 385 -742 50 -570 50 -169 c 0
 50 69 190 286 367 433 c 1
 222 485 109 613 109 790 c 0
 109 1038 320 1240 554 1240 c 0
 652 1240 752 1205 828 1135 c 0
 849 1116 860 1089 860 1062 c 0
 860 1007 814 962 760 962 c 0
 736 962 711 971 692 989 c 0
 658 1021 606 1040 554 1040 c 0
 432 1040 309 924 309 790 c 0
 309 677 393 604 540 604 c 0
 640 604 727 625 823 632 c 1
 830 632 l 2
EndSplineSet
Substitution2: "'init' Initial Forms in Arabic lookup 6 subtable" uniFECB
Substitution2: "'medi' Medial Forms in Arabic lookup 5 subtable" uniFECC
Substitution2: "'fina' Terminal Forms in Arabic lookup 4 subtable" uniFECA
Colour: ffff
EndChar

StartChar: uni0622
Encoding: 1570 1570 97
Width: 460
VWidth: 1823
Flags: HMW
AnchorPoint: "Anchor-1" 202 0 basechar 0
AnchorPoint: "Anchor-3" 339 1953 basechar 0
LayerCount: 2
Fore
SplineSet
-37 1697 m 0
 -37 1646 -78 1596 -137 1596 c 0
 -185 1596 -228 1632 -236 1680 c 0
 -239 1701 -241 1721 -241 1743 c 0
 -241 1964 -72 2119 130 2119 c 0
 260 2119 360 2071 437 2022 c 0
 500 1983 556 1955 628 1955 c 0
 671 1955 706 1981 711 2039 c 0
 716 2090 760 2130 811 2130 c 0
 868 2130 910 2083 910 2030 c 0
 910 2027 910 2024 910 2021 c 0
 896 1865 774 1755 628 1755 c 0
 500 1755 403 1807 331 1852 c 0
 265 1893 210 1919 130 1919 c 0
 32 1919 -41 1855 -41 1743 c 0
 -41 1726 -37 1713 -37 1697 c 0
EndSplineSet
Refer: 80 1575 N 1 0 0 1 78 0 2
Substitution2: "Single Substitution 1 subtable" uniE00A
PairPos2: "'kern' Horizontal Kerning in Arabic lookup 2 per glyph data 0" uni063A dx=-267 dy=0 dh=-267 dv=0 dx=0 dy=0 dh=0 dv=0
PairPos2: "'kern' Horizontal Kerning in Arabic lookup 2 per glyph data 0" uni0639 dx=-267 dy=0 dh=-267 dv=0 dx=0 dy=0 dh=0 dv=0
Ligature2: "'liga' Standard Ligatures in Arabic lookup 10 subtable" uni0627 uni0653
Substitution2: "'fina' Terminal Forms in Arabic lookup 4 subtable" uniFE82
PairPos2: "'kern' Horizontal Kerning in Arabic lookup 2 per glyph data 1" uni0639 dx=-200 dy=0 dh=-200 dv=0 dx=0 dy=0 dh=0 dv=0
PairPos2: "'kern' Horizontal Kerning in Arabic lookup 2 per glyph data 1" uni063A dx=-200 dy=0 dh=-200 dv=0 dx=0 dy=0 dh=0 dv=0
LCarets2: 1 0
Colour: ffff
EndChar

StartChar: uni0647
Encoding: 1607 1607 113
Width: 795
VWidth: 2370
Flags: HMW
AnchorPoint: "Anchor-1" 223 89 basechar 0
AnchorPoint: "Anchor-3" 366 1006 basechar 0
LayerCount: 2
Fore
SplineSet
392 623 m 1
 293 512 250 384 250 292 c 0
 250 204 287 145 389 145 c 0
 497 145 545 209 545 307 c 0
 545 379 498 495 392 623 c 1
252 767 m 1
 224 791 195 821 195 863 c 0
 195 919 242 963 295 963 c 0
 318 963 341 955 360 939 c 0
 399 905 436 870 470 835 c 0
 637 663 745 479 745 307 c 0
 745 123 617 -55 389 -55 c 0
 159 -55 50 128 50 292 c 0
 50 444 116 620 252 767 c 1
EndSplineSet
Substitution2: "'init' Initial Forms in Arabic lookup 6 subtable" uniFEEB
Substitution2: "'medi' Medial Forms in Arabic lookup 5 subtable" uniFEEC
Substitution2: "'fina' Terminal Forms in Arabic lookup 4 subtable" uniFEEA
Colour: ffff
EndChar

StartChar: uniFEB3
Encoding: 65203 65203 114
Width: 1544
VWidth: 2370
Flags: HMW
AnchorPoint: "Anchor-1" 844 0 basechar 0
AnchorPoint: "Anchor-3" 911 565 basechar 0
LayerCount: 2
Fore
SplineSet
1217 648 m 0
 1217 698 1257 749 1316 749 c 0
 1352 749 1388 729 1406 695 c 0
 1464 583 1494 447 1494 324 c 0
 1494 175 1434 -73 1192 -73 c 0
 1055 -73 965 21 914 115 c 1
 852 20 748 -55 612 -55 c 0
 496 -55 395 0 335 88 c 1
 256 0 141 -55 0 -55 c 0
 -54 -55 -100 -9 -100 45 c 0
 -100 99 -54 145 0 145 c 0
 131 145 199 207 246 321 c 0
 262 359 274 404 283 451 c 0
 286 482 290 513 295 547 c 0
 302 596 347 632 395 632 c 0
 458 632 494 575 494 530 c 0
 494 494 487 458 481 423 c 0
 477 380 474 341 474 295 c 0
 474 201 528 145 612 145 c 0
 703 145 771 220 797 354 c 0
 803 385 806 417 806 449 c 0
 806 482 802 501 802 527 c 0
 802 580 845 627 902 627 c 0
 956 627 995 586 1002 535 c 0
 1010 483 1020 423 1034 365 c 0
 1075 202 1137 127 1192 127 c 0
 1246 127 1294 187 1294 324 c 0
 1294 413 1268 527 1228 603 c 0
 1220 617 1217 633 1217 648 c 0
EndSplineSet
Colour: ffff
EndChar

StartChar: uniFEB4
Encoding: 65204 65204 115
Width: 1747
VWidth: 2370
Flags: HMW
AnchorPoint: "Anchor-3" 893 565 basechar 0
AnchorPoint: "Anchor-1" 891 0 basechar 0
LayerCount: 2
Fore
SplineSet
1280 597 m 0
 1280 644 1317 699 1379 699 c 0
 1425 699 1469 665 1478 618 c 0
 1530 355 1603 145 1747 145 c 0
 1801 145 1847 99 1847 45 c 0
 1847 -9 1801 -55 1747 -55 c 0
 1617 -55 1518 13 1454 99 c 1
 1409 5 1319 -70 1195 -70 c 0
 1064 -70 969 7 915 99 c 1
 855 10 756 -54 626 -54 c 0
 507 -54 417 14 365 100 c 1
 283 -5 156 -55 0 -55 c 0
 -54 -55 -100 -9 -100 45 c 0
 -100 99 -54 145 0 145 c 0
 214 145 276 245 276 532 c 0
 276 587 321 632 376 632 c 0
 431 632 476 587 476 532 c 0
 476 271 542 146 626 146 c 0
 759 146 809 290 822 525 c 0
 824 565 862 620 922 620 c 0
 975 620 1021 576 1022 522 c 0
 1026 284 1092 130 1195 130 c 0
 1253 130 1305 186 1305 364 c 0
 1305 407 1301 453 1294 498 c 2
 1281 584 l 2
 1280 588 1280 593 1280 597 c 0
EndSplineSet
Colour: ffff
EndChar

StartChar: uniFEB2
Encoding: 65202 65202 116
Width: 2551
VWidth: 2370
Flags: HMW
AnchorPoint: "Anchor-3" 1773 565 basechar 0
AnchorPoint: "Anchor-1" 749 -526 basechar 0
LayerCount: 2
Fore
SplineSet
2111 605 m 0
 2111 657 2154 705 2211 705 c 0
 2261 705 2301 664 2309 624 c 0
 2313 605 2316 584 2319 561 c 0
 2331 483 2345 409 2363 346 c 0
 2405 200 2455 145 2551 145 c 0
 2605 145 2651 99 2651 45 c 0
 2651 -9 2605 -55 2551 -55 c 0
 2434 -55 2338 -3 2275 75 c 1
 2233 -4 2152 -72 2039 -72 c 0
 1933 -72 1843 -16 1794 71 c 1
 1731 -6 1644 -55 1544 -55 c 0
 1478 -55 1413 -39 1358 -5 c 1
 1316 -347 1007 -549 672 -549 c 0
 390 -549 50 -396 50 -43 c 0
 50 278 245 451 445 600 c 0
 463 613 483 620 504 620 c 0
 556 620 604 577 604 520 c 0
 604 489 590 459 564 440 c 0
 368 295 250 184 250 -43 c 0
 250 -232 436 -349 672 -349 c 0
 954 -349 1162 -178 1162 71 c 0
 1162 154 1150 263 1111 429 c 0
 1109 436 1108 444 1108 451 c 0
 1108 500 1146 552 1207 552 c 0
 1252 552 1294 521 1305 476 c 0
 1374 200 1449 145 1544 145 c 0
 1607 145 1702 220 1738 479 c 0
 1744 519 1783 565 1837 565 c 0
 1892 565 1937 519 1937 465 c 0
 1937 428 1933 390 1933 360 c 0
 1933 170 1984 128 2039 128 c 0
 2085 128 2124 177 2131 325 c 0
 2132 338 2132 350 2132 363 c 0
 2132 419 2121 528 2112 590 c 0
 2111 595 2111 600 2111 605 c 0
EndSplineSet
Colour: ffff
EndChar

StartChar: uniFE8E
Encoding: 65166 65166 134
Width: 600
VWidth: 2370
Flags: HMW
AnchorPoint: "Anchor-3" 308 1459 basechar 0
AnchorPoint: "Anchor-1" 356 0 basechar 0
LayerCount: 2
Fore
SplineSet
214 1461 m 0
 268 1461 314 1415 314 1361 c 0
 314 1079 300 838 300 648 c 0
 300 256 338 145 598 145 c 2
 600 145 l 2
 654 145 700 99 700 45 c 0
 700 -9 654 -55 600 -55 c 2
 598 -55 l 2
 174 -55 100 258 100 648 c 0
 100 847 114 1085 114 1361 c 0
 114 1415 160 1461 214 1461 c 0
EndSplineSet
PairPos2: "'kern' Horizontal Kerning in Arabic lookup 2 per glyph data 1" uni0639 dx=-200 dy=0 dh=-200 dv=0 dx=0 dy=0 dh=0 dv=0
PairPos2: "'kern' Horizontal Kerning in Arabic lookup 2 per glyph data 1" uni063A dx=-200 dy=0 dh=-200 dv=0 dx=0 dy=0 dh=0 dv=0
Colour: ffff
EndChar

StartChar: uniFEA2
Encoding: 65186 65186 142
Width: 1332
VWidth: 1255
Flags: HMW
AnchorPoint: "Anchor-3" 449 811 basechar 0
AnchorPoint: "Anchor-1" 714 -744 basechar 0
LayerCount: 2
Fore
SplineSet
1432 45 m 0
 1432 -9 1386 -55 1332 -55 c 0
 1027 -55 792 170 792 458 c 0
 792 513 837 558 892 558 c 0
 947 558 992 512 992 458 c 0
 992 286 1127 145 1332 145 c 0
 1386 145 1432 99 1432 45 c 0
EndSplineSet
Refer: 94 1581 N 1 0 0 1 0 0 2
Colour: ffff
EndChar

StartChar: uniFEA3
Encoding: 65187 65187 143
Width: 1223
VWidth: 2370
Flags: HMW
AnchorPoint: "Anchor-1" 590 0 basechar 0
AnchorPoint: "Anchor-3" 405 811 basechar 0
LayerCount: 2
Fore
SplineSet
130 432 m 0
 70 432 31 483 31 533 c 0
 31 541 32 549 34 557 c 0
 85 754 239 867 396 867 c 0
 644 867 943 606 1154 536 c 0
 1196 522 1223 482 1223 440 c 0
 1223 386 1180 350 1141 343 c 0
 885 297 583 -55 1 -55 c 0
 -54 -55 -100 -10 -100 45 c 0
 -100 100 -54 145 0 145 c 2
 1 145 l 2
 384 145 604 324 859 452 c 1
 666 556 475 667 396 667 c 0
 337 667 259 626 228 507 c 0
 216 462 174 432 130 432 c 0
EndSplineSet
Colour: ffff
EndChar

StartChar: uniFEA4
Encoding: 65188 65188 144
Width: 1335
VWidth: 1373
Flags: HMW
AnchorPoint: "Anchor-3" 396 811 basechar 0
AnchorPoint: "Anchor-1" 510 0 basechar 0
LayerCount: 2
Fore
SplineSet
937 477 m 0
 991 477 1037 431 1037 377 c 0
 1037 238 1138 145 1335 145 c 0
 1389 145 1435 99 1435 45 c 0
 1435 -9 1389 -55 1335 -55 c 0
 1070 -55 837 100 837 377 c 0
 837 431 883 477 937 477 c 0
EndSplineSet
Refer: 143 65187 N 1 0 0 1 0 0 2
Colour: ffff
EndChar

StartChar: uniFEAA
Encoding: 65194 65194 148
Width: 1114
VWidth: 1437
Flags: HMW
AnchorPoint: "Anchor-1" 435 -144 basechar 0
AnchorPoint: "Anchor-3" 561 1047 basechar 0
LayerCount: 2
Fore
SplineSet
459 840 m 0
 459 890 498 941 558 941 c 0
 595 941 632 921 649 886 c 0
 719 746 779 602 830 453 c 0
 897 261 947 145 1114 145 c 0
 1168 145 1214 99 1214 45 c 0
 1214 -9 1168 -55 1114 -55 c 0
 946.006891838 -55 839.94829504 21.0498186057 767.994165888 119.035481921 c 1
 677.188270655 0.0863235298706 516.348265328 -55 363 -55 c 0
 275 -55 186 -42 99 -9 c 0
 59 6 34 46 34 86 c 0
 34 146 85 185 135 185 c 0
 147 185 159 183 170 179 c 0
 231 156 295 145 363 145 c 0
 542 145 642 222 642 350 c 0
 642 366.494182648 640.258828408 381.682486601 636.776486011 396.426488114 c 0
 589.49715033 534.064277805 534.528037225 666.943923791 470 796 c 0
 463 810 459 825 459 840 c 0
EndSplineSet
PairPos2: "'kern' Horizontal Kerning in Arabic lookup 2 per glyph data 3" uni06A9 dx=-267 dy=0 dh=-267 dv=0 dx=0 dy=0 dh=0 dv=0
PairPos2: "'kern' Horizontal Kerning in Arabic lookup 2 per glyph data 3" uni06AF dx=-267 dy=0 dh=-267 dv=0 dx=0 dy=0 dh=0 dv=0
PairPos2: "'kern' Horizontal Kerning in Arabic lookup 2 per glyph data 3" uniFB90 dx=-267 dy=0 dh=-267 dv=0 dx=0 dy=0 dh=0 dv=0
PairPos2: "'kern' Horizontal Kerning in Arabic lookup 2 per glyph data 3" uniFB94 dx=-267 dy=0 dh=-267 dv=0 dx=0 dy=0 dh=0 dv=0
PairPos2: "'kern' Horizontal Kerning in Arabic lookup 2 per glyph data 3" uniFEDB dx=-267 dy=0 dh=-267 dv=0 dx=0 dy=0 dh=0 dv=0
PairPos2: "'kern' Horizontal Kerning in Arabic lookup 2 per glyph data 1" uni0639 dx=-334 dy=0 dh=-334 dv=0 dx=0 dy=0 dh=0 dv=0
PairPos2: "'kern' Horizontal Kerning in Arabic lookup 2 per glyph data 1" uni063A dx=-334 dy=0 dh=-334 dv=0 dx=0 dy=0 dh=0 dv=0
Colour: ffff
EndChar

StartChar: uniFEAE
Encoding: 65198 65198 150
Width: 1027
VWidth: 2370
Flags: HMW
AnchorPoint: "Anchor-1" 505 -394 basechar 0
AnchorPoint: "Anchor-3" 755 624 basechar 0
LayerCount: 2
Fore
SplineSet
492 483 m 0
 492 533 531 584 591 584 c 0
 634 584 673 555 686 517 c 0
 713 442 738 361 770 302 c 0
 824 201 884 145 1027 145 c 0
 1081 145 1127 99 1127 45 c 0
 1127 -9 1081 -55 1027 -55 c 0
 915 -55 820 -25 745 28 c 1
 713 -268 533 -474 208 -554 c 0
 200 -556 193 -557 185 -557 c 0
 134 -557 84 -518 84 -458 c 0
 84 -413 115 -371 160 -360 c 0
 448 -289 551 -138 551 137 c 0
 551 253 528 358 497 453 c 0
 494 463 492 473 492 483 c 0
EndSplineSet
PairPos2: "'kern' Horizontal Kerning in Arabic lookup 2 per glyph data 2" uniFBFE dx=-134 dy=0 dh=-134 dv=0 dx=0 dy=0 dh=0 dv=0
PairPos2: "'kern' Horizontal Kerning in Arabic lookup 2 per glyph data 2" uniFEF3 dx=-134 dy=0 dh=-134 dv=0 dx=0 dy=0 dh=0 dv=0
PairPos2: "'kern' Horizontal Kerning in Arabic lookup 2 per glyph data 2" uniFB58 dx=-134 dy=0 dh=-134 dv=0 dx=0 dy=0 dh=0 dv=0
PairPos2: "'kern' Horizontal Kerning in Arabic lookup 2 per glyph data 3" uni06A9 dx=-267 dy=0 dh=-267 dv=0 dx=0 dy=0 dh=0 dv=0
PairPos2: "'kern' Horizontal Kerning in Arabic lookup 2 per glyph data 3" uni06AF dx=-267 dy=0 dh=-267 dv=0 dx=0 dy=0 dh=0 dv=0
PairPos2: "'kern' Horizontal Kerning in Arabic lookup 2 per glyph data 3" uniFB90 dx=-267 dy=0 dh=-267 dv=0 dx=0 dy=0 dh=0 dv=0
PairPos2: "'kern' Horizontal Kerning in Arabic lookup 2 per glyph data 3" uniFB94 dx=-267 dy=0 dh=-267 dv=0 dx=0 dy=0 dh=0 dv=0
PairPos2: "'kern' Horizontal Kerning in Arabic lookup 2 per glyph data 3" uniFEDB dx=-267 dy=0 dh=-267 dv=0 dx=0 dy=0 dh=0 dv=0
PairPos2: "'kern' Horizontal Kerning in Arabic lookup 2 per glyph data 2" uni0622 dx=-267 dy=0 dh=-267 dv=0 dx=0 dy=0 dh=0 dv=0
PairPos2: "'kern' Horizontal Kerning in Arabic lookup 2 per glyph data 2" uni0623 dx=-267 dy=0 dh=-267 dv=0 dx=0 dy=0 dh=0 dv=0
PairPos2: "'kern' Horizontal Kerning in Arabic lookup 2 per glyph data 2" uni0624 dx=-233 dy=0 dh=-233 dv=0 dx=0 dy=0 dh=0 dv=0
PairPos2: "'kern' Horizontal Kerning in Arabic lookup 2 per glyph data 2" uni0627 dx=-267 dy=0 dh=-267 dv=0 dx=0 dy=0 dh=0 dv=0
PairPos2: "'kern' Horizontal Kerning in Arabic lookup 2 per glyph data 2" uni0628 dx=-334 dy=0 dh=-334 dv=0 dx=0 dy=0 dh=0 dv=0
PairPos2: "'kern' Horizontal Kerning in Arabic lookup 2 per glyph data 2" uni0629 dx=-334 dy=0 dh=-334 dv=0 dx=0 dy=0 dh=0 dv=0
PairPos2: "'kern' Horizontal Kerning in Arabic lookup 2 per glyph data 2" uni062A dx=-334 dy=0 dh=-334 dv=0 dx=0 dy=0 dh=0 dv=0
PairPos2: "'kern' Horizontal Kerning in Arabic lookup 2 per glyph data 2" uni062B dx=-334 dy=0 dh=-334 dv=0 dx=0 dy=0 dh=0 dv=0
PairPos2: "'kern' Horizontal Kerning in Arabic lookup 2 per glyph data 2" uni062C dx=-111 dy=0 dh=-111 dv=0 dx=0 dy=0 dh=0 dv=0
PairPos2: "'kern' Horizontal Kerning in Arabic lookup 2 per glyph data 2" uni062D dx=-111 dy=0 dh=-111 dv=0 dx=0 dy=0 dh=0 dv=0
PairPos2: "'kern' Horizontal Kerning in Arabic lookup 2 per glyph data 2" uni062E dx=-111 dy=0 dh=-111 dv=0 dx=0 dy=0 dh=0 dv=0
PairPos2: "'kern' Horizontal Kerning in Arabic lookup 2 per glyph data 2" uni062F dx=-334 dy=0 dh=-334 dv=0 dx=0 dy=0 dh=0 dv=0
PairPos2: "'kern' Horizontal Kerning in Arabic lookup 2 per glyph data 2" uni0630 dx=-334 dy=0 dh=-334 dv=0 dx=0 dy=0 dh=0 dv=0
PairPos2: "'kern' Horizontal Kerning in Arabic lookup 2 per glyph data 2" uni0631 dx=-233 dy=0 dh=-233 dv=0 dx=0 dy=0 dh=0 dv=0
PairPos2: "'kern' Horizontal Kerning in Arabic lookup 2 per glyph data 2" uni0632 dx=-233 dy=0 dh=-233 dv=0 dx=0 dy=0 dh=0 dv=0
PairPos2: "'kern' Horizontal Kerning in Arabic lookup 2 per glyph data 2" uni0633 dx=-334 dy=0 dh=-334 dv=0 dx=0 dy=0 dh=0 dv=0
PairPos2: "'kern' Horizontal Kerning in Arabic lookup 2 per glyph data 2" uni0634 dx=-334 dy=0 dh=-334 dv=0 dx=0 dy=0 dh=0 dv=0
PairPos2: "'kern' Horizontal Kerning in Arabic lookup 2 per glyph data 2" uni0635 dx=-334 dy=0 dh=-334 dv=0 dx=0 dy=0 dh=0 dv=0
PairPos2: "'kern' Horizontal Kerning in Arabic lookup 2 per glyph data 2" uni0636 dx=-334 dy=0 dh=-334 dv=0 dx=0 dy=0 dh=0 dv=0
PairPos2: "'kern' Horizontal Kerning in Arabic lookup 2 per glyph data 2" uni0637 dx=-334 dy=0 dh=-334 dv=0 dx=0 dy=0 dh=0 dv=0
PairPos2: "'kern' Horizontal Kerning in Arabic lookup 2 per glyph data 2" uni0638 dx=-334 dy=0 dh=-334 dv=0 dx=0 dy=0 dh=0 dv=0
PairPos2: "'kern' Horizontal Kerning in Arabic lookup 2 per glyph data 2" uni0641 dx=-334 dy=0 dh=-334 dv=0 dx=0 dy=0 dh=0 dv=0
PairPos2: "'kern' Horizontal Kerning in Arabic lookup 2 per glyph data 2" uni0642 dx=-134 dy=0 dh=-134 dv=0 dx=0 dy=0 dh=0 dv=0
PairPos2: "'kern' Horizontal Kerning in Arabic lookup 2 per glyph data 2" uni0643 dx=-334 dy=0 dh=-334 dv=0 dx=0 dy=0 dh=0 dv=0
PairPos2: "'kern' Horizontal Kerning in Arabic lookup 2 per glyph data 2" uni0644 dx=-100 dy=0 dh=-100 dv=0 dx=0 dy=0 dh=0 dv=0
PairPos2: "'kern' Horizontal Kerning in Arabic lookup 2 per glyph data 2" uni0645 dx=-334 dy=0 dh=-334 dv=0 dx=0 dy=0 dh=0 dv=0
PairPos2: "'kern' Horizontal Kerning in Arabic lookup 2 per glyph data 2" uni0646 dx=-134 dy=0 dh=-134 dv=0 dx=0 dy=0 dh=0 dv=0
PairPos2: "'kern' Horizontal Kerning in Arabic lookup 2 per glyph data 2" uni0647 dx=-334 dy=0 dh=-334 dv=0 dx=0 dy=0 dh=0 dv=0
PairPos2: "'kern' Horizontal Kerning in Arabic lookup 2 per glyph data 2" uni0648 dx=-233 dy=0 dh=-233 dv=0 dx=0 dy=0 dh=0 dv=0
PairPos2: "'kern' Horizontal Kerning in Arabic lookup 2 per glyph data 2" uni067E dx=-334 dy=0 dh=-334 dv=0 dx=0 dy=0 dh=0 dv=0
PairPos2: "'kern' Horizontal Kerning in Arabic lookup 2 per glyph data 2" uni0686 dx=-111 dy=0 dh=-111 dv=0 dx=0 dy=0 dh=0 dv=0
PairPos2: "'kern' Horizontal Kerning in Arabic lookup 2 per glyph data 2" uni0698 dx=-233 dy=0 dh=-233 dv=0 dx=0 dy=0 dh=0 dv=0
PairPos2: "'kern' Horizontal Kerning in Arabic lookup 2 per glyph data 2" uni06A9 dx=-601 dy=0 dh=-601 dv=0 dx=0 dy=0 dh=0 dv=0
PairPos2: "'kern' Horizontal Kerning in Arabic lookup 2 per glyph data 2" uni06AF dx=-601 dy=0 dh=-601 dv=0 dx=0 dy=0 dh=0 dv=0
PairPos2: "'kern' Horizontal Kerning in Arabic lookup 2 per glyph data 2" uni06C0 dx=-334 dy=0 dh=-334 dv=0 dx=0 dy=0 dh=0 dv=0
PairPos2: "'kern' Horizontal Kerning in Arabic lookup 2 per glyph data 2" uni06CA dx=-233 dy=0 dh=-233 dv=0 dx=0 dy=0 dh=0 dv=0
PairPos2: "'kern' Horizontal Kerning in Arabic lookup 2 per glyph data 2" uniFB7C dx=-334 dy=0 dh=-334 dv=0 dx=0 dy=0 dh=0 dv=0
PairPos2: "'kern' Horizontal Kerning in Arabic lookup 2 per glyph data 2" uniFB90 dx=-601 dy=0 dh=-601 dv=0 dx=0 dy=0 dh=0 dv=0
PairPos2: "'kern' Horizontal Kerning in Arabic lookup 2 per glyph data 2" uniFB94 dx=-601 dy=0 dh=-601 dv=0 dx=0 dy=0 dh=0 dv=0
PairPos2: "'kern' Horizontal Kerning in Arabic lookup 2 per glyph data 2" uniFE8B dx=-334 dy=0 dh=-334 dv=0 dx=0 dy=0 dh=0 dv=0
PairPos2: "'kern' Horizontal Kerning in Arabic lookup 2 per glyph data 2" uniFE91 dx=-334 dy=0 dh=-334 dv=0 dx=0 dy=0 dh=0 dv=0
PairPos2: "'kern' Horizontal Kerning in Arabic lookup 2 per glyph data 2" uniFE97 dx=-334 dy=0 dh=-334 dv=0 dx=0 dy=0 dh=0 dv=0
PairPos2: "'kern' Horizontal Kerning in Arabic lookup 2 per glyph data 2" uniFE9B dx=-334 dy=0 dh=-334 dv=0 dx=0 dy=0 dh=0 dv=0
PairPos2: "'kern' Horizontal Kerning in Arabic lookup 2 per glyph data 2" uniFE9F dx=-334 dy=0 dh=-334 dv=0 dx=0 dy=0 dh=0 dv=0
PairPos2: "'kern' Horizontal Kerning in Arabic lookup 2 per glyph data 2" uniFEA3 dx=-334 dy=0 dh=-334 dv=0 dx=0 dy=0 dh=0 dv=0
PairPos2: "'kern' Horizontal Kerning in Arabic lookup 2 per glyph data 2" uniFEA7 dx=-334 dy=0 dh=-334 dv=0 dx=0 dy=0 dh=0 dv=0
PairPos2: "'kern' Horizontal Kerning in Arabic lookup 2 per glyph data 2" uniFEB3 dx=-334 dy=0 dh=-334 dv=0 dx=0 dy=0 dh=0 dv=0
PairPos2: "'kern' Horizontal Kerning in Arabic lookup 2 per glyph data 2" uniFEB7 dx=-334 dy=0 dh=-334 dv=0 dx=0 dy=0 dh=0 dv=0
PairPos2: "'kern' Horizontal Kerning in Arabic lookup 2 per glyph data 2" uniFEBB dx=-334 dy=0 dh=-334 dv=0 dx=0 dy=0 dh=0 dv=0
PairPos2: "'kern' Horizontal Kerning in Arabic lookup 2 per glyph data 2" uniFEBF dx=-334 dy=0 dh=-334 dv=0 dx=0 dy=0 dh=0 dv=0
PairPos2: "'kern' Horizontal Kerning in Arabic lookup 2 per glyph data 2" uniFEC3 dx=-334 dy=0 dh=-334 dv=0 dx=0 dy=0 dh=0 dv=0
PairPos2: "'kern' Horizontal Kerning in Arabic lookup 2 per glyph data 2" uniFEC7 dx=-334 dy=0 dh=-334 dv=0 dx=0 dy=0 dh=0 dv=0
PairPos2: "'kern' Horizontal Kerning in Arabic lookup 2 per glyph data 2" uniFECB dx=-334 dy=0 dh=-334 dv=0 dx=0 dy=0 dh=0 dv=0
PairPos2: "'kern' Horizontal Kerning in Arabic lookup 2 per glyph data 2" uniFECF dx=-334 dy=0 dh=-334 dv=0 dx=0 dy=0 dh=0 dv=0
PairPos2: "'kern' Horizontal Kerning in Arabic lookup 2 per glyph data 2" uniFED3 dx=-334 dy=0 dh=-334 dv=0 dx=0 dy=0 dh=0 dv=0
PairPos2: "'kern' Horizontal Kerning in Arabic lookup 2 per glyph data 2" uniFED7 dx=-334 dy=0 dh=-334 dv=0 dx=0 dy=0 dh=0 dv=0
PairPos2: "'kern' Horizontal Kerning in Arabic lookup 2 per glyph data 2" uniFEDB dx=-601 dy=0 dh=-601 dv=0 dx=0 dy=0 dh=0 dv=0
PairPos2: "'kern' Horizontal Kerning in Arabic lookup 2 per glyph data 2" uniFEDF dx=-334 dy=0 dh=-334 dv=0 dx=0 dy=0 dh=0 dv=0
PairPos2: "'kern' Horizontal Kerning in Arabic lookup 2 per glyph data 2" uniFEE3 dx=-334 dy=0 dh=-334 dv=0 dx=0 dy=0 dh=0 dv=0
PairPos2: "'kern' Horizontal Kerning in Arabic lookup 2 per glyph data 2" uniFEE7 dx=-334 dy=0 dh=-334 dv=0 dx=0 dy=0 dh=0 dv=0
PairPos2: "'kern' Horizontal Kerning in Arabic lookup 2 per glyph data 2" uniFEEB dx=-334 dy=0 dh=-334 dv=0 dx=0 dy=0 dh=0 dv=0
PairPos2: "'kern' Horizontal Kerning in Arabic lookup 2 per glyph data 2" uniFEF5 dx=-334 dy=0 dh=-334 dv=0 dx=0 dy=0 dh=0 dv=0
PairPos2: "'kern' Horizontal Kerning in Arabic lookup 2 per glyph data 2" uniFEF7 dx=-334 dy=0 dh=-334 dv=0 dx=0 dy=0 dh=0 dv=0
PairPos2: "'kern' Horizontal Kerning in Arabic lookup 2 per glyph data 2" uniFEF9 dx=-334 dy=0 dh=-334 dv=0 dx=0 dy=0 dh=0 dv=0
PairPos2: "'kern' Horizontal Kerning in Arabic lookup 2 per glyph data 2" uniFEFB dx=-334 dy=0 dh=-334 dv=0 dx=0 dy=0 dh=0 dv=0
PairPos2: "'kern' Horizontal Kerning in Arabic lookup 2 per glyph data 1" uni0639 dx=-134 dy=0 dh=-134 dv=0 dx=0 dy=0 dh=0 dv=0
PairPos2: "'kern' Horizontal Kerning in Arabic lookup 2 per glyph data 1" uni063A dx=-134 dy=0 dh=-134 dv=0 dx=0 dy=0 dh=0 dv=0
Colour: ffff
EndChar

StartChar: uniFEBA
Encoding: 65210 65210 155
Width: 2443
VWidth: 1839
Flags: HMW
AnchorPoint: "Anchor-1" 720 -526 basechar 0
AnchorPoint: "Anchor-3" 2055 811 basechar 0
LayerCount: 2
Fore
SplineSet
1083 316 m 0
 1083 368 1124 417 1181 417 c 0
 1213 417 1245 402 1264 374 c 0
 1291 335 1323 299 1358 269 c 1
 1495 504 1717 750 2000 750 c 0
 2198 750 2348 594 2348 381 c 0
 2348 283.390398734 2313.54886574 205.89102895 2259.10372685 145 c 1
 2443 145 l 2
 2497 145 2543 99 2543 45 c 0
 2543 -9 2497 -55 2443 -55 c 2
 1705 -55 l 2
 1572 -55 1451 -22 1348 34 c 1
 1325 -326 1010 -542 666 -542 c 0
 387 -542 50 -389 50 -40 c 0
 50 309 404 480 598 558 c 0
 610 563 622 565 634 565 c 0
 684 565 735 526 735 466 c 0
 735 426 711 388 672 372 c 0
 472 292 250 153 250 -40 c 0
 250 -225 433 -342 666 -342 c 0
 944 -342 1149 -173 1149 73 c 0
 1149 140 1131 208 1096 266 c 0
 1088 280 1083 297 1083 316 c 0
1705 145 m 0
 1930 145 2148 253 2148 381 c 0
 2148 498 2084 550 2000 550 c 0
 1842 550 1659 388 1532 171 c 1
 1584 154 1642 145 1705 145 c 0
EndSplineSet
Colour: ffff
EndChar

StartChar: uniFEBB
Encoding: 65211 65211 156
Width: 1536
VWidth: 2370
Flags: HMW
AnchorPoint: "Anchor-3" 1211 811 basechar 0
AnchorPoint: "Anchor-1" 818 0 basechar 0
LayerCount: 2
Fore
SplineSet
574 184 m 1
 646 159 735 147 809 147 c 0
 1063 147 1286 269 1286 434 c 0
 1286 534 1207 610 1088 610 c 0
 895 610 695 418 574 184 c 1
383 -143 m 0
 323 -143 284 -93 284 -42 c 0
 284 -35 285 -29 286 -22 c 0
 295 19 307 62 322 105 c 1
 317 110 l 1
 250 16 145 -55 0 -55 c 0
 -54 -55 -100 -9 -100 45 c 0
 -100 99 -54 145 0 145 c 0
 154 145 204 291 256 508 c 0
 267 552 307 585 353 585 c 0
 412 585 453 535 453 484 c 0
 453 477 452 469 450 462 c 0
 439 414 430 378 429 336 c 1
 566 571 794 810 1088 810 c 0
 1299 810 1486 658 1486 434 c 0
 1486 75 1081 -53 809 -53 c 0
 713 -53 601 -39 498 -1 c 1
 491 -23 486 -44 482 -64 c 0
 472 -111 429 -143 383 -143 c 0
EndSplineSet
Colour: ffff
EndChar

StartChar: uniFEBC
Encoding: 65212 65212 157
Width: 1601
VWidth: 1839
Flags: HMW
AnchorPoint: "Anchor-1" 818 0 basechar 0
AnchorPoint: "Anchor-3" 1211 811 basechar 0
LayerCount: 2
Fore
SplineSet
352 585 m 0
 411 585 452 535 452 484 c 0
 452 457 441 431 437 409 c 1
 569 610 789 810 1060 810 c 0
 1270 810 1459 659 1459 434 c 0
 1459 312.859578301 1412.65705015 217.794182442 1340.79606289 145 c 1
 1601 145 l 2
 1655 145 1701 99 1701 45 c 0
 1701 -9 1655 -55 1601 -55 c 2
 780 -55 l 2
 651 -55 498 -30 380 50 c 1
 352 61 333 85 314 106 c 1
 248 14 142 -55 0 -55 c 0
 -54 -55 -100 -9 -100 45 c 0
 -100 99 -54 145 0 145 c 0
 154 145 203 291 255 508 c 0
 266 552 306 585 352 585 c 0
780 145 m 0
 1034 145 1259 269 1259 434 c 0
 1259 533 1180 610 1060 610 c 0
 857 610 643 402 542 188 c 1
 609 159 700 145 780 145 c 0
EndSplineSet
Colour: ffff
EndChar

StartChar: uniFEC2
Encoding: 65218 65218 161
Width: 1565
VWidth: 2370
Flags: HMW
AnchorPoint: "Anchor-1" 440 0 basechar 0
AnchorPoint: "Anchor-3" 1178 811 basechar 0
LayerCount: 2
Fore
SplineSet
591 154 m 1
 653 158 716 163 775 170 c 0
 1112 211 1294 307 1294 469 c 0
 1294 556 1225 623 1120 623 c 0
 936 623 718 403 591 154 c 1
382 1360 m 0
 382 1413 425 1461 482 1461 c 0
 534 1461 579 1419 582 1367 c 0
 590 1253 594 1096 594 925 c 0
 594 791 591 647 585 510 c 1
 720 676 902 823 1120 823 c 0
 1317 823 1494 680 1494 469 c 0
 1494 331 1427 220 1330 145 c 1
 1565 145 l 2
 1619 145 1665 100 1665 45 c 0
 1665 -9 1619 -55 1565 -55 c 2
 150 -55 l 2
 95 -55 50 -9 50 45 c 0
 50 102 97 145 150 145 c 2
 200 145 l 2
 250 145 301 145 354 146 c 1
 382 360 394 662 394 928 c 0
 394 1094 389 1247 382 1354 c 0
 382 1356 382 1358 382 1360 c 0
EndSplineSet
Colour: ffff
EndChar

StartChar: uniFEC3
Encoding: 65219 65219 162
Width: 1240
VWidth: 2370
Flags: HMW
AnchorPoint: "Anchor-3" 855 811 basechar 0
AnchorPoint: "Anchor-1" 596 0 basechar 0
LayerCount: 2
Fore
SplineSet
331 161 m 1
 726 201 990 321 990 466 c 0
 990 552 922 619 816 619 c 0
 639 619 471 410 331 161 c 1
100 -156 m 0
 43 -156 1 -108 1 -55 c 1
 -54 -55 -100 -9 -100 45 c 0
 -100 99 -54 145 0 145 c 0
 27 145 55 145 84 146 c 1
 147 329 171 579 171 809 c 0
 171 1021 154 1220 139 1349 c 0
 139 1353 138 1356 138 1360 c 0
 138 1412 180 1461 238 1461 c 0
 288 1461 331 1422 337 1372 c 0
 352 1238 371 1034 371 811 c 0
 371 732 369 650 363 568 c 1
 476 701 625 819 816 819 c 0
 1012 819 1190 678 1190 466 c 0
 1190 60 602 -25 219 -48 c 1
 209 -68 198 -89 186 -108 c 0
 167 -139 134 -156 100 -156 c 0
EndSplineSet
Colour: ffff
EndChar

StartChar: uniFEC4
Encoding: 65220 65220 163
Width: 1258
VWidth: 2370
Flags: HMW
AnchorPoint: "Anchor-1" 596 0 basechar 0
AnchorPoint: "Anchor-3" 855 811 basechar 0
LayerCount: 2
Fore
SplineSet
353 154 m 1
 740 179 977 270 977 396 c 0
 977 487 902 559 788 559 c 0
 547 559 432 382 353 154 c 1
142 1360 m 0
 142 1412 184 1461 242 1461 c 0
 292 1461 335 1423 341 1372 c 0
 359 1210 370 997 370 778 c 0
 370 713 369 647 367 581 c 1
 467 686 608 759 788 759 c 0
 990 759 1177 615 1177 396 c 0
 1177 292 1128 205 1057 145 c 1
 1258 145 l 2
 1312 145 1358 99 1358 45 c 0
 1358 -9 1312 -55 1258 -55 c 2
 0 -55 l 1
 0 145 l 1
 41 145 86 145 131 146 c 1
 159 331 170 559 170 779 c 0
 170 992 160 1197 143 1350 c 0
 143 1354 142 1356 142 1360 c 0
EndSplineSet
Colour: ffff
EndChar

StartChar: uniFECA
Encoding: 65226 65226 167
Width: 1012
VWidth: 2370
Flags: HMW
AnchorPoint: "Anchor-3" 542 811 basechar 0
AnchorPoint: "Anchor-1" 666 -740 basechar 0
LayerCount: 2
Fore
SplineSet
532 384 m 1
 546 392 560 400 571 407 c 0
 659 459 721 508 721 564 c 0
 721 634 684 666 565 666 c 0
 486 666 393 644 324 611 c 1
 382 538 453 457 532 384 c 1
845 -773 m 0
 470 -773 50 -667 50 -257 c 0
 50 -13 218 160 361 270 c 1
 253 375 164 486 99 575 c 0
 86 592 81 613 81 633 c 0
 81 660 90 686 109 705 c 0
 210 806 396 866 565 866 c 0
 722 866 921 790 921 564 c 0
 921 389 776 298 700 252 c 1
 804 185 910 145 1012 145 c 0
 1066 145 1112 99 1112 45 c 0
 1112 -9 1066 -55 1012 -55 c 0
 826 -55 657 30 516 136 c 1
 376 36 250 -99 250 -257 c 0
 250 -475 461 -567 847 -573 c 0
 901 -574 945 -619 945 -673 c 0
 945 -728 899 -773 845 -773 c 0
EndSplineSet
Colour: ffff
EndChar

StartChar: uniFECB
Encoding: 65227 65227 168
Width: 1010
VWidth: 2370
Flags: HMW
AnchorPoint: "Anchor-3" 565 973 basechar 0
AnchorPoint: "Anchor-1" 438 0 basechar 0
LayerCount: 2
Fore
SplineSet
860 283 m 0
 907 283 960 243 960 183 c 0
 960 130 918 85 864 83 c 0
 814 81 760 74 706 66 c 0
 637 51 562 25 489 5 c 0
 371 -27 221 -55 0 -55 c 0
 -54 -55 -100 -9 -100 45 c 0
 -100 99 -54 145 0 145 c 0
 77 145 144 149 202 155 c 1
 125 222 77 322 77 437 c 0
 77 687 286 892 525 892 c 0
 624 892 724 857 800 788 c 0
 821 769 833 741 833 714 c 0
 833 659 786 614 733 614 c 0
 709 614 685 623 666 640 c 0
 630 673 578 692 525 692 c 0
 400 692 277 575 277 437 c 0
 277 320 365 249 510 249 c 0
 634 249 732 283 860 283 c 0
EndSplineSet
Colour: ffff
EndChar

StartChar: uniFECC
Encoding: 65228 65228 169
Width: 990
VWidth: 2370
Flags: HMW
AnchorPoint: "Anchor-3" 486 811 basechar 0
AnchorPoint: "Anchor-1" 495 0 basechar 0
LayerCount: 2
Fore
SplineSet
275 540 m 1
 345 456 442 362 552 289 c 1
 669 355 722 428 722 483 c 0
 722 542 635 612 501 612 c 0
 438 612 348 584 275 540 c 1
543 62 m 1
 371 -12 161 -55 0 -55 c 0
 -54 -55 -100 -9 -100 45 c 0
 -100 99 -54 145 0 145 c 0
 93 145 218 164 336 200 c 1
 214 299 119 408 53 501 c 0
 41 518 34 538 34 558 c 0
 34 585 45 612 65 631 c 0
 174 735 345 812 501 812 c 0
 665 812 922 726 922 483 c 0
 922 357 847 258 757 186 c 1
 831 160 909 145 990 145 c 0
 1044 145 1090 99 1090 45 c 0
 1090 -9 1044 -55 990 -55 c 0
 824 -55 671 -6 543 62 c 1
EndSplineSet
Colour: ffff
EndChar

StartChar: uniFED2
Encoding: 65234 65234 173
Width: 1819
VWidth: 2189
Flags: HMW
AnchorPoint: "Anchor-3" 1474 1323 basechar 0
AnchorPoint: "Anchor-1" 770 0 basechar 0
LayerCount: 2
Fore
SplineSet
1384 228 m 1
 1490 278 1554 348 1554 484 c 0
 1554 625 1501 682 1389 682 c 0
 1303 682 1225 616 1225 472 c 0
 1225 352 1286 279 1384 228 c 1
209 707 m 0
 266 707 308 658 308 606 c 0
 308 586 301 566 289 549 c 0
 264 514 250 470 250 423 c 0
 250 198 487 145 830 145 c 0
 938 145 1045 150 1141 163 c 1
 1068 243 1025 350 1025 472 c 0
 1025 698 1173 882 1389 882 c 0
 1627 882 1754 699 1754 484 c 0
 1754 351 1708 239 1628 157 c 1
 1688 149 1753 145 1819 145 c 0
 1873 145 1919 99 1919 45 c 0
 1919 -9 1873 -55 1819 -55 c 0
 1662 -55 1505 -34 1380 12 c 1
 1222 -40 1021 -55 830 -55 c 0
 527 -55 50 -18 50 423 c 0
 50 510 76 594 127 665 c 0
 146 692 178 707 209 707 c 0
EndSplineSet
Refer: 223 57344 N 1 0 0 1 1243 1190 2
Colour: ffff
EndChar

StartChar: uniFED6
Encoding: 65238 65238 176
Width: 1395
VWidth: 2270
Flags: HMW
AnchorPoint: "Anchor-3" 989 1152 basechar 0
AnchorPoint: "Anchor-1" 702 -526 basechar 0
LayerCount: 2
Fore
SplineSet
1141 144 m 1
 1136 381 1057 570 947 570 c 0
 864 570 768 452 768 316 c 0
 768 197 854 144 1048 144 c 2
 1141 144 l 1
372 546 m 0
 423 546 473 505 473 447 c 0
 473 413 456 380 426 361 c 0
 330 301 250 163 250 -9 c 0
 250 -228 426 -372 676 -372 c 0
 921 -372 1065 -254 1119 -56 c 1
 1048 -56 l 2
 834 -56 568 25 568 316 c 0
 568 510 698 770 947 770 c 0
 1283 770 1337 351 1341 145 c 1
 1395 145 l 2
 1450 145 1495 100 1495 45 c 0
 1495 -9 1449 -55 1395 -55 c 2
 1324 -55 l 1
 1262 -367 1022 -572 676 -572 c 0
 348 -572 50 -362 50 -9 c 0
 50 221 154 427 320 531 c 0
 336 541 354 546 372 546 c 0
EndSplineSet
Refer: 224 57345 N 1 0 0 1 649 1022 2
Colour: ffff
EndChar

StartChar: uniFEDA
Encoding: 65242 65242 179
Width: 1762
VWidth: 1424
Flags: HMW
AnchorPoint: "Anchor-3" 785 861 basechar 0
AnchorPoint: "Anchor-1" 706 0 basechar 0
LayerCount: 2
Fore
SplineSet
1236 1361 m 0
 1236 1413 1278 1461 1336 1461 c 0
 1385 1461 1429 1424 1435 1374 c 0
 1464 1148 1480 673 1480 431 c 0
 1480 219 1590 145 1762 145 c 0
 1816 145 1862 99 1862 45 c 0
 1862 -9 1816 -55 1762 -55 c 0
 1601.71873957 -55 1454.55962929 7.52318605086 1366.07836978 132.569558153 c 1
 1223.3393297 -13.8380295689 973.496695355 -54 776 -54 c 0
 476 -54 50 28 50 433 c 0
 50 521 77 605 126 674 c 0
 145 702 177 717 209 717 c 0
 267 717 308 667 308 616 c 0
 308 596 302 577 290 560 c 0
 264 523 250 479 250 433 c 0
 250 228 466 146 776 146 c 0
 1074 146 1280 231 1280 431 c 0
 1280 663 1264 1144 1237 1348 c 0
 1236 1352 1236 1357 1236 1361 c 0
EndSplineSet
Refer: 240 1620 N 1 0 0 1 570 -618 2
Colour: ffff
EndChar

StartChar: uniFEDB
Encoding: 65243 65243 180
Width: 1041
VWidth: 2370
Flags: HMW
AnchorPoint: "Anchor-3" 412 1345 basechar 0
AnchorPoint: "Anchor-1" 268 0 basechar 0
LayerCount: 2
Fore
SplineSet
890 1461 m 0
 940 1461 991 1422 991 1362 c 0
 991 1326 971 1290 937 1272 c 2
 279 934 l 1
 438 799 644 596 644 366 c 0
 644 62 313 -55 0 -55 c 0
 -54 -55 -100 -9 -100 45 c 0
 -100 99 -54 145 0 145 c 0
 303 145 444 256 444 366 c 0
 444 508 205 749 36 869 c 0
 16 883 -6 916 -6 950 c 0
 -6 986 14 1022 48 1040 c 2
 845 1450 l 2
 859 1457 875 1461 890 1461 c 0
EndSplineSet
Colour: ffff
EndChar

StartChar: uniFEDC
Encoding: 65244 65244 181
Width: 987
VWidth: 2370
Flags: HMW
AnchorPoint: "Anchor-1" 268 0 basechar 0
AnchorPoint: "Anchor-3" 412 1345 basechar 0
LayerCount: 2
Fore
SplineSet
379 563 m 0
 379 614 420 664 478 664 c 0
 512 664 545 647 564 617 c 0
 605 551 636 484 663 423 c 0
 743 242 782 145 987 145 c 0
 1041 145 1087 99 1087 45 c 0
 1087 -9 1041 -55 987 -55 c 0
 664 -55 559 166 481 341 c 0
 455 400 427 459 394 511 c 0
 384 527 379 545 379 563 c 0
EndSplineSet
Refer: 180 65243 N 1 0 0 1 0 0 2
Colour: ffff
EndChar

StartChar: uniFEDE
Encoding: 65246 65246 182
Width: 1541
VWidth: 2370
Flags: HMW
AnchorPoint: "Anchor-1" 649 -526 basechar 0
AnchorPoint: "Anchor-3" 616 420 basechar 0
LayerCount: 2
Fore
SplineSet
1306.89503188 5.89934876682 m 1
 1252.83591647 -316.36599245 1032.45569682 -527 663 -527 c 0
 367 -527 50 -342 50 -5 c 0
 50 221 205 381 343 461 c 0
 358 470 375 474 392 474 c 0
 443 474 493 434 493 375 c 0
 493 340 475 305 443 287 c 0
 342 229 250 121 250 -5 c 0
 250 -190 431 -327 663 -327 c 0
 980 -327 1120 -163 1120 170 c 0
 1120 226 1114 283 1114 342 c 2
 1114 347 l 1
 1102 607 1076 1104 1056 1353 c 1
 1056 1361 l 2
 1056 1414 1099 1461 1156 1461 c 0
 1207 1461 1252 1421 1256 1369 c 0
 1276 1113 1302 617 1314 354 c 0
 1321 202 1406 145 1541 145 c 0
 1595 145 1641 99 1641 45 c 0
 1641 -9 1595 -55 1541 -55 c 0
 1460.12077919 -55 1377.57837579 -34.7394119823 1306.89503188 5.89934876682 c 1
EndSplineSet
Colour: ffff
EndChar

StartChar: uniFEDF
Encoding: 65247 65247 183
Width: 524
VWidth: 2370
Flags: HMW
AnchorPoint: "Anchor-1" 253 0 basechar 0
AnchorPoint: "Anchor-3" 336 1459 basechar 0
LayerCount: 2
Fore
SplineSet
175 1361 m 0
 175 1413 217 1461 275 1461 c 0
 324 1461 367 1424 374 1374 c 0
 413 1078 424 762 424 444 c 0
 424 162 292 -55 0 -55 c 0
 -54 -55 -100 -9 -100 45 c 0
 -100 99 -54 145 0 145 c 0
 160 145 224 216 224 444 c 0
 224 758 213 1066 176 1348 c 0
 175 1352 175 1357 175 1361 c 0
EndSplineSet
Colour: ffff
EndChar

StartChar: uniFEE0
Encoding: 65248 65248 184
Width: 734
VWidth: 2370
Flags: HMW
AnchorPoint: "Anchor-3" 412 1459 basechar 0
AnchorPoint: "Anchor-1" 277 0 basechar 0
LayerCount: 2
Fore
SplineSet
213 1361 m 0
 213 1414 256 1461 313 1461 c 0
 364 1461 408 1421 413 1370 c 0
 440 1080 467 685 467 369 c 0
 467 211 567 145 734 145 c 0
 788 145 834 99 834 45 c 0
 834 -9 788 -55 734 -55 c 0
 598.544562197 -55 459.940184048 -10.2150706375 369.30557007 87.6331208027 c 1
 282.701295596 -9.14277357108 147.384493381 -55 0 -55 c 0
 -54 -55 -100 -9 -100 45 c 0
 -100 99 -54 145 0 145 c 0
 186 145 267 206 267 369 c 0
 267 673 240 1066 213 1352 c 0
 213 1355 213 1358 213 1361 c 0
EndSplineSet
Colour: ffff
EndChar

StartChar: uniFEE2
Encoding: 65250 65250 185
Width: 1311
VWidth: 1263
Flags: HMW
AnchorPoint: "Anchor-1" 690 -169 basechar 0
AnchorPoint: "Anchor-3" 768 753 basechar 0
LayerCount: 2
Fore
SplineSet
638 45 m 0
 638 99 684 145 738 145 c 2
 1311 145 l 2
 1365 145 1411 99 1411 45 c 0
 1411 -9 1365 -55 1311 -55 c 2
 738 -55 l 2
 684 -55 638 -9 638 45 c 0
EndSplineSet
Refer: 88 1605 N 1 0 0 1 0 0 2
Colour: ffff
EndChar

StartChar: uniFEE4
Encoding: 65252 65252 186
Width: 1219
VWidth: 1350
Flags: HMW
AnchorPoint: "Anchor-1" 671 0 basechar 0
AnchorPoint: "Anchor-3" 667 811 basechar 0
LayerCount: 2
Fore
SplineSet
781 391 m 0
 781 442 820 492 880 492 c 0
 925 492 967 460 978 415 c 0
 1017 251 1159 145 1219 145 c 0
 1273 145 1319 99 1319 45 c 0
 1319 -9 1273 -55 1219 -55 c 0
 1019 -55 837 147 784 369 c 0
 782 377 781 384 781 391 c 0
EndSplineSet
Refer: 222 65251 N 1 0 0 1 0 0 2
Colour: ffff
EndChar

StartChar: uniFEE6
Encoding: 65254 65254 187
Width: 1559
VWidth: 2286
Flags: HMW
AnchorPoint: "Anchor-3" 719 520 basechar 0
AnchorPoint: "Anchor-1" 704 -526 basechar 0
LayerCount: 2
Fore
SplineSet
1174 227 m 0
 1174 277 1213 328 1273 328 c 0
 1314 328 1354 302 1368 261 c 0
 1401 167 1410 145 1559 145 c 0
 1613 145 1659 99 1659 45 c 0
 1659 -9 1613 -55 1559 -55 c 0
 1347 -55 1235 41 1180 195 c 0
 1176 206 1174 216 1174 227 c 0
EndSplineSet
Refer: 223 57344 N 1 0 0 1 515 145 2
Refer: 85 1722 N 1 0 0 1 0 0 2
Colour: ffff
EndChar

StartChar: uniFEEA
Encoding: 65258 65258 188
Width: 1061
VWidth: 2370
Flags: HMW
AnchorPoint: "Anchor-3" 649 1174 basechar 0
AnchorPoint: "Anchor-1" 395 2 basechar 0
LayerCount: 2
Fore
SplineSet
526 353 m 0
 577 353 626 312 626 253 c 0
 626 206 592 164 544 155 c 0
 499 147 457 142 416 142 c 0
 208 142 50 267 50 458 c 0
 50 667 251 754 367 813 c 0
 513 887 552 928 550 954 c 2
 541 1056 l 2
 541 1059 541 1062 541 1065 c 0
 541 1119 586 1165 641 1165 c 0
 692 1165 736 1124 741 1074 c 2
 782 625 l 2
 820 209 930 145 1061 145 c 0
 1115 145 1161 99 1161 45 c 0
 1161 -9 1115 -55 1061 -55 c 0
 782 -55 622 167 582 607 c 2
 574 698 l 1
 536 675 495 654 457 635 c 0
 315 562 250 511 250 458 c 0
 250 396 282 342 416 342 c 0
 443 342 474 345 508 351 c 0
 514 352 520 353 526 353 c 0
EndSplineSet
Colour: ffff
EndChar

StartChar: uniFEEB
Encoding: 65259 65259 189
Width: 1217
VWidth: 2370
Flags: HMW
AnchorPoint: "Anchor-3" 625 872 basechar 0
AnchorPoint: "Anchor-1" 585 0 basechar 0
LayerCount: 2
Fore
SplineSet
587 460 m 0
 587 567 527 628 420 628 c 0
 325 628 241 560 241 463 c 0
 241 395 321 292 438 233 c 1
 539 290 587 369 587 460 c 0
786 485 m 1
 786 477 787 468 787 460 c 0
 787 347 744 238 661 153 c 1
 691 147 720 145 743 145 c 0
 925 145 967 203 967 307 c 0
 967 364 923 416 786 485 c 1
743 -55 m 0
 647 -55 527 -24 437 13 c 1
 316 -32 173 -55 0 -55 c 0
 -54 -55 -100 -9 -100 45 c 0
 -100 99 -54 145 0 145 c 0
 73 145 139 149 197 158 c 1
 112 233 41 337 41 463 c 0
 41 598 113 707 210 768 c 1
 155 805 103 846 54 894 c 0
 34 913 24 939 24 965 c 0
 24 1019 70 1065 124 1065 c 0
 149 1065 175 1055 194 1036 c 0
 301 930 448 855 597 789 c 0
 831 685 1167 595 1167 307 c 0
 1167 77 991 -55 743 -55 c 0
EndSplineSet
Colour: ffff
EndChar

StartChar: uniFEEC
Encoding: 65260 65260 190
Width: 930
VWidth: 2370
Flags: HMW
AnchorPoint: "Anchor-3" 534 782 basechar 0
AnchorPoint: "Anchor-1" 418 -557 basechar 0
LayerCount: 2
Fore
SplineSet
281 189 m 1
 509 268 604 432 604 546 c 0
 604 616 583 637 534 637 c 0
 406 637 295 467 281 189 c 1
100 -51 m 1
 68 -54 34 -55 0 -55 c 0
 -54 -55 -100 -9 -100 45 c 0
 -100 99 -54 145 0 145 c 0
 28 145 54 146 80 148 c 1
 83 446 196 837 534 837 c 0
 721 837 804 680 804 546 c 0
 804 316 620 75 298 -16 c 1
 347 -234 477 -372 554 -372 c 0
 592 -372 623 -350 623 -232 c 0
 623 -150 599 -53 573 2 c 0
 570 9 563 30 563 45 c 0
 563 99 608 145 663 145 c 2
 930 145 l 2
 984 145 1030 99 1030 45 c 0
 1030 -9 984 -55 930 -55 c 2
 802 -55 l 1
 815 -112 823 -171 823 -232 c 0
 823 -368 768 -572 554 -572 c 0
 302 -572 151 -288 100 -51 c 1
EndSplineSet
Colour: ffff
EndChar

StartChar: uniFEEE
Encoding: 65262 65262 191
Width: 857
VWidth: 2370
Flags: HMW
AnchorPoint: "Anchor-1" 419 -408 basechar 0
AnchorPoint: "Anchor-3" 466 811 basechar 0
LayerCount: 2
Fore
SplineSet
611 145 m 1
 610 429 535 571 432 571 c 0
 361 571 285 468 285 313 c 0
 285 160 350 145 566 145 c 2
 611 145 l 1
120 -557 m 0
 68 -557 20 -515 20 -457 c 0
 20 -408 57 -365 106 -358 c 0
 318 -328 488 -209 565 -55 c 1
 355 -55 85 -11 85 313 c 0
 85 492 173 771 432 771 c 0
 752 771 810 403 811 145 c 1
 857 145 l 2
 911 145 957 99 957 45 c 0
 957 -9 911 -55 857 -55 c 2
 781 -55 l 1
 694 -326 435 -513 134 -556 c 0
 129 -557 125 -557 120 -557 c 0
EndSplineSet
PairPos2: "'kern' Horizontal Kerning in Arabic lookup 2 per glyph data 4" uni063A dx=178 dy=0 dh=178 dv=0 dx=0 dy=0 dh=0 dv=0
PairPos2: "'kern' Horizontal Kerning in Arabic lookup 2 per glyph data 4" uni0639 dx=178 dy=0 dh=178 dv=0 dx=0 dy=0 dh=0 dv=0
PairPos2: "'kern' Horizontal Kerning in Arabic lookup 2 per glyph data 4" uni0625 dx=178 dy=0 dh=178 dv=0 dx=0 dy=0 dh=0 dv=0
PairPos2: "'kern' Horizontal Kerning in Arabic lookup 2 per glyph data 4" uni06CC dx=89 dy=0 dh=89 dv=0 dx=0 dy=0 dh=0 dv=0
PairPos2: "'kern' Horizontal Kerning in Arabic lookup 2 per glyph data 4" uni0626 dx=89 dy=0 dh=89 dv=0 dx=0 dy=0 dh=0 dv=0
PairPos2: "'kern' Horizontal Kerning in Arabic lookup 2 per glyph data 4" uni064A dx=89 dy=0 dh=89 dv=0 dx=0 dy=0 dh=0 dv=0
PairPos2: "'kern' Horizontal Kerning in Arabic lookup 2 per glyph data 4" uni0649 dx=89 dy=0 dh=89 dv=0 dx=0 dy=0 dh=0 dv=0
PairPos2: "'kern' Horizontal Kerning in Arabic lookup 2 per glyph data 3" uni06A9 dx=-233 dy=0 dh=-233 dv=0 dx=0 dy=0 dh=0 dv=0
PairPos2: "'kern' Horizontal Kerning in Arabic lookup 2 per glyph data 3" uni06AF dx=-233 dy=0 dh=-233 dv=0 dx=0 dy=0 dh=0 dv=0
PairPos2: "'kern' Horizontal Kerning in Arabic lookup 2 per glyph data 3" uniFB90 dx=-233 dy=0 dh=-233 dv=0 dx=0 dy=0 dh=0 dv=0
PairPos2: "'kern' Horizontal Kerning in Arabic lookup 2 per glyph data 3" uniFB94 dx=-233 dy=0 dh=-233 dv=0 dx=0 dy=0 dh=0 dv=0
PairPos2: "'kern' Horizontal Kerning in Arabic lookup 2 per glyph data 3" uniFEDB dx=-233 dy=0 dh=-233 dv=0 dx=0 dy=0 dh=0 dv=0
Colour: ffff
EndChar

StartChar: uniFEFB
Encoding: 65275 65275 199
Width: 1117
VWidth: 1839
Flags: HMW
AnchorPoint: "Anchor-2" 215 1459 baselig 1
AnchorPoint: "Anchor-0" 236 0 baselig 1
AnchorPoint: "Anchor-2" 862 1467 baselig 0
AnchorPoint: "Anchor-0" 807 -3 baselig 0
LayerCount: 2
Fore
SplineSet
813 1366 m 0
 813 1418 855 1466 913 1466 c 0
 962 1466 1006 1428 1012 1378 c 0
 1049 1083 1067 703 1067 386 c 0
 1067 78 769 -55 467 -55 c 0
 371 -55 226 -40 112 7 c 0
 74 23 50 61 50 100 c 0
 50 160 101 199 151 199 c 0
 164 199 176 196 188 191 c 0
 258 162 393 145 467 145 c 0
 737 145 867 250 867 386 c 0
 867 695 849 1071 814 1354 c 0
 813 1358 813 1362 813 1366 c 0
174 1337 m 0
 174 1387 213 1438 273 1438 c 0
 311 1438 348 1416 365 1380 c 0
 465 1165 558 763 558 329 c 0
 558 275 512 229 458 229 c 0
 404 229 358 275 358 329 c 0
 358 733 265 1121 183 1296 c 0
 177 1309 174 1323 174 1337 c 0
EndSplineSet
Ligature2: "'rlig' Required Ligatures in Arabic lookup 7 subtable" uniFEDF uniFE8E
PairPos2: "'kern' Horizontal Kerning in Arabic lookup 2 per glyph data 0" uni062C dx=-134 dy=0 dh=-134 dv=0 dx=0 dy=0 dh=0 dv=0
PairPos2: "'kern' Horizontal Kerning in Arabic lookup 2 per glyph data 0" uni062D dx=-134 dy=0 dh=-134 dv=0 dx=0 dy=0 dh=0 dv=0
PairPos2: "'kern' Horizontal Kerning in Arabic lookup 2 per glyph data 0" uni062E dx=-134 dy=0 dh=-134 dv=0 dx=0 dy=0 dh=0 dv=0
PairPos2: "'kern' Horizontal Kerning in Arabic lookup 2 per glyph data 0" uni0639 dx=-401 dy=0 dh=-401 dv=0 dx=0 dy=0 dh=0 dv=0
PairPos2: "'kern' Horizontal Kerning in Arabic lookup 2 per glyph data 0" uni063A dx=-401 dy=0 dh=-401 dv=0 dx=0 dy=0 dh=0 dv=0
PairPos2: "'kern' Horizontal Kerning in Arabic lookup 2 per glyph data 0" uni0686 dx=-134 dy=0 dh=-134 dv=0 dx=0 dy=0 dh=0 dv=0
LCarets2: 1 0
Colour: ffff
EndChar

StartChar: uniFEFC
Encoding: 65276 65276 200
Width: 1340
VWidth: 1839
Flags: HMW
AnchorPoint: "Anchor-0" 427 0 baselig 1
AnchorPoint: "Anchor-2" 252 1459 baselig 1
AnchorPoint: "Anchor-2" 977 1457 baselig 0
AnchorPoint: "Anchor-0" 959 -1 baselig 0
LayerCount: 2
Fore
SplineSet
1024 1416 m 0
 1078 1416 1124 1370 1124 1316 c 2
 1124 637 l 2
 1124 179 1199 145 1340 145 c 0
 1394 145 1440 99 1440 45 c 0
 1440 -9 1394 -55 1340 -55 c 0
 1161.99339895 -55 1049.81716498 23.859293886 987.410114012 181.979411259 c 1
 821.747100472 -13.4628247842 518.418141127 -55 150 -55 c 0
 96 -55 50 -9 50 45 c 0
 50 99 96 145 150 145 c 0
 713 145 924 204 924 637 c 2
 924 1316 l 2
 924 1370 970 1416 1024 1416 c 0
209 1303 m 0
 209 1353 248 1404 308 1404 c 0
 351 1404 392 1376 405 1334 c 0
 500 1028 570 702 594 364 c 1
 594 357 l 2
 594 304 551 257 494 257 c 0
 442 257 398 298 394 350 c 0
 372 670 304 980 213 1274 c 0
 210 1284 209 1293 209 1303 c 0
EndSplineSet
Ligature2: "'rlig' Required Ligatures in Arabic lookup 7 subtable" uniFEE0 uniFE8E
PairPos2: "'kern' Horizontal Kerning in Arabic lookup 2 per glyph data 0" uni062C dx=-134 dy=0 dh=-134 dv=0 dx=0 dy=0 dh=0 dv=0
PairPos2: "'kern' Horizontal Kerning in Arabic lookup 2 per glyph data 0" uni062D dx=-134 dy=0 dh=-134 dv=0 dx=0 dy=0 dh=0 dv=0
PairPos2: "'kern' Horizontal Kerning in Arabic lookup 2 per glyph data 0" uni062E dx=-134 dy=0 dh=-134 dv=0 dx=0 dy=0 dh=0 dv=0
PairPos2: "'kern' Horizontal Kerning in Arabic lookup 2 per glyph data 0" uni0639 dx=-401 dy=0 dh=-401 dv=0 dx=0 dy=0 dh=0 dv=0
PairPos2: "'kern' Horizontal Kerning in Arabic lookup 2 per glyph data 0" uni063A dx=-401 dy=0 dh=-401 dv=0 dx=0 dy=0 dh=0 dv=0
PairPos2: "'kern' Horizontal Kerning in Arabic lookup 2 per glyph data 0" uni0686 dx=-134 dy=0 dh=-134 dv=0 dx=0 dy=0 dh=0 dv=0
LCarets2: 1 0
Colour: ffff
EndChar

StartChar: uni06CC
Encoding: 1740 1740 201
Width: 1385
VWidth: 2370
Flags: HMW
AnchorPoint: "Anchor-3" 424 624 basechar 0
AnchorPoint: "Anchor-1" 724 -563 basechar 0
LayerCount: 2
Fore
SplineSet
1318 736 m 0
 1318 680 1271 636 1218 636 c 0
 1195 636 1172 644 1153 660 c 0
 1120 689 1069 711 1010 711 c 0
 862 711 729 588 729 430 c 0
 729 263 805 257 949 241 c 0
 1109 223 1335 173 1335 -82 c 0
 1335 -398 1047 -553 730 -553 c 0
 369 -553 50 -337 50 74 c 0
 50 236 99 374 148 482 c 0
 165 519 202 541 240 541 c 0
 300 541 339 490 339 440 c 0
 339 426 336 413 330 400 c 0
 287 304 250 194 250 74 c 0
 250 -207 445 -353 730 -353 c 0
 1001 -353 1135 -240 1135 -82 c 0
 1135 5 1099 23 927 43 c 0
 783 59 529 111 529 430 c 0
 529 702 754 911 1010 911 c 0
 1119 911 1214 871 1283 812 c 0
 1306 792 1318 764 1318 736 c 0
EndSplineSet
Substitution2: "'init' Initial Forms in Arabic lookup 6 subtable" uniFBFE
Substitution2: "'medi' Medial Forms in Arabic lookup 5 subtable" uniFBFF
Substitution2: "'fina' Terminal Forms in Arabic lookup 4 subtable" uniFBFD
Colour: ffff
EndChar

StartChar: uniFBFD
Encoding: 64509 64509 202
Width: 1459
VWidth: 1839
Flags: HMW
AnchorPoint: "Anchor-3" 793 214 basechar 0
AnchorPoint: "Anchor-1" 647 -580 basechar 0
LayerCount: 2
Fore
SplineSet
353 518 m 0
 408 518 453 472 453 418 c 0
 453 394 444 369 427 350 c 0
 304 217 250 29 250 -72 c 0
 250 -323 465 -426 728 -426 c 0
 1056 -426 1149 -287 1149 -232 c 0
 1149 -187 1089 -78 828 -55 c 0
 780 -51 737 -9 737 45 c 0
 737 99 782 145 837 145 c 2
 1459 145 l 2
 1513 145 1559 99 1559 45 c 0
 1559 -9 1513 -55 1459 -55 c 2
 1288 -55 l 1
 1327 -107 1349 -169 1349 -232 c 0
 1349 -469 1086 -626 728 -626 c 0
 431 -626 50 -489 50 -72 c 0
 50 83 117 309 280 486 c 0
 299 507 326 518 353 518 c 0
EndSplineSet
Colour: ffff
EndChar

StartChar: uniFB8F
Encoding: 64399 64399 205
Width: 1884
VWidth: 1478
Flags: HMW
AnchorPoint: "Anchor-1" 696 0 basechar 0
AnchorPoint: "Anchor-3" 1242 1297 basechar 0
LayerCount: 2
Fore
SplineSet
1095 698 m 0
 1095 750 1138 798 1195 798 c 0
 1225 798 1255 785 1274 759 c 0
 1333 682 1379 599 1422 520 c 0
 1541 300 1627 145 1884 145 c 0
 1938 145 1984 99 1984 45 c 0
 1984 -9 1938 -55 1884 -55 c 0
 1508 -55 1361 212 1246 424 c 0
 1204 502 1163 575 1116 637 c 0
 1102 655 1095 677 1095 698 c 0
EndSplineSet
Refer: 92 1705 N 1 0 0 1 0 0 2
Colour: ffff
EndChar

StartChar: uniFBE8
Encoding: 64488 64488 218
Width: 532
VWidth: 1437
Flags: HMW
AnchorPoint: "Anchor-3" 276 832 basechar 0
AnchorPoint: "Anchor-1" 294 89 basechar 0
LayerCount: 2
Fore
SplineSet
172 826 m 0
 172 876 211 927 271 927 c 0
 310 927 348 904 364 866 c 0
 444 674 482 518 482 387 c 0
 482 72 224 -55 0 -55 c 0
 -54 -55 -100 -9 -100 45 c 0
 -100 99 -54 145 0 145 c 0
 164 145 282 214 282 387 c 0
 282 478 254 612 180 788 c 0
 175 800 172 813 172 826 c 0
EndSplineSet
Colour: ffff
EndChar

StartChar: uniFBE9
Encoding: 64489 64489 219
Width: 861
VWidth: 1437
Flags: HMW
AnchorPoint: "Anchor-3" 283 565 basechar 0
AnchorPoint: "Anchor-1" 261 0 basechar 0
LayerCount: 2
Fore
SplineSet
345 582 m 0
 345 633 386 682 445 682 c 0
 495 682 538 644 544 593 c 0
 553 510 563 428 576 369 c 0
 612 197 648 145 861 145 c 0
 915 145 961 99 961 45 c 0
 961 -9 915 -55 861 -55 c 0
 667 -55 524 5 446 141 c 1
 345 11 184 -55 0 -55 c 0
 -54 -55 -100 -9 -100 45 c 0
 -100 99 -54 145 0 145 c 0
 227 145 352 263 352 475 c 0
 352 506 345 548 345 582 c 0
EndSplineSet
Colour: ffff
EndChar

StartChar: uniFEE3
Encoding: 65251 65251 222
Width: 1039
VWidth: 2370
Flags: HMW
AnchorPoint: "Anchor-3" 605 811 basechar 0
AnchorPoint: "Anchor-1" 613 0 basechar 0
LayerCount: 2
Fore
SplineSet
375 237 m 1
 396 236 417 228 433 215 c 0
 488 170 561 145 623 145 c 0
 718 145 789 185 789 326 c 0
 789 448 680 548 607 548 c 0
 515 548 461 492 421 368 c 0
 407 326 393 281 375 237 c 1
287 81 m 1
 224 2 126 -55 0 -55 c 0
 -54 -55 -100 -9 -100 45 c 0
 -100 99 -54 145 0 145 c 0
 84 145 121 178 161 252 c 0
 187 299 209 364 231 430 c 0
 281 584 393 748 607 748 c 0
 816 748 989 544 989 326 c 0
 989 73 808 -55 623 -55 c 0
 511 -55 398 -14 307 60 c 0
 300 66 293 73 287 81 c 1
EndSplineSet
Colour: ffff
EndChar

StartChar: uniE000
Encoding: 57344 57344 223
Width: 552
VWidth: 2836
Flags: HMW
LayerCount: 2
Fore
SplineSet
74 150 m 0
 74 219 144 273 222 273 c 0
 300 273 345 220 345 142 c 0
 345 64 292 -4 214 -4 c 0
 136 -4 74 73 74 150 c 0
EndSplineSet
Colour: ff0000
EndChar

StartChar: uniE001
Encoding: 57345 57345 224
Width: 660
VWidth: 1823
Flags: HMW
LayerCount: 2
Fore
SplineSet
98 -1 m 0
 46 -1 -2 42 -2 99 c 0
 -2 130 13 161 39 180 c 0
 134 250 276 283 400 283 c 0
 472 283 566 278 626 200 c 0
 648 172 660 135 660 99 c 0
 660 31 617 -16 558 -16 c 0
 502 -16 462 27 458 77 c 1
 445 80 424 83 400 83 c 0
 314 83 198 48 157 18 c 0
 139 5 119 -1 98 -1 c 0
EndSplineSet
Colour: ffff
EndChar

StartChar: uniE002
Encoding: 57346 57346 225
Width: 696
VWidth: 1823
Flags: HMW
LayerCount: 2
Fore
SplineSet
84 281 m 0
 33 281 -15 325 -15 381 c 0
 -15 412 0 443 26 462 c 0
 102 518 259 564 402 564 c 0
 473 564 577 552 628 456 c 0
 642 429 649 399 649 370 c 0
 649 205 477 59 349 22 c 0
 340 19 331 18 322 18 c 0
 272 18 221 57 221 117 c 0
 221 160 250 202 293 214 c 0
 334 226 428 311 446 360 c 1
 436 362 421 364 402 364 c 0
 311 364 160 312 146 302 c 0
 127 288 105 281 84 281 c 0
EndSplineSet
Colour: ffff
EndChar

StartChar: uniE003
Encoding: 57347 57347 226
Width: 696
VWidth: 1823
Flags: HMW
LayerCount: 2
Fore
SplineSet
474 26 m 0
 416 26 375 76 375 127 c 0
 375 171 403 177 403 230 c 0
 403 273 375 306 308 306 c 0
 258 306 222 265 222 234 c 0
 222 184 241 163 300 110 c 0
 321 91 333 63 333 36 c 0
 333 -19 286 -64 233 -64 c 0
 209 -64 185 -55 166 -38 c 0
 110 13 22 94 22 234 c 0
 22 393 162 506 308 506 c 0
 459 506 603 401 603 230 c 0
 603 142 567 26 474 26 c 0
EndSplineSet
Colour: ffff
EndChar

StartChar: uniE004
Encoding: 57348 57348 227
Width: 1937
VWidth: 2370
Flags: HMW
AnchorPoint: "Anchor-3" 839 577 basechar 0
AnchorPoint: "Anchor-1" 783 -1 basechar 0
LayerCount: 2
Fore
SplineSet
185 738 m 0
 245 738 284 687 284 637 c 0
 284 626 282 616 278 605 c 0
 259 551 250 494 250 414 c 0
 250 268 405 145 779 145 c 0
 1161 145 1415 291 1473 553 c 0
 1483 597 1522 631 1571 631 c 0
 1625 631 1671 586 1671 531 c 0
 1671 241 1715 145 1937 145 c 0
 1991 145 2037 99 2037 45 c 0
 2037 -9 1991 -55 1937 -55 c 0
 1721 -55 1575 44 1514 211 c 1
 1343 25 1075 -55 779 -55 c 0
 395 -55 50 80 50 414 c 0
 50 510 63 593 90 671 c 0
 104 712 144 738 185 738 c 0
EndSplineSet
Colour: ffff
EndChar

StartChar: uniE005
Encoding: 57349 57349 228
Width: 834
VWidth: 2370
Flags: HMW
AnchorPoint: "Anchor-3" 430 1141 basechar 0
AnchorPoint: "Anchor-1" 372 0 basechar 0
LayerCount: 2
Fore
SplineSet
579 546 m 1
 558 823 478 946 410 946 c 0
 318 946 242 820 242 665 c 0
 242 550 282 515 427 515 c 0
 482 515 533 528 579 546 c 1
577 335 m 1
 531 323 480 315 427 315 c 0
 218 315 42 426 42 665 c 0
 42 840 128 1146 410 1146 c 0
 744 1146 784 685 784 399 c 0
 784 30 433 -55 0 -55 c 0
 -54 -55 -100 -9 -100 45 c 0
 -100 99 -54 145 0 145 c 0
 399 145 548 219 577 335 c 1
EndSplineSet
Colour: ffff
EndChar

StartChar: uniE006
Encoding: 57350 57350 229
Width: 885
VWidth: 2370
Flags: HMW
AnchorPoint: "Anchor-3" 522 921 basechar 0
AnchorPoint: "Anchor-1" 337 0 basechar 0
LayerCount: 2
Fore
SplineSet
439 242 m 1
 552 303 622 389 622 503 c 0
 622 639 562 708 467 708 c 0
 355 708 263 617 263 504 c 0
 263 388 329 303 439 242 c 1
439 22 m 1
 311 -28 149 -55 0 -55 c 0
 -54 -55 -100 -9 -100 45 c 0
 -100 99 -54 145 0 145 c 0
 70 145 141 151 209 164 c 1
 120 250 63 367 63 504 c 0
 63 727 245 908 467 908 c 0
 706 908 822 701 822 503 c 0
 822 365 762 249 672 164 c 1
 740 152 812 145 885 145 c 0
 939 145 985 99 985 45 c 0
 985 -9 939 -55 885 -55 c 0
 729 -55 568 -29 439 22 c 1
EndSplineSet
Colour: ffff
EndChar

StartChar: uni064E
Encoding: 1614 1614 230
Width: 0
VWidth: -1171
Flags: HMW
AnchorPoint: "Anchor-5" 206 944 mark 0
AnchorPoint: "Anchor-2" 206 944 mark 0
AnchorPoint: "Anchor-3" 206 944 mark 0
AnchorPoint: "Anchor-5" 206 1404 basemark 0
LayerCount: 2
Fore
SplineSet
16 1276 m 0
 -16 1276 -50 1301 -50 1340 c 0
 -50 1367 -33 1393 -7 1402 c 2
 398 1546 l 2
 405 1548 412 1550 419 1550 c 0
 451 1550 485 1525 485 1486 c 0
 485 1459 468 1433 442 1424 c 2
 37 1280 l 2
 30 1278 23 1276 16 1276 c 0
EndSplineSet
Colour: ffff00
EndChar

StartChar: uni064F
Encoding: 1615 1615 234
Width: 0
VWidth: 2274
Flags: HMW
AnchorPoint: "Anchor-5" 162 858 mark 0
AnchorPoint: "Anchor-5" 171 1537 basemark 0
AnchorPoint: "Anchor-3" 162 858 mark 0
AnchorPoint: "Anchor-2" 162 858 mark 0
LayerCount: 2
Fore
SplineSet
215 1488 m 0
 215 1561 203 1613 191 1613 c 0
 162 1613 122 1566 122 1508 c 0
 122 1500 136 1475 214 1460 c 1
 215 1469 215 1478 215 1488 c 0
420 1383 m 0
 420 1348 390 1318 355 1318 c 0
 340 1318 323 1318 306 1319 c 1
 242 1205 114 1171 -31 1163 c 1
 -35 1163 l 2
 -70 1163 -100 1191 -100 1228 c 0
 -100 1262 -72 1291 -38 1293 c 0
 53 1298 117 1315 154 1340 c 1
 87 1358 -8 1403 -8 1508 c 0
 -8 1598 50 1743 191 1743 c 0
 215 1743 238 1737 258 1726 c 0
 338 1682 345 1587 345 1522 c 2
 345 1488 l 2
 345 1474 344 1461 343 1448 c 1
 347 1448 351 1448 355 1448 c 0
 390 1448 420 1418 420 1383 c 0
EndSplineSet
Colour: ffff00
EndChar

StartChar: uni0651
Encoding: 1617 1617 235
Width: 0
VWidth: 2279
Flags: HMW
AnchorPoint: "Anchor-5" 239 858 mark 0
AnchorPoint: "Anchor-5" 239 1330 basemark 0
AnchorPoint: "Anchor-3" 239 858 mark 0
AnchorPoint: "Anchor-2" 239 858 mark 0
LayerCount: 2
Fore
SplineSet
76 1583 m 0
 113 1583 141 1552 141 1518 c 0
 141 1504 137 1490 128 1478 c 0
 102 1444 81 1392 81 1360 c 0
 81 1330 86 1329 110 1329 c 0
 131 1329 174 1350 174 1442 c 1
 304 1442 l 1
 304 1349 346 1328 364 1328 c 0
 365 1328 366 1328 367 1328 c 0
 389 1328 398 1329 398 1374 c 0
 398 1423 376 1495 359 1534 c 0
 355 1542 353 1550 353 1559 c 0
 353 1591 378 1625 417 1625 c 0
 442 1625 466 1610 477 1586 c 0
 500 1535 528 1455 528 1374 c 0
 528 1267 456 1198 364 1198 c 0
 315 1198 270 1220 238 1255 c 1
 204 1219 159 1199 110 1199 c 0
 28 1199 -49 1258 -49 1360 c 0
 -49 1434 -15 1506 25 1558 c 0
 38 1574 56 1583 76 1583 c 0
EndSplineSet
Colour: ffff00
EndChar

StartChar: uni0670
Encoding: 1648 1648 236
Width: 0
VWidth: 1823
Flags: HMW
AnchorPoint: "Anchor-5" 33 861 mark 0
AnchorPoint: "Anchor-5" 33 1413 basemark 0
AnchorPoint: "Anchor-3" 33 861 mark 0
AnchorPoint: "Anchor-2" 33 861 mark 0
LayerCount: 2
Fore
SplineSet
-51 1623 m 0
 -51 1657 -23 1688 14 1688 c 0
 47 1688 76 1662 79 1628 c 0
 85 1551 91 1481 91 1409 c 0
 91 1334 84 1257 58 1179 c 0
 49 1152 23 1134 -4 1134 c 0
 -43 1134 -69 1166 -69 1199 c 0
 -69 1206 -68 1212 -66 1219 c 0
 -46 1279 -39 1342 -39 1409 c 0
 -39 1474 -51 1544 -51 1623 c 0
EndSplineSet
Colour: ffff00
EndChar

StartChar: uni064C
Encoding: 1612 1612 237
Width: 0
VWidth: 2274
Flags: HMW
AnchorPoint: "Anchor-5" 180 858 mark 0
AnchorPoint: "Anchor-5" 187 1497 basemark 0
AnchorPoint: "Anchor-3" 180 858 mark 0
AnchorPoint: "Anchor-2" 180 858 mark 0
LayerCount: 2
Fore
SplineSet
197 1956 m 2
 231 1956 262 1928 262 1891 c 0
 262 1858 236 1829 202 1826 c 0
 96 1817 -22 1683 -22 1559 c 0
 -22 1520 -11 1486 14 1454 c 0
 23 1442 28 1427 28 1413 c 0
 28 1379 0 1348 -37 1348 c 0
 -56 1348 -75 1356 -88 1372 c 0
 -133 1428 -152 1494 -152 1559 c 0
 -152 1747 4 1941 192 1956 c 1
 197 1956 l 2
EndSplineSet
Refer: 234 1615 N 1 0 0 1 0 0 2
Colour: ffff00
EndChar

StartChar: uni0652
Encoding: 1618 1618 238
Width: 0
VWidth: 2274
Flags: HMW
AnchorPoint: "Anchor-5" 183 944 mark 0
AnchorPoint: "Anchor-5" 167 1441 basemark 0
AnchorPoint: "Anchor-3" 183 944 mark 0
AnchorPoint: "Anchor-2" 183 944 mark 0
LayerCount: 2
Fore
SplineSet
176 1654 m 0
 298 1654 378 1553 378 1452 c 0
 378 1329 289 1232 175 1232 c 0
 56 1232 -28 1331 -28 1434 c 0
 -28 1555 64 1654 176 1654 c 0
176 1524 m 0
 144 1524 102 1491 102 1434 c 0
 102 1399 134 1362 175 1362 c 0
 209 1362 248 1391 248 1452 c 0
 248 1489 220 1524 176 1524 c 0
EndSplineSet
Colour: ffff00
EndChar

StartChar: uni0653
Encoding: 1619 1619 239
Width: 0
VWidth: 1823
Flags: HMW
AnchorPoint: "Anchor-5" 308 858 mark 0
AnchorPoint: "Anchor-5" 316 1325 basemark 0
AnchorPoint: "Anchor-3" 308 858 mark 0
AnchorPoint: "Anchor-2" 308 858 mark 0
LayerCount: 2
Fore
SplineSet
572 1481 m 0
 611 1481 636 1448 636 1415 c 0
 636 1406 634 1397 630 1388 c 0
 595 1315 531 1223 419 1223 c 0
 370 1223 320 1240 269 1275 c 0
 237 1297 214 1304 194 1304 c 0
 157 1304 116 1279 85 1226 c 0
 73 1205 52 1193 29 1193 c 0
 -9 1193 -36 1225 -36 1258 c 0
 -36 1269 -33 1280 -27 1290 c 0
 18 1369 95 1434 194 1434 c 0
 246 1434 295 1416 343 1383 c 0
 378 1360 404 1353 419 1353 c 0
 449 1353 481 1379 512 1444 c 0
 523 1467 548 1481 572 1481 c 0
EndSplineSet
Colour: ffff00
EndChar

StartChar: uni0654
Encoding: 1620 1620 240
Width: 0
VWidth: 2280
Flags: HMW
AnchorPoint: "Anchor-5" 236 858 mark 0
AnchorPoint: "Anchor-5" 236 1503 basemark 0
AnchorPoint: "Anchor-3" 236 858 mark 0
AnchorPoint: "Anchor-2" 236 858 mark 0
LayerCount: 2
Fore
SplineSet
417 1587 m 0
 417 1553 389 1522 352 1522 c 0
 332 1522 313 1531 300 1548 c 0
 276 1580 252 1589 228 1589 c 0
 177 1589 115 1536 115 1463 c 0
 115 1408 138 1388 221 1388 c 0
 272 1388 334 1400 398 1422 c 0
 405 1424 411 1426 418 1426 c 0
 451 1426 484 1400 484 1361 c 0
 484 1334 466 1309 440 1300 c 2
 35 1159 l 2
 28 1157 22 1155 15 1155 c 0
 -17 1155 -51 1180 -51 1219 c 0
 -51 1246 -34 1272 -7 1281 c 2
 58 1304 l 1
 12 1339 -15 1397 -15 1463 c 0
 -15 1606 99 1719 228 1719 c 0
 294 1719 358 1688 404 1626 c 0
 413 1615 417 1600 417 1587 c 0
EndSplineSet
Colour: ffff00
EndChar

StartChar: uni0615
Encoding: 1557 1557 244
Width: 0
VWidth: 1839
Flags: HMW
AnchorPoint: "Anchor-5" 256 768 mark 0
AnchorPoint: "Anchor-5" 247 1347 basemark 0
AnchorPoint: "Anchor-3" 256 768 mark 0
AnchorPoint: "Anchor-2" 256 768 mark 0
LayerCount: 2
Fore
SplineSet
9 1256 m 0
 40 1256 69 1243 97 1237 c 1
 105 1307 109 1375 109 1441 c 0
 109 1532 101 1621 87 1708 c 0
 86 1711 86 1716 86 1719 c 0
 86 1752 113 1784 151 1784 c 0
 182 1784 210 1761 215 1730 c 0
 231 1637 239 1540 239 1441 c 2
 239 1432 l 1
 281 1465 333 1487 393 1487 c 0
 490 1487 580 1416 580 1309 c 0
 580 1122 367 1092 258 1092 c 0
 157 1092 75 1105 -9 1128 c 0
 -38 1136 -57 1162 -57 1191 c 0
 -57 1230 -24 1256 9 1256 c 0
242 1222 m 1
 258 1222 l 2
 379 1222 450 1260 450 1309 c 0
 450 1334 430 1357 393 1357 c 0
 334 1357 281 1307 242 1222 c 1
EndSplineSet
Colour: ffff00
EndChar

StartChar: uniE007
Encoding: 57351 57351 251
Width: 1067
VWidth: 1839
Flags: HMW
LayerCount: 2
Fore
SplineSet
168 1238 m 0
 117 1238 67 1279 67 1337 c 0
 67 1371 84 1404 114 1423 c 2
 708 1790 l 2
 724 1800 742 1805 760 1805 c 0
 811 1805 861 1764 861 1706 c 0
 861 1672 844 1639 814 1620 c 2
 220 1253 l 2
 204 1243 186 1238 168 1238 c 0
EndSplineSet
Colour: ffff
EndChar

StartChar: uni0643
Encoding: 1603 1603 261
Width: 1550
VWidth: 1478
Flags: HMW
AnchorPoint: "Anchor-3" 791 873 basechar 0
AnchorPoint: "Anchor-1" 703 0 basechar 0
LayerCount: 2
Fore
SplineSet
1253 1316 m 0
 1253 1368 1295 1416 1353 1416 c 0
 1402 1416 1445 1379 1452 1329 c 0
 1485 1081 1500 738 1500 471 c 0
 1500 64 1189 -55 845 -55 c 0
 512 -55 50 33 50 473 c 0
 50 567 76 658 131 736 c 0
 150 763 182 779 214 779 c 0
 272 779 313 729 313 678 c 0
 313 658 307 639 295 622 c 0
 265 580 250 529 250 473 c 0
 250 233 500 145 845 145 c 0
 1159 145 1300 216 1300 471 c 0
 1300 730 1285 1071 1254 1303 c 0
 1253 1307 1253 1312 1253 1316 c 0
EndSplineSet
Refer: 240 1620 N 1 0 0 1 565 -617 2
Substitution2: "'init' Initial Forms in Arabic lookup 6 subtable" uniFEDB
Substitution2: "'medi' Medial Forms in Arabic lookup 5 subtable" uniFEDC
Substitution2: "'fina' Terminal Forms in Arabic lookup 4 subtable" uniFEDA
Colour: ffff
EndChar

StartChar: uni065A
Encoding: 1626 1626 265
Width: 0
VWidth: -365
Flags: HMW
AnchorPoint: "Anchor-5" 240 826 mark 0
AnchorPoint: "Anchor-5" 240 1381 basemark 0
AnchorPoint: "Anchor-3" 240 826 mark 0
AnchorPoint: "Anchor-2" 240 826 mark 0
LayerCount: 2
Fore
SplineSet
460 1589 m 0
 495 1589 525 1560 525 1524 c 0
 525 1507 518 1490 505 1477 c 0
 393 1369 308 1114 308 1004 c 1
 178 1004 l 1
 178 1114 93 1369 -19 1477 c 0
 -32 1490 -39 1507 -39 1524 c 0
 -39 1559 -9 1589 26 1589 c 0
 42 1589 59 1583 71 1571 c 0
 147 1498 202 1396 243 1292 c 1
 283 1394 339 1498 415 1571 c 0
 427 1583 444 1589 460 1589 c 0
EndSplineSet
Colour: ffff00
EndChar

StartChar: uni0621
Encoding: 1569 1569 266
Width: 857
VWidth: 2280
Flags: HMW
AnchorPoint: "Anchor-3" 428 736 basechar 0
AnchorPoint: "Anchor-1" 428 175 basechar 0
LayerCount: 2
Fore
SplineSet
705 680 m 0
 705 629 664 579 606 579 c 0
 573 579 541 595 522 624 c 0
 498 661 479 676 423 676 c 0
 331 676 242 568 242 451 c 0
 242 371 274 308 404 308 c 0
 512 308 636 330 743 330 c 0
 798 330 843 284 843 230 c 0
 843 179 803 140 762 132 c 0
 557 93 359 26 178 -98 c 0
 161 -110 141 -115 122 -115 c 0
 71 -115 21 -74 21 -16 c 0
 21 16 37 49 65 68 c 0
 112 100 159 128 208 154 c 1
 91 219 42 339 42 451 c 0
 42 642 181 876 423 876 c 0
 547 876 636 811 688 734 c 0
 699 717 705 699 705 680 c 0
EndSplineSet
Colour: ffff
EndChar

StartChar: uni0640
Encoding: 1600 1600 267
Width: 668
VWidth: 1437
Flags: HMW
AnchorPoint: "Anchor-1" 334 -169 basechar 0
AnchorPoint: "Anchor-3" 334 520 basechar 0
LayerCount: 2
Fore
SplineSet
-100 45 m 0
 -100 99 -54 145 0 145 c 2
 668 145 l 2
 722 145 768 99 768 45 c 0
 768 -9 722 -55 668 -55 c 2
 0 -55 l 2
 -54 -55 -100 -9 -100 45 c 0
EndSplineSet
Colour: ffff
EndChar

StartChar: uni0660
Encoding: 1632 1632 275
Width: 737
VWidth: 2694
Flags: HMW
LayerCount: 2
Fore
SplineSet
78 475 m 0
 78 644 230 762 392 762 c 0
 549 762 660 634 660 484 c 0
 660 329 546 178 380 178 c 0
 215 178 78 314 78 475 c 0
242 475 m 0
 242 408 305 342 380 342 c 0
 434 342 494 401 494 484 c 0
 494 554 451 596 392 596 c 0
 302 596 242 534 242 475 c 0
EndSplineSet
PairPos2: "'kern' Horizontal Kerning in Arabic lookup 3 per glyph data 0" uni0667 dx=-89 dy=0 dh=-89 dv=0 dx=0 dy=0 dh=0 dv=0
PairPos2: "'kern' Horizontal Kerning in Arabic lookup 3 per glyph data 0" uni0666 dx=-89 dy=0 dh=-89 dv=0 dx=0 dy=0 dh=0 dv=0
PairPos2: "'kern' Horizontal Kerning in Arabic lookup 3 per glyph data 0" uni0662 dx=-111 dy=0 dh=-111 dv=0 dx=0 dy=0 dh=0 dv=0
Colour: ff
EndChar

StartChar: uni0661
Encoding: 1633 1633 276
Width: 540
VWidth: 1823
Flags: HMW
LayerCount: 2
Fore
SplineSet
60 1360 m 0
 60 1410 99 1461 159 1461 c 0
 201 1461 241 1434 255 1393 c 0
 404 959 480 494 480 0 c 0
 480 -54 434 -100 380 -100 c 0
 326 -100 280 -54 280 -0 c 0
 280 474 206 917 65 1329 c 0
 61 1339 60 1349 60 1360 c 0
EndSplineSet
Colour: ffff
EndChar

StartChar: uni0662
Encoding: 1634 1634 277
Width: 1007
VWidth: 1823
Flags: HMW
LayerCount: 2
Fore
SplineSet
743 1316 m 0
 743 1368 785 1416 843 1416 c 0
 892 1416 935 1379 942 1329 c 0
 947 1294 947 1263 947 1235 c 2
 947 1225 l 2
 947 1033 893 687 584 687 c 0
 548 687 512 694 480 706 c 1
 529 510 563 303 563 98 c 2
 563 92 l 2
 563 61 563 28 561 -6 c 0
 558 -58 513 -100 461 -100 c 0
 405 -100 361 -53 361 0 c 0
 361 30 363 64 363 98 c 0
 363 452 245 846 128 1135 c 0
 104 1189 83 1239 67 1278 c 0
 62 1290 60 1303 60 1315 c 0
 60 1364 98 1416 158 1416 c 0
 198 1416 236 1391 251 1357 c 0
 271 1312 292 1264 312 1214 c 0
 360 1109 476 887 584 887 c 0
 683 887 747 1019 747 1225 c 0
 747 1261 743 1288 743 1316 c 0
EndSplineSet
Colour: ffff
EndChar

StartChar: uni0663
Encoding: 1635 1635 278
Width: 1280
VWidth: 2315
Flags: HMW
LayerCount: 2
Fore
SplineSet
991 1315 m 0
 991 1365 1030 1416 1090 1416 c 0
 1134 1416 1176 1386 1188 1341 c 0
 1217 1228 1220 1128 1220 1087 c 0
 1220 948 1185 675 934 668 c 0
 839 668 772 725 734 784 c 1
 683 715 603 668 504 668 c 2
 487 668 l 1
 533 487 563 299 563 110 c 0
 563 75 562 30 561 -3 c 0
 560 -57 514 -100 461 -100 c 0
 406 -100 361 -54 361 0 c 0
 361 33 363 78 363 110 c 0
 363 519 203 939 68 1250 c 0
 63 1262 60 1276 60 1289 c 0
 60 1339 100 1390 159 1390 c 0
 197 1390 235 1368 251 1331 c 0
 300 1221 324 1160 361 1063 c 0
 392 983 419 927 441 900 c 0
 463 873 473 868 504 868 c 0
 581 868 626 973 626 1183 c 0
 626 1221 622 1258 615 1298 c 0
 614 1303 613 1309 613 1315 c 0
 613 1364 651 1416 712 1416 c 0
 758 1416 801 1383 811 1336 c 0
 818 1300 823 1259 828 1213 c 0
 852 997 903 869 932 868 c 0
 974 870 1020 935 1020 1087 c 0
 1020 1118 1017 1204 994 1291 c 0
 992 1299 991 1307 991 1315 c 0
EndSplineSet
Colour: ffff
EndChar

StartChar: uni0664
Encoding: 1636 1636 279
Width: 1077
VWidth: 2315
Flags: HMW
LayerCount: 2
Fore
SplineSet
916 210 m 0
 966 210 1017 171 1017 111 c 0
 1017 72 995 34 957 18 c 0
 845 -30 724 -55 602 -55 c 0
 417 -55 60 -1 60 305 c 0
 60 471 186 568 254 620 c 0
 292 648 363 710 387 748 c 1
 364 773 306 811 271 832 c 0
 208 869 84 953 84 1105 c 0
 84 1409 467 1482 650 1482 c 0
 704 1482 750 1436 750 1382 c 0
 750 1328 704 1282 650 1282 c 0
 459 1282 284 1189 284 1105 c 0
 284 1079 320 1035 373 1004 c 0
 415 979 593 906 593 752 c 0
 593 603 426 498 376 460 c 0
 305 406 260 357 260 305 c 0
 260 215 401 145 602 145 c 0
 696 145 790 164 878 202 c 0
 891 207 903 210 916 210 c 0
EndSplineSet
Colour: ffff
EndChar

StartChar: uni0665
Encoding: 1637 1637 280
Width: 1150
VWidth: 2370
Flags: HMW
LayerCount: 2
Fore
SplineSet
585 946 m 1
 427 795 260 570 260 398 c 0
 260 250 369 145 583 145 c 0
 785 145 890 236 890 382 c 0
 890 548 759 762 585 946 c 1
212 1317 m 0
 212 1374 261 1416 313 1416 c 0
 333 1416 353 1409 370 1397 c 0
 440 1347 521 1283 601 1210 c 1
 608 1212 616 1213 623 1213 c 0
 676 1213 723 1169 723 1112 c 0
 723 1105 722 1099 721 1093 c 1
 909 896 1090 645 1090 382 c 0
 1090 96 849 -55 583 -55 c 0
 297 -55 60 114 60 398 c 0
 60 674 276 926 441 1085 c 1
 375 1143 310 1195 254 1235 c 0
 227 1254 212 1285 212 1317 c 0
EndSplineSet
PairPos2: "'kern' Horizontal Kerning in Arabic lookup 3 per glyph data 0" uni0667 dx=-89 dy=0 dh=-89 dv=0 dx=0 dy=0 dh=0 dv=0
PairPos2: "'kern' Horizontal Kerning in Arabic lookup 3 per glyph data 0" uni0666 dx=-45 dy=0 dh=-45 dv=0 dx=0 dy=0 dh=0 dv=0
Colour: ffff
EndChar

StartChar: uni0666
Encoding: 1638 1638 281
Width: 1116
VWidth: 2315
Flags: HMW
LayerCount: 2
Fore
SplineSet
160 1196 m 0
 109 1196 60 1237 60 1296 c 0
 60 1344 96 1387 144 1395 c 0
 234 1410 323 1416 412 1416 c 0
 673 1416 902 1316 902 996 c 0
 902 558 924 306 1047 42 c 0
 1053 29 1056 15 1056 1 c 0
 1056 -49 1017 -100 957 -100 c 0
 919 -100 882 -78 865 -42 c 0
 723 262 702 554 702 996 c 0
 702 1178 633 1216 412 1216 c 0
 333 1216 254 1210 176 1197 c 0
 171 1196 165 1196 160 1196 c 0
EndSplineSet
PairPos2: "'kern' Horizontal Kerning in Arabic lookup 3 per glyph data 0" uni0660 dx=-89 dy=0 dh=-89 dv=0 dx=0 dy=0 dh=0 dv=0
PairPos2: "'kern' Horizontal Kerning in Arabic lookup 3 per glyph data 0" uni066B dx=-134 dy=0 dh=-134 dv=0 dx=0 dy=0 dh=0 dv=0
PairPos2: "'kern' Horizontal Kerning in Arabic lookup 3 per glyph data 0" uni0668 dx=-89 dy=0 dh=-89 dv=0 dx=0 dy=0 dh=0 dv=0
Colour: ffff
EndChar

StartChar: uni0667
Encoding: 1639 1639 282
Width: 1188
VWidth: 2370
Flags: HMW
LayerCount: 2
Fore
SplineSet
60 1315 m 0
 60 1365 100 1416 159 1416 c 0
 194 1416 229 1397 247 1365 c 0
 387 1117 517 849 606 547 c 1
 684 860 797 1142 941 1396 c 0
 959 1428 994 1447 1029 1447 c 0
 1088 1447 1128 1396 1128 1346 c 0
 1128 1329 1124 1313 1115 1298 c 0
 907 930 763 493 711 -10 c 0
 706 -57 667 -100 612 -100 c 0
 562 -100 518 -61 513 -10 c 0
 462 488 285 893 73 1267 c 0
 64 1282 60 1298 60 1315 c 0
EndSplineSet
PairPos2: "'kern' Horizontal Kerning in Arabic lookup 3 per glyph data 0" uni0660 dx=-89 dy=0 dh=-89 dv=0 dx=0 dy=0 dh=0 dv=0
PairPos2: "'kern' Horizontal Kerning in Arabic lookup 3 per glyph data 0" uni0665 dx=-89 dy=0 dh=-89 dv=0 dx=0 dy=0 dh=0 dv=0
PairPos2: "'kern' Horizontal Kerning in Arabic lookup 3 per glyph data 0" uni0668 dx=-134 dy=0 dh=-134 dv=0 dx=0 dy=0 dh=0 dv=0
PairPos2: "'kern' Horizontal Kerning in Arabic lookup 3 per glyph data 0" uni066B dx=-1002 dy=0 dh=-111 dv=0 dx=0 dy=0 dh=0 dv=0
Colour: ffff
EndChar

StartChar: uni0668
Encoding: 1640 1640 283
Width: 1198
VWidth: 1823
Flags: HMW
LayerCount: 2
Fore
SplineSet
1138 12 m 0
 1138 -38 1098 -89 1039 -89 c 0
 1004 -89 969 -70 951 -38 c 0
 808 215 680 502 594 816 c 1
 511 505 390 228 247 -24 c 0
 229 -56 194 -75 159 -75 c 0
 100 -75 60 -24 60 26 c 0
 60 43 64 59 73 74 c 0
 282 444 443 870 494 1371 c 0
 499 1418 538 1461 593 1461 c 0
 643 1461 687 1422 692 1371 c 0
 743 872 915 431 1125 60 c 0
 1134 45 1138 29 1138 12 c 0
EndSplineSet
PairPos2: "'kern' Horizontal Kerning in Arabic lookup 3 per glyph data 0" uni0663 dx=-89 dy=0 dh=-89 dv=0 dx=0 dy=0 dh=0 dv=0
PairPos2: "'kern' Horizontal Kerning in Arabic lookup 3 per glyph data 0" uni0662 dx=-89 dy=0 dh=-89 dv=0 dx=0 dy=0 dh=0 dv=0
PairPos2: "'kern' Horizontal Kerning in Arabic lookup 3 per glyph data 0" uni0667 dx=-134 dy=0 dh=-134 dv=0 dx=0 dy=0 dh=0 dv=0
Colour: ffff
EndChar

StartChar: uni0669
Encoding: 1641 1641 284
Width: 1045
VWidth: 2315
Flags: HMW
LayerCount: 2
Fore
SplineSet
625 822 m 1
 614 1076 579 1216 450 1216 c 0
 357 1216 260 1099 260 956 c 0
 260 858 328 810 495 810 c 0
 525 810 575 815 625 822 c 1
985 1 m 0
 985 -49 946 -100 886 -100 c 0
 846 -100 807 -75 792 -36 c 0
 721 147 665 402 640 622 c 1
 589 615 538 610 495 610 c 0
 302 610 60 690 60 956 c 0
 60 1161 197 1416 450 1416 c 0
 792 1416 816 1041 825 839 c 1
 855 823 878 794 878 752 c 0
 878 720 862 688 836 669 c 1
 858 461 914 201 978 36 c 0
 982 24 985 13 985 1 c 0
EndSplineSet
PairPos2: "'kern' Horizontal Kerning in Arabic lookup 3 per glyph data 0" uni066B dx=-67 dy=0 dh=-67 dv=0 dx=0 dy=0 dh=0 dv=0
PairPos2: "'kern' Horizontal Kerning in Arabic lookup 3 per glyph data 0" uni0668 dx=-134 dy=0 dh=-134 dv=0 dx=0 dy=0 dh=0 dv=0
PairPos2: "'kern' Horizontal Kerning in Arabic lookup 3 per glyph data 0" uni0665 dx=-45 dy=0 dh=-45 dv=0 dx=0 dy=0 dh=0 dv=0
Colour: ffff
EndChar

StartChar: uni06F4
Encoding: 1780 1780 290
Width: 1026
VWidth: 2370
Flags: HMW
LayerCount: 2
Fore
SplineSet
60 1293 m 0
 60 1343 100 1394 159 1394 c 0
 198 1394 236 1372 252 1334 c 0
 270.220263303 1291.92298906 286.653573991 1254.38208861 302.013900164 1220.7241417 c 1
 358.229633556 1390.62957276 520.658196522 1504 709 1504 c 0
 799 1504 960 1475 960 1368 c 0
 960 1309 909 1269 859 1269 c 0
 843 1269 828 1273 813 1281 c 0
 783 1297 750 1304 709 1304 c 0
 575 1304 481 1213 481 1088 c 0
 481 1004 527 941 584 910 c 0
 589.222256436 907.15149649 594.093909132 903.852216743 598.595142619 900.17745908 c 0
 621.377968728 891.1736533 646.36674418 882.248226958 674 873 c 0
 736 852 800 841 866 841 c 0
 920 841 966 795 966 741 c 0
 966 687 920 641 866 641 c 0
 702 641 533 701 425 763 c 1
 463 564 483 353 483 126 c 0
 483 96 482 27 481 -3 c 0
 479 -56 434 -100 381 -100 c 0
 325 -100 281 -54 281 0 c 0
 281 27 283 98 283 126 c 0
 283 565 204 939 68 1254 c 0
 63 1267 60 1280 60 1293 c 0
EndSplineSet
PairPos2: "'kern' Horizontal Kerning in Arabic lookup 3 per glyph data 1" uni06F0 dx=-22 dy=0 dh=-22 dv=0 dx=0 dy=0 dh=0 dv=0
PairPos2: "'kern' Horizontal Kerning in Arabic lookup 3 per glyph data 1" uni06F8 dx=-111 dy=0 dh=-111 dv=0 dx=0 dy=0 dh=0 dv=0
Colour: ffff
EndChar

StartChar: uni06F5
Encoding: 1781 1781 291
Width: 1155
VWidth: 2370
Flags: HMW
LayerCount: 2
Fore
SplineSet
603 928 m 1
 428 767 260 535 260 317 c 0
 260 140 340 103 378 103 c 0
 407 103 449 119 488 179 c 0
 505 205 538 225 572 225 c 0
 601 225 630 212 650 188 c 0
 701 125 756 101 772 101 c 0
 808 101 895 159 895 342 c 0
 895 511 767 731 603 928 c 1
252 1338 m 0
 252 1393 298 1438 352 1438 c 0
 377 1438 403 1429 422 1410 c 0
 482 1352 554 1280 629 1200 c 1
 639 1203 649 1205 659 1205 c 0
 712 1205 760 1163 760 1105 c 0
 760 1091 757 1076 751 1063 c 1
 925 855 1095 602 1095 342 c 0
 1095 117 980 -99 772 -99 c 0
 696 -99 631 -64 577 -21 c 1
 518 -71 449 -97 378 -97 c 0
 190 -97 60 80 60 317 c 0
 60 631 279 902 470 1077 c 1
 403 1148 337 1212 282 1266 c 0
 262 1285 252 1312 252 1338 c 0
EndSplineSet
PairPos2: "'kern' Horizontal Kerning in Arabic lookup 3 per glyph data 1" uni06F2 dx=-22 dy=0 dh=-22 dv=0 dx=0 dy=0 dh=0 dv=0
PairPos2: "'kern' Horizontal Kerning in Arabic lookup 3 per glyph data 1" uni06F3 dx=-22 dy=0 dh=-22 dv=0 dx=0 dy=0 dh=0 dv=0
PairPos2: "'kern' Horizontal Kerning in Arabic lookup 3 per glyph data 1" uni06F7 dx=-89 dy=0 dh=-89 dv=0 dx=0 dy=0 dh=0 dv=0
PairPos2: "'kern' Horizontal Kerning in Arabic lookup 3 per glyph data 1" uni06F9 dx=-67 dy=0 dh=-67 dv=0 dx=0 dy=0 dh=0 dv=0
Colour: ffff
EndChar

StartChar: uni06F6
Encoding: 1782 1782 292
Width: 992
VWidth: 2370
Flags: HMW
LayerCount: 2
Fore
SplineSet
782 1287 m 0
 782 1227 731 1188 681 1188 c 0
 668 1188 655 1191 643 1196 c 0
 608 1211 575 1217 543 1217 c 0
 411 1217 293 1101 293 950 c 0
 293 840 384 768 542 768 c 0
 633 768 711 791 793 825 c 0
 805 830 818 833 831 833 c 0
 880 833 932 795 932 735 c 0
 932 694 905 657 876 643 c 0
 592 502 354 270 255 -31 c 0
 241 -73 201 -100 159 -100 c 0
 99 -100 60 -49 60 1 c 0
 60 11 62 21 65 31 c 0
 136 249 266 432 428 579 c 1
 256 613 93 737 93 950 c 0
 93 1205 293 1417 543 1417 c 0
 601 1417 662 1405 721 1380 c 0
 759 1364 782 1326 782 1287 c 0
EndSplineSet
Colour: ffff
EndChar

StartChar: uni066B
Encoding: 1643 1643 296
Width: 449
VWidth: 1823
Flags: HMW
LayerCount: 2
Fore
SplineSet
355 604 m 0
 415 604 454 553 454 503 c 0
 454 490 451 477 446 464 c 2
 64 -423 l 2
 48 -460 10 -483 -29 -483 c 0
 -89 -483 -128 -432 -128 -382 c 0
 -128 -369 -125 -356 -120 -343 c 2
 262 544 l 2
 278 581 316 604 355 604 c 0
EndSplineSet
PairPos2: "'kern' Horizontal Kerning in Arabic lookup 3 per glyph data 1" uni06F7 dx=-89 dy=0 dh=-89 dv=0 dx=0 dy=0 dh=0 dv=0
PairPos2: "'kern' Horizontal Kerning in Arabic lookup 3 per glyph data 1" uni06F0 dx=-45 dy=0 dh=-45 dv=0 dx=0 dy=0 dh=0 dv=0
PairPos2: "'kern' Horizontal Kerning in Arabic lookup 3 per glyph data 1" uni06F3 dx=-67 dy=0 dh=-67 dv=0 dx=0 dy=0 dh=0 dv=0
PairPos2: "'kern' Horizontal Kerning in Arabic lookup 3 per glyph data 1" uni06F2 dx=-89 dy=0 dh=-89 dv=0 dx=0 dy=0 dh=0 dv=0
PairPos2: "'kern' Horizontal Kerning in Arabic lookup 3 per glyph data 0" uni0663 dx=-134 dy=0 dh=-134 dv=0 dx=0 dy=0 dh=0 dv=0
PairPos2: "'kern' Horizontal Kerning in Arabic lookup 3 per glyph data 0" uni0662 dx=-89 dy=0 dh=-89 dv=0 dx=0 dy=0 dh=0 dv=0
PairPos2: "'kern' Horizontal Kerning in Arabic lookup 3 per glyph data 1" uni066B dx=-45 dy=0 dh=-45 dv=0 dx=0 dy=0 dh=0 dv=0
PairPos2: "'kern' Horizontal Kerning in Arabic lookup 3 per glyph data 0" uni0667 dx=-89 dy=0 dh=-89 dv=0 dx=0 dy=0 dh=0 dv=0
Colour: ffff
EndChar

StartChar: uni060C
Encoding: 1548 1548 298
Width: 633
VWidth: 1839
Flags: HMW
LayerCount: 2
Fore
SplineSet
232 245 m 1
 232 241 l 2
 232 140 272 110 333 110 c 0
 361 110 387 134 387 196 c 0
 387 256 350 292 321 292 c 0
 310 292 292 284 291 282 c 0
 280 260 257 245 232 245 c 1
324 700 m 0
 359 700 389 670 389 635 c 0
 389 619 383 602 371 590 c 0
 325 542 286 480 262 412 c 1
 282 419 302 422 321 422 c 0
 452 422 517 296 517 196 c 0
 517 104 465 -20 333 -20 c 0
 192 -20 102 90 102 241 c 0
 102 278 105 315 112 352 c 0
 135 476 193 593 277 680 c 0
 290 693 307 700 324 700 c 0
EndSplineSet
Colour: ffff00
EndChar

StartChar: quoteleft
Encoding: 8216 8216 300
Width: 632
VWidth: 1424
Flags: HMW
LayerCount: 2
Fore
SplineSet
250 1147 m 1
 349 1167 389 1216 389 1263 c 0
 389 1332 366 1349 333 1349 c 0
 262 1349 242 1318 242 1229 c 0
 242 1204 245 1176 250 1147 c 1
393 772 m 0
 393 737 364 707 328 707 c 0
 310 707 293 714 280 728 c 0
 215 800 112 1044 112 1229 c 0
 112 1348 170 1479 333 1479 c 0
 462 1479 519 1366 519 1263 c 0
 519 1128 403 1048 281 1021 c 1
 314 921 364 830 376 816 c 0
 387 804 393 788 393 772 c 0
EndSplineSet
Colour: ffff00
EndChar

StartChar: uni061F
Encoding: 1567 1567 311
Width: 900
VWidth: 0
Flags: HMW
LayerCount: 2
Fore
SplineSet
759 840 m 0
 700 840 659 889 659 940 c 0
 659 967 667 998 667 1020 c 0
 667 1146 577 1216 473 1216 c 0
 356 1216 234 1139 234 955 c 0
 234 858 287 802 379 725 c 0
 470 648 587 541 587 366 c 0
 587 312 542 266 487 266 c 0
 433 266 387 312 387 366 c 0
 387 443 343 493 251 571 c 0
 159 648 34 762 34 955 c 0
 34 1253 258 1416 473 1416 c 0
 675 1416 867 1264 867 1020 c 0
 867 986 863 954 857 922 c 0
 848 874 806 840 759 840 c 0
331 89 m 0
 331 166 392 234 475 234 c 0
 555 234 620 169 620 89 c 0
 620 7 552 -55 475 -55 c 0
 396 -55 331 9 331 89 c 0
EndSplineSet
Colour: ffff
EndChar

StartChar: section
Encoding: 167 167 313
Width: 920
VWidth: 2426
Flags: HMW
LayerCount: 2
Fore
SplineSet
443 596 m 1
 613 596 665 629 665 655 c 0
 665 674 594 748 459 772 c 1
 316 770 262 728 257 692 c 1
 259 651 309 611 443 596 c 1
860 1130 m 0
 860 1079 821 1029 761 1029 c 0
 715 1029 672 1062 662 1108 c 0
 648 1170 581 1216 472 1216 c 0
 344 1216 265 1152 259 1100 c 1
 261 1013 314 999 485 971 c 0
 628 948 865 864 865 655 c 0
 865 555 819 494 756 456 c 1
 820 394 866 312 866 209 c 0
 866 -47 574 -55 457 -55 c 0
 302 -55 178 3 88 75 c 0
 63 95 50 123 50 153 c 0
 50 210 98 253 150 253 c 0
 172 253 194 245 212 231 c 0
 275 181 352 145 457 145 c 0
 620 145 666 177 666 209 c 0
 666 288 550 381 441 396 c 0
 435 396 430 397 424 398 c 0
 292 412 57 465 57 696 c 2
 57 704 l 1
 64 786 99 844 149 884 c 1
 96 932 59 1001 59 1104 c 2
 59 1112 l 1
 77 1330 302 1416 472 1416 c 0
 627 1416 816 1344 858 1150 c 0
 860 1143 860 1137 860 1130 c 0
EndSplineSet
Colour: ffff
EndChar

StartChar: uni00B2
Encoding: 178 178 314
Width: 625
VWidth: 2426
Flags: HMW
LayerCount: 2
Fore
SplineSet
134 1233 m 0
 99 1233 69 1263 69 1298 c 0
 69 1420 155 1542 297 1542 c 0
 422 1542 507 1442 507 1327 c 0
 507 1184 422 1102 337 1020 c 2
 311 995 l 1
 488 1005 l 2
 489 1005 491 1005 492 1005 c 0
 527 1005 557 977 557 940 c 0
 557 906 530 877 496 875 c 2
 145 856 l 2
 144 856 142 856 141 856 c 0
 105 856 76 886 76 921 c 0
 76 938 83 955 96 968 c 2
 247 1114 l 2
 336 1200 377 1242 377 1327 c 0
 377 1380 346 1412 297 1412 c 0
 241 1412 199 1366 199 1298 c 0
 199 1263 169 1233 134 1233 c 0
EndSplineSet
Colour: ffff00
EndChar

StartChar: uni00B3
Encoding: 179 179 315
Width: 573
VWidth: 2426
Flags: HMW
LayerCount: 2
Fore
SplineSet
176 1283 m 0
 137 1283 111 1315 111 1348 c 0
 111 1353 112 1357 113 1362 c 0
 131 1446 204 1524 310 1524 c 0
 420 1524 500 1429 500 1326 c 0
 500 1279 479 1238 451 1209 c 1
 489 1179 514 1133 516 1077 c 0
 516 934 397 855 277 855 c 0
 217 855 155 873 106 913 c 0
 90 926 82 945 82 964 c 0
 82 1001 113 1029 147 1029 c 0
 161 1029 176 1025 188 1015 c 0
 211 997 245 985 277 985 c 0
 345 985 385 1022 386 1075 c 0
 384 1105 359 1124 310 1124 c 0
 282 1124 252 1112 225 1112 c 0
 192 1112 160 1139 160 1177 c 0
 160 1221 195 1238 234 1246 c 0
 260 1252 287 1260 309 1269 c 0
 359 1290 370 1310 370 1326 c 0
 370 1365 340 1394 310 1394 c 0
 274 1394 247 1368 239 1334 c 0
 232 1304 206 1283 176 1283 c 0
EndSplineSet
Colour: ffff00
EndChar

StartChar: eth
Encoding: 240 240 316
Width: 1089
VWidth: 2426
Flags: HMW
LayerCount: 2
Fore
SplineSet
157 1421 m 0
 157 1481 208 1520 258 1520 c 0
 270 1520 282 1517 293 1513 c 0
 394 1474 483 1427 560 1375 c 1
 655 1433 746 1480 811 1501 c 0
 821 1504 831 1506 841 1506 c 0
 891 1506 942 1467 942 1407 c 0
 942 1365 915 1325 873 1311 c 0
 842 1301 789 1274 728 1238 c 1
 961 1006 1039 720 1039 525 c 0
 1039 148 802 -55 523 -55 c 0
 262 -55 50 150 50 427 c 0
 50 711 266 954 565 954 c 0
 619 954 665 908 665 854 c 0
 665 800 619 754 565 754 c 0
 383 754 250 611 250 427 c 0
 250 258 370 145 523 145 c 0
 694 145 839 242 839 525 c 0
 839 682 773 930 554 1127 c 1
 443 1053 340 975 302 933 c 0
 283 911 255 900 228 900 c 0
 173 900 128 947 128 1000 c 0
 128 1024 137 1048 154 1067 c 0
 201 1119 284 1187 377 1254 c 1
 330 1281 278 1305 221 1327 c 0
 182 1342 157 1381 157 1421 c 0
EndSplineSet
Colour: ffff
EndChar

StartChar: uni06DD
Encoding: 1757 1757 327
Width: 2048
VWidth: 0
LayerCount: 2
Back
SplineSet
236 -240 m 0
 1971 -240 l 1032
933 -410 m 0
 933 -316 1009 -240 1103 -240 c 0
 1197 -240 1273 -316 1273 -410 c 0
 1273 -504 1197 -580 1103 -580 c 0
 1009 -580 933 -504 933 -410 c 0
1103 -580 m 1024
427 -580 m 0
 1779 -580 l 1024
933 -750 m 0
 933 -656 1009 -580 1103 -580 c 0
 1197 -580 1273 -656 1273 -750 c 0
 1273 -844 1197 -920 1103 -920 c 0
 1009 -920 933 -844 933 -750 c 0
156 213 m 0
 156 838 580 1346 1103 1346 c 0
 1626 1346 2050 838 2050 213 c 0
 2050 -412 1626 -920 1103 -920 c 0
 580 -920 156 -412 156 213 c 0
EndSplineSet
EndChar

StartChar: uni06DE
Encoding: 1758 1758 328
Width: 2048
VWidth: 0
LayerCount: 2
Back
SplineSet
888 716 m 4
 888 860 1004 976 1148 976 c 4
 1292 976 1408 860 1408 716 c 4
 1408 572 1292 456 1148 456 c 4
 1004 456 888 572 888 716 c 4
1136 1694 m 5
 2134 696 l 5
 1144 -294 l 5
 146 704 l 5
 1136 1694 l 5
434 1400 m 5
 1846 1400 l 5
 1846 0 l 5
 434 0 l 5
 434 1400 l 5
EndSplineSet
EndChar

StartChar: uniE008
Encoding: 57352 57352 329
Width: 214
VWidth: 1437
Flags: HMW
LayerCount: 2
Fore
SplineSet
-100 45 m 0
 -100 99 -54 145 0 145 c 2
 214 145 l 2
 268 145 314 99 314 45 c 0
 314 -9 268 -55 214 -55 c 2
 0 -55 l 2
 -54 -55 -100 -9 -100 45 c 0
EndSplineSet
Colour: ffff
EndChar

StartChar: uniE009
Encoding: 57353 57353 330
Width: 107
VWidth: 1437
Flags: HMW
LayerCount: 2
Fore
SplineSet
-100 45 m 0
 -100 99 -54 145 0 145 c 2
 107 145 l 2
 161 145 207 99 207 45 c 0
 207 -9 161 -55 107 -55 c 2
 0 -55 l 2
 -54 -55 -100 -9 -100 45 c 0
EndSplineSet
Colour: ffff
EndChar

StartChar: underscore
Encoding: 95 95 331
Width: 667
VWidth: 1823
Flags: HMW
LayerCount: 2
Fore
SplineSet
768 45 m 0
 768 -9 722 -55 668 -55 c 2
 0 -55 l 2
 -54 -55 -100 -9 -100 45 c 0
 -100 99 -54 145 0 145 c 2
 668 145 l 2
 722 145 768 99 768 45 c 0
EndSplineSet
Colour: ffff
EndChar

StartChar: seven
Encoding: 55 55 332
Width: 1080
VWidth: 2426
Flags: HMW
LayerCount: 2
Fore
SplineSet
160 1165 m 2
 107 1165 60 1208 60 1265 c 0
 60 1316 100 1361 152 1365 c 2
 780 1415 l 2
 804 1419 823 1420 843 1420 c 0
 876 1420 928 1419 974 1376 c 0
 1005 1347 1020 1303 1020 1265 c 0
 1020 1229 1011 1193 994 1159 c 0
 817 804 714 432 641 -16 c 0
 633 -65 590 -100 542 -100 c 0
 483 -100 442 -51 442 0 c 0
 442 5 442 11 443 16 c 0
 516 463 621 847 800 1216 c 1
 168 1165 l 1
 160 1165 l 2
EndSplineSet
Colour: ffff
EndChar

StartChar: nine
Encoding: 57 57 333
Width: 1112
VWidth: 2426
Flags: HMW
LayerCount: 2
Fore
SplineSet
644 553 m 0
 694 553 745 512 745 455 c 0
 745 444 744 433 740 421 c 1
 808 557 852 719 852 872 c 0
 852 1116 699 1216 552 1216 c 0
 393 1216 260 1042 260 848 c 0
 260 678 341 543 547 543 c 0
 582 543 615 553 644 553 c 0
725 394 m 1
 693 350 620 343 547 343 c 0
 211 343 60 604 60 848 c 0
 60 1110 241 1416 552 1416 c 0
 803 1416 1052 1222 1052 872 c 0
 1052 483 807 -100 381 -100 c 0
 327 -100 281 -54 281 0 c 0
 281 54 327 100 381 100 c 0
 504 100 633 223 725 394 c 1
EndSplineSet
Colour: ffff
EndChar

StartChar: uniFD3E
Encoding: 64830 64830 334
Width: 866
VWidth: 0
Flags: HMW
LayerCount: 2
Fore
SplineSet
569 1518 m 0
 629 1518 668 1467 668 1417 c 0
 668 1402 665 1388 658 1374 c 0
 590.803489371 1237.09495965 544.904038415 1092.30211943 520.053968333 944.822734088 c 1
 554.166269372 956.616499234 590.846576906 963 629 963 c 0
 735 963 816 877 816 774 c 0
 816 687 745 641 703 624 c 1
 722 595 734 562 734 524 c 0
 734 368 567 367 554 367 c 0
 546.282376266 367 538.564752532 367.377484846 530.891403662 368.123599566 c 1
 557.417226539 237.718875364 599.896557237 106.39946827 658 -12 c 0
 665 -26 668 -40 668 -55 c 0
 668 -105 629 -156 569 -156 c 0
 532 -156 495 -135 478 -100 c 0
 408.42444567 41.4322743756 359.663759431 194.898144366 330.605078076 346.672297095 c 1
 301.371757898 335.776050514 269.701597745 330 237 330 c 0
 160 330 90 394 90 476 c 0
 90 538 111 596 146 640 c 1
 95 676 50 739 50 819 c 0
 50 957 189 979 234 979 c 0
 264.81677033 979 293.852903159 973.658087499 320.365319885 964.231780133 c 1
 347.60725062 1135.19807502 399.883065199 1303.18375239 478 1462 c 0
 495 1497 532 1518 569 1518 c 0
EndSplineSet
Colour: ffff
EndChar

StartChar: uniFD3F
Encoding: 64831 64831 335
Width: 861
VWidth: 0
Flags: HMW
LayerCount: 2
Fore
SplineSet
190 1417 m 0
 190 1467 229 1518 289 1518 c 0
 326 1518 363 1497 380 1462 c 0
 460.673145069 1297.98682903 513.786308389 1124.1943097 540.228593028 947.438898867 c 1
 568.049353426 957.428317281 598.328216373 963 630 963 c 0
 703 963 811 912 811 792 c 0
 811 721 773 662 725 628 c 1
 751 590 767 542 767 493 c 0
 767 362 641 331 593 331 c 0
 570.361463808 331 548.353895078 334.47032104 527.603792921 340.78446401 c 1
 498.432280396 189.510515813 449.419856538 41.1345843663 380 -100 c 0
 363 -135 326 -156 289 -156 c 0
 229 -156 190 -105 190 -55 c 0
 190 -40 193 -26 200 -12 c 0
 255.698269129 101.478716543 296.76433912 220.376766101 323.339260191 341.732094073 c 1
 317.26456397 341.246949371 311.146808419 341 305 341 c 0
 222 341 130 411 130 526 c 0
 130 563 141 599 160 628 c 1
 115 649 50 697 50 781 c 0
 50 895 145 974 247 974 c 0
 278.074292911 974 307.676841148 969.143242579 335.243034527 960.389565054 c 1
 309.837572218 1102.487869 264.830703617 1241.91501506 200 1374 c 0
 193 1388 190 1402 190 1417 c 0
EndSplineSet
Colour: ffff
EndChar

StartChar: dollar
Encoding: 36 36 336
Width: 1182
VWidth: 1823
Flags: HMW
LayerCount: 2
Fore
SplineSet
575 1719 m 0
 629 1719 675 1673 675 1619 c 2
 675 -142 l 2
 675 -196 629 -242 575 -242 c 0
 521 -242 475 -196 475 -142 c 2
 475 1619 l 2
 475 1673 521 1719 575 1719 c 0
EndSplineSet
Refer: 31 83 N 1 0 0 1 0 0 2
Colour: ffff
EndChar

StartChar: ampersand
Encoding: 38 38 337
Width: 1194
VWidth: 2426
Flags: HMW
LayerCount: 2
Fore
SplineSet
963 1095 m 0
 963 795 701 698 528 625 c 1
 629 491 763 361 893 261 c 1
 913 279 927 299 937 317 c 0
 955 351 990 370 1026 370 c 0
 1085 370 1125 319 1125 269 c 0
 1125 253 1121 238 1113 223 c 0
 1098 195 1080 169 1059 146 c 1
 1067 141 1076 137 1084 132 c 0
 1116 114 1134 79 1134 44 c 0
 1134 -15 1084 -55 1033 -55 c 0
 1016 -55 999 -51 984 -42 c 0
 952 -24 919 -2 886 20 c 1
 783 -29 665 -55 549 -55 c 0
 322 -55 60 63 60 364 c 0
 60 523 143 633 244 703 c 1
 192 808 157 919 157 1033 c 0
 157 1317 369 1461 569 1461 c 0
 755 1461 963 1335 963 1095 c 0
420 796 m 1
 436 803 453 810 469 817 c 0
 655 896 763 950 763 1095 c 0
 763 1197 679 1261 569 1261 c 0
 461 1261 357 1199 357 1033 c 0
 357 961 379 880 420 796 c 1
348 532 m 1
 290 489 260 446 260 364 c 0
 260 215 370 145 549 145 c 0
 597 145 647 151 695 163 c 1
 569 268 446 395 348 532 c 1
EndSplineSet
Colour: ffff
EndChar

StartChar: question
Encoding: 63 63 338
Width: 954
VWidth: 0
Flags: HMW
LayerCount: 2
Fore
SplineSet
595 89 m 0
 595 10 531 -55 451 -55 c 0
 374 -55 306 6 306 89 c 0
 306 169 371 234 451 234 c 0
 533 234 595 166 595 89 c 0
268 939 m 0
 268 888 227 839 168 839 c 0
 121 839 79 873 70 921 c 0
 64 952 60 984 60 1017 c 0
 60 1265 262 1416 465 1416 c 0
 677 1416 894 1256 894 954 c 0
 894 761 769 648 677 571 c 0
 586 494 539 441 539 366 c 0
 539 311 494 266 439 266 c 0
 384 266 339 311 339 366 c 0
 339 543 459 648 547 723 c 0
 639 800 694 857 694 954 c 0
 694 1146 577 1216 465 1216 c 0
 354 1216 260 1143 260 1017 c 0
 260 996 268 965 268 939 c 0
EndSplineSet
Colour: ffff
EndChar

StartChar: at
Encoding: 64 64 339
Width: 2047
VWidth: 2426
Flags: HMW
LayerCount: 2
Fore
SplineSet
1627 -102 m 0
 1680 -102 1727 -146 1727 -202 c 0
 1727 -230 1715 -257 1693 -277 c 0
 1520 -429 1293 -521 1045 -521 c 0
 511 -521 60 -148 60 403 c 0
 60 945 526 1451 1076 1451 c 0
 1567 1451 1987 1066 1987 559 c 0
 1987 342 1880 -53 1564 -53 c 0
 1443 -53 1360 18 1310 110 c 1
 1228 14 1108 -55 938 -55 c 0
 672 -55 485 146 485 402 c 0
 485 788 760 1024 1069 1024 c 0
 1203 1024 1341 981 1464 892 c 0
 1491 873 1506 841 1506 810 c 0
 1506 806 1506 801 1505 797 c 2
 1454 447 l 2
 1453 420 1448 389 1448 362 c 0
 1448 220 1522 147 1564 147 c 0
 1670 147 1787 352 1787 559 c 0
 1787 950 1463 1251 1076 1251 c 0
 648 1251 260 839 260 403 c 0
 260 -24 601 -321 1045 -321 c 0
 1243 -321 1422 -249 1561 -127 c 0
 1580 -111 1603 -102 1627 -102 c 0
1298 762 m 1
 1223 804 1144 824 1069 824 c 0
 866 824 685 682 685 402 c 0
 685 248 782 145 938 145 c 0
 1141 145 1230 299 1255 469 c 2
 1298 762 l 1
EndSplineSet
Colour: ffff
EndChar

StartChar: b
Encoding: 98 98 340
Width: 1123
VWidth: 1823
Flags: HMW
LayerCount: 2
Fore
SplineSet
475 -55 m 0
 397 -55 289 -47 252 6 c 1
 236 -30 200 -55 160 -55 c 0
 105 -55 58 -8 60 48 c 2
 102 1364 l 2
 104 1417 149 1461 202 1461 c 0
 259 1461 304 1413 302 1358 c 2
 289 939 l 1
 369 1021 478 1071 611 1071 c 0
 934 1071 1063 767 1063 495 c 0
 1063 172 801 -55 475 -55 c 0
263 134 m 1
 282 153 309 163 335 163 c 0
 343 163 351 162 359 160 c 0
 396 150 436 145 475 145 c 0
 709 145 863 294 863 495 c 0
 863 731 768 871 611 871 c 0
 347 871 280 522 263 134 c 1
EndSplineSet
Colour: ffff
EndChar

StartChar: d
Encoding: 100 100 341
Width: 1177
VWidth: 2426
Flags: HMW
LayerCount: 2
Fore
SplineSet
1017 -55 m 0
 938 -55 898 33 879 96 c 1
 798 6 679 -55 534 -55 c 0
 237 -55 60 164 60 465 c 0
 60 749 233 1069 567 1069 c 0
 667 1069 769 1032 859 956 c 1
 863 1092 866 1228 870 1364 c 0
 871 1418 917 1461 970 1461 c 0
 1028 1461 1071 1412 1070 1359 c 2
 1051 510 l 1
 1051 205 1065 145 1094 109 c 0
 1109 91 1117 67 1117 45 c 0
 1117 -8 1073 -55 1017 -55 c 0
853 743 m 1
 847 742 841 741 835 741 c 0
 808 741 781 753 762 773 c 0
 694 846 628 869 567 869 c 0
 389 869 260 691 260 465 c 0
 260 244 357 145 534 145 c 0
 741 145 843 346 850 613 c 2
 853 743 l 1
EndSplineSet
Colour: ffff
EndChar

StartChar: h
Encoding: 104 104 342
Width: 1003
VWidth: 2426
Flags: HMW
LayerCount: 2
Fore
SplineSet
250 1471 m 0
 307 1471 350 1424 350 1371 c 2
 350 1364 l 1
 320 908 l 1
 391 999 489 1070 615 1070 c 0
 876 1070 943 805 943 609 c 0
 943 470 921 254 921 119 c 0
 921 71 927 43 928 40 c 0
 933 27 936 14 936 1 c 0
 936 -49 897 -100 837 -100 c 0
 798 -100 760 -77 744 -40 c 0
 721 13 721 65 721 119 c 0
 721 255 743 472 743 609 c 0
 743 799 686 870 615 870 c 0
 435 870 287 389 260 -7 c 0
 256 -58 212 -100 160 -100 c 0
 105 -100 60 -54 60 0 c 2
 60 7 l 1
 150 1378 l 2
 153 1430 198 1471 250 1471 c 0
EndSplineSet
Colour: ffff
EndChar

StartChar: j
Encoding: 106 106 344
Width: 630
VWidth: 2426
Flags: HMW
LayerCount: 2
Fore
SplineSet
311 971 m 0
 311 1025 356 1071 411 1071 c 0
 464 1071 510 1028 511 974 c 0
 514 863 514 698 514 587 c 2
 514 581 l 2
 514 493 516 391 516 286 c 0
 516 -59 490 -443 263 -507 c 0
 245 -512 226 -514 208 -514 c 0
 189 -514 167 -513 142 -508 c 0
 95 -499 60 -457 60 -410 c 0
 60 -351 110 -310 161 -310 c 0
 177 -310 189 -314 208 -314 c 2
 209 -314 l 1
 268 -284 314 143 314 581 c 0
 314 693 311 862 311 971 c 0
EndSplineSet
Refer: 47 46 N 1 0 0 1 186 1286 2
Colour: ffff
EndChar

StartChar: k
Encoding: 107 107 345
Width: 979
VWidth: 2426
Flags: HMW
LayerCount: 2
Fore
SplineSet
220 1461 m 0
 277 1461 322 1412 320 1357 c 2
 291 711 l 1
 431 803 562 919 657 1034 c 0
 677 1058 705 1071 734 1071 c 0
 790 1071 834 1024 834 971 c 0
 834 949 826 926 811 908 c 0
 689 760 527 620 349 511 c 1
 500 354 697 188 870 86 c 0
 901 68 919 34 919 -1 c 0
 919 -60 869 -100 818 -100 c 0
 801 -100 784 -95 768 -86 c 0
 598 14 423 157 273 304 c 1
 260 -0 l 2
 258 -53 213 -96 160 -96 c 0
 103 -96 58 -47 60 8 c 2
 120 1365 l 2
 122 1418 167 1461 220 1461 c 0
EndSplineSet
Colour: ffff
EndChar

StartChar: l
Encoding: 108 108 346
Width: 379
VWidth: 2426
Flags: HMW
LayerCount: 2
Fore
SplineSet
199 1450 m 0
 255 1450 299 1403 299 1350 c 0
 299 1015 280 414 280 18 c 0
 280 12 280 6 280 0 c 0
 280 -54 234 -100 180 -100 c 0
 126 -100 80 -54 80 -0 c 2
 80 19 l 2
 80 414 83 1013 99 1355 c 0
 101 1408 147 1450 199 1450 c 0
EndSplineSet
Colour: ffff
EndChar

StartChar: m
Encoding: 109 109 347
Width: 1482
VWidth: 2426
Flags: HMW
LayerCount: 2
Fore
SplineSet
109 988 m 0
 109 1040 151 1088 209 1088 c 0
 253 1088 293 1057 305 1014 c 1
 359 1051 427 1071 500 1071 c 0
 635 1071 739 1014 792 916 c 1
 852 1004 948 1071 1072 1071 c 0
 1327 1071 1417 845 1417 651 c 0
 1417 511 1402 294 1402 157 c 0
 1402 109 1408 66 1419 26 c 0
 1421 18 1422 9 1422 1 c 0
 1422 -49 1383 -100 1323 -100 c 0
 1279 -100 1238 -70 1226 -26 c 0
 1210 32 1202 93 1202 158 c 0
 1202 298 1217 510 1217 651 c 0
 1217 809 1169 871 1072 871 c 0
 842 871 844 259 821 -9 c 0
 817 -59 772 -100 721 -100 c 0
 666 -100 621 -54 621 0 c 0
 621 52 628 98 631 155 c 0
 638 275 647 430 647 549 c 2
 647 601 l 2
 646 810 636 871 500 871 c 0
 414 871 375 831 341 725 c 0
 321 662 309 582 300 500 c 2
 260 -0 l 2
 256 -52 211 -92 160 -92 c 0
 101 -92 60 -43 60 8 c 2
 60 16 l 1
 93 442 l 2
 104 563 118 686 118 824 c 0
 118 882 115 934 110 975 c 0
 109 979 109 984 109 988 c 0
EndSplineSet
Colour: ffff
EndChar

StartChar: n
Encoding: 110 110 348
Width: 1003
VWidth: 2426
Flags: HMW
LayerCount: 2
Fore
SplineSet
218 1066 m 0
 274 1066 318 1019 318 966 c 0
 318 964 318 962 318 960 c 2
 312 870 l 1
 389 980 497 1070 641 1070 c 0
 910 1070 943 789 943 609 c 0
 943 469 921 253 921 119 c 0
 921 71 927 43 928 40 c 0
 933 27 936 14 936 1 c 0
 936 -49 897 -100 837 -100 c 0
 798 -100 760 -77 744 -40 c 0
 721 13 721 65 721 119 c 0
 721 256 743 473 743 609 c 0
 743 815 704 870 641 870 c 0
 458 870 287 382 260 -7 c 0
 257 -57 213 -100 160 -100 c 0
 105 -100 60 -54 60 0 c 0
 60 2 60 4 60 6 c 2
 118 972 l 2
 121 1024 166 1066 218 1066 c 0
EndSplineSet
Colour: ffff
EndChar

StartChar: p
Encoding: 112 112 349
Width: 1167
VWidth: 2426
Flags: HMW
LayerCount: 2
Fore
SplineSet
159 1071 m 0
 253 1071 280 956 297 876 c 1
 403 1002 540 1071 678 1071 c 0
 921 1071 1107 856 1107 538 c 0
 1107 252 911 -55 416 -55 c 0
 362 -55 316 -9 316 45 c 0
 316 99 362 145 416 145 c 0
 811 145 907 350 907 538 c 0
 907 784 785 871 678 871 c 0
 533 871 325 716 308 287 c 0
 308 274 306 261 305 248 c 2
 273 -438 l 2
 271 -491 225 -533 173 -533 c 0
 117 -533 73 -486 73 -433 c 2
 73 -428 l 1
 105 258 l 2
 110 338 118 550 120 603 c 0
 120 739 101 864 70 927 c 0
 63 941 60 955 60 970 c 0
 60 1020 99 1071 159 1071 c 0
EndSplineSet
Colour: ffff
EndChar

StartChar: q
Encoding: 113 113 350
Width: 1123
VWidth: 2426
Flags: HMW
LayerCount: 2
Fore
SplineSet
850 793 m 1
 833 776 806 764 780 764 c 0
 750 764 722 777 702 802 c 0
 666 848 611 880 532 880 c 0
 365 880 260 713 260 484 c 0
 260 247 331 144 490 144 c 0
 639 144 733 266 793 465 c 0
 826 574 843 677 850 793 c 1
1040 -425 m 0
 1040 -479 996 -525 940 -525 c 0
 887 -525 842 -482 840 -429 c 0
 833 -257 829 -85 829 87 c 2
 829 103 l 1
 749 10 634 -56 490 -56 c 0
 175 -56 60 211 60 484 c 0
 60 751 195 1080 532 1080 c 0
 673 1080 787 1015 859 925 c 1
 860 945 862 965 863 984 c 0
 866 1027 906 1077 963 1077 c 0
 1017 1077 1063 1032 1063 977 c 0
 1063 911 1059 835 1047 725 c 1
 1036 517 1029 304 1029 87 c 0
 1029 -83 1040 -254 1040 -425 c 0
EndSplineSet
Colour: ffff
EndChar

StartChar: r
Encoding: 114 114 351
Width: 865
VWidth: 2426
Flags: HMW
LayerCount: 2
Fore
SplineSet
705 1071 m 0
 756 1071 805 1031 805 972 c 0
 805 925 771 882 724 873 c 0
 488 827 394 696 338 477 c 0
 303 343 290 153 273 -10 c 0
 268 -57 226 -100 174 -100 c 0
 119 -100 74 -54 74 0 c 0
 74 54 83 109 88 162 c 0
 96 277 101 406 101 532 c 0
 101 702 87 865 64 943 c 0
 61 952 60 961 60 970 c 0
 60 1020 99 1071 159 1071 c 0
 266 1071 274 938 286 836 c 1
 376 953 509 1035 686 1069 c 0
 692 1070 699 1071 705 1071 c 0
EndSplineSet
Colour: ffff
EndChar

StartChar: u
Encoding: 117 117 352
Width: 1003
VWidth: 2426
Flags: HMW
LayerCount: 2
Fore
SplineSet
209 1071 m 0
 269 1071 308 1021 308 970 c 0
 308 963 308 957 306 950 c 0
 281 837 260 731 260 584 c 0
 260 304 280 145 450 145 c 0
 556 145 633 250 678 474 c 0
 710 634 713 799 723 976 c 0
 726 1025 768 1071 823 1071 c 0
 877 1071 923 1026 923 971 c 0
 923 922 919 869 916 813 c 0
 914 755 914 697 914 639 c 0
 914 437 924 243 943 58 c 1
 943 48 l 2
 943 -4 901 -52 843 -52 c 0
 793 -52 749 -13 744 38 c 0
 742 56 740 74 738 93 c 1
 673 7 574 -55 450 -55 c 0
 60 -55 60 360 60 584 c 0
 60 751 85 877 110 992 c 0
 120 1038 163 1071 209 1071 c 0
EndSplineSet
Colour: ffff
EndChar

StartChar: asciitilde
Encoding: 126 126 353
Width: 870
VWidth: 2426
Flags: HMW
LayerCount: 2
Fore
SplineSet
115 1052 m 0
 56 1052 15 1101 15 1152 c 0
 15 1157 15 1163 16 1168 c 0
 38 1301 151 1391 279 1391 c 0
 380 1391 455 1346 509 1306 c 0
 550 1276 575 1264 602 1264 c 2
 606 1264 l 2
 616 1264 638 1269 668 1352 c 0
 683 1392 722 1418 763 1418 c 0
 823 1418 862 1367 862 1317 c 0
 862 1306 860 1295 856 1284 c 0
 807 1150 717 1064 602 1064 c 0
 509 1064 440 1108 391 1144 c 0
 347 1176 318 1191 279 1191 c 0
 243 1191 220 1173 214 1136 c 0
 206 1088 163 1052 115 1052 c 0
EndSplineSet
Colour: ffff
EndChar

StartChar: cent
Encoding: 162 162 356
Width: 1031
VWidth: 1823
Flags: HMW
LayerCount: 2
Fore
SplineSet
547 -465 m 0
 493 -465 447 -419 447 -365 c 2
 447 45 l 2
 447 99 493 145 547 145 c 0
 601 145 647 99 647 45 c 2
 647 -365 l 2
 647 -419 601 -465 547 -465 c 0
547 871 m 0
 493 871 447 917 447 971 c 2
 447 1316 l 2
 447 1370 493 1416 547 1416 c 0
 601 1416 647 1370 647 1316 c 2
 647 971 l 2
 647 917 601 871 547 871 c 0
EndSplineSet
Refer: 1 99 N 1 0 0 1 0 0 2
Colour: ffff
EndChar

StartChar: sterling
Encoding: 163 163 357
Width: 1360
VWidth: 2426
Flags: HMW
LayerCount: 2
Fore
SplineSet
294 778 m 0
 312 778 327 772 343 769 c 1
 343 998 l 2
 343 1171 354 1416 565 1416 c 0
 708 1416 770 1282 770 1166 c 0
 770 1112 724 1066 670 1066 c 0
 616 1066 570 1112 570 1166 c 0
 570 1180 569 1192 567 1200 c 1
 551 1155 543 1057 543 939 c 2
 543 753 l 1
 642 755 742 767 824 783 c 0
 830 784 837 785 843 785 c 0
 894 785 943 745 943 686 c 0
 943 639 909 596 862 587 c 0
 768 569 656 554 541 553 c 1
 536 417 521 286 473 176 c 1
 552 158 663 145 772 145 c 0
 996 145 1131 206 1150 304 c 0
 1159 351 1202 385 1249 385 c 0
 1308 385 1348 336 1348 285 c 0
 1348 279 1347 272 1346 266 c 0
 1294 -8 990 -55 772 -55 c 0
 598 -55 446 -28 331 8 c 1
 283 -19 228 -33 169 -33 c 0
 139 -33 110 -28 83 -16 c 0
 46 0 -6 40 -6 110 c 0
 -6 226 113 244 163 244 c 0
 201 244 239 238 277 230 c 1
 316 295 335 420 341 566 c 1
 317 570 292 575 268 581 c 0
 223 592 193 634 193 679 c 0
 193 739 244 778 294 778 c 0
EndSplineSet
Colour: ffff
EndChar

StartChar: currency
Encoding: 164 164 358
Width: 1109
VWidth: 1823
Flags: HMW
LayerCount: 2
Fore
SplineSet
1059 45 m 0
 1059 -8 1015 -55 959 -55 c 0
 931 -55 903 -43 883 -20 c 2
 753 130 l 2
 737 149 729 172 729 195 c 0
 729 248 773 295 829 295 c 0
 857 295 885 283 905 260 c 2
 1035 110 l 2
 1051 91 1059 68 1059 45 c 0
370 834 m 0
 370 781 326 734 270 734 c 0
 242 734 215 746 195 768 c 2
 76 904 l 2
 60 923 51 947 51 970 c 0
 51 1023 95 1070 151 1070 c 0
 179 1070 206 1058 226 1036 c 2
 345 900 l 2
 361 881 370 857 370 834 c 0
959 1070 m 0
 1015 1070 1059 1023 1059 970 c 0
 1059 947 1051 923 1035 904 c 2
 924 776 l 2
 904 753 876 742 848 742 c 0
 792 742 748 789 748 842 c 0
 748 865 756 889 772 908 c 2
 883 1036 l 2
 903 1059 931 1070 959 1070 c 0
258 268 m 0
 314 268 358 221 358 168 c 0
 358 145 349 121 333 102 c 2
 226 -21 l 2
 206 -43 179 -55 151 -55 c 0
 95 -55 51 -8 51 45 c 0
 51 68 60 92 76 111 c 2
 183 234 l 2
 203 256 230 268 258 268 c 0
EndSplineSet
Refer: 5 111 N 1 0 0 1 0 0 2
Colour: ffff
EndChar

StartChar: brokenbar
Encoding: 166 166 360
Width: 414
VWidth: 2426
Flags: HMW
LayerCount: 2
Fore
SplineSet
207 795 m 0
 152 795 107 841 107 895 c 0
 107 1058 111 1216 111 1361 c 0
 111 1415 157 1461 211 1461 c 0
 265 1461 311 1415 311 1361 c 0
 311 1216 310 1057 307 893 c 0
 306 839 261 795 207 795 c 0
226 597 m 0
 281 597 326 551 326 497 c 0
 326 316 316 143 308 -5 c 0
 305 -58 260 -100 208 -100 c 0
 152 -100 108 -53 108 0 c 2
 108 5 l 1
 116 150 122 320 126 499 c 0
 127 553 172 597 226 597 c 0
EndSplineSet
Colour: ffff
EndChar

StartChar: dieresis
Encoding: 168 168 361
Width: 667
VWidth: 1823
Flags: HMW
LayerCount: 2
Fore
SplineSet
612 1214 m 0
 612 1134 547 1069 467 1069 c 0
 406 1069 355 1107 334 1159 c 1
 312 1106 260 1069 200 1069 c 0
 118 1069 56 1137 56 1214 c 0
 56 1293 120 1358 200 1358 c 0
 259 1358 312 1322 334 1269 c 1
 356 1321 407 1358 467 1358 c 0
 544 1358 612 1297 612 1214 c 0
EndSplineSet
Colour: ffff
EndChar

StartChar: copyright
Encoding: 169 169 362
Width: 1693
VWidth: 1823
Flags: HMW
LayerCount: 2
Fore
SplineSet
1144 1005 m 0
 1144 949 1097 905 1044 905 c 0
 1021 905 997 914 978 930 c 0
 946 958 913 972 868 972 c 0
 734 972 617 837 617 687 c 0
 617 562 670 490 809 490 c 0
 890 490 946 511 1004 546 c 0
 1020 556 1037 561 1055 561 c 0
 1106 561 1156 521 1156 462 c 0
 1156 428 1139 395 1108 376 c 0
 1028 327 930 290 809 290 c 0
 554 290 417 476 417 687 c 0
 417 925 598 1172 868 1172 c 0
 963 1172 1046 1136 1110 1080 c 0
 1132 1060 1144 1033 1144 1005 c 0
260 616 m 0
 260 379 521 145 752 145 c 0
 1182 145 1433 374 1433 760 c 0
 1433 1008 1204 1261 831 1261 c 0
 552 1261 260 1020 260 616 c 0
60 616 m 0
 60 1124 436 1461 831 1461 c 0
 1296 1461 1633 1136 1633 760 c 0
 1633 256 1268 -55 752 -55 c 0
 415 -55 60 251 60 616 c 0
EndSplineSet
Colour: ffff
EndChar

StartChar: ordfeminine
Encoding: 170 170 363
Width: 778
VWidth: 2426
Flags: HMW
LayerCount: 2
Fore
SplineSet
506 1247 m 0
 506 1363 457 1394 370 1394 c 0
 265 1394 178 1297 178 1156 c 0
 178 1029 246 961 327 961 c 0
 444 961 506 1100 506 1247 c 0
557 1455 m 1
 571 1490 589 1524 631 1524 c 0
 670 1524 695 1491 695 1458 c 0
 695 1449 693 1440 689 1431 c 0
 668 1387 630 1239 630 1134 c 0
 630 1014 669 961 689 961 c 0
 724 961 754 931 754 896 c 0
 754 861 724 831 689 831 c 0
 612 831 565 874 538 930 c 1
 490 872 423 831 327 831 c 0
 156 831 48 983 48 1156 c 0
 48 1347 175 1524 370 1524 c 0
 442 1524 509 1501 557 1455 c 1
EndSplineSet
Colour: ffff00
EndChar

StartChar: logicalnot
Encoding: 172 172 364
Width: 867
VWidth: 1823
Flags: HMW
LayerCount: 2
Fore
SplineSet
-11 661 m 0
 -11 715 35 761 89 761 c 2
 734 761 l 2
 795 761 834 704 834 661 c 2
 834 388 l 2
 834 334 788 288 734 288 c 0
 680 288 634 334 634 388 c 2
 634 561 l 1
 89 561 l 2
 35 561 -11 607 -11 661 c 0
EndSplineSet
Colour: ffff
EndChar

StartChar: registered
Encoding: 174 174 366
Width: 1667
VWidth: 1823
Flags: HMW
LayerCount: 2
Fore
SplineSet
777 934 m 1
 782 922 785 910 785 897 c 0
 785 831 782 764 777 697 c 1
 785 699 794 700 803 700 c 0
 920 700 958 754 958 809 c 0
 958 868 888 935 791 935 c 0
 786 935 782 934 777 934 c 1
260 685 m 0
 260 308 483 145 820 145 c 0
 1142 145 1407 420 1407 727 c 0
 1407 1055 1171 1216 825 1216 c 0
 548 1216 260 997 260 685 c 0
60 685 m 0
 60 1129 458 1416 825 1416 c 0
 1235 1416 1607 1193 1607 727 c 0
 1607 308 1254 -55 820 -55 c 0
 401 -55 60 192 60 685 c 0
563 822 m 0
 506 822 463 870 463 922 c 0
 463 943 470 964 483 982 c 0
 556 1080 672 1135 791 1135 c 0
 960 1135 1158 1018 1158 809 c 0
 1158 696 1096 600 1002 548 c 1
 1049 512 1101 479 1153 450 c 0
 1186 432 1204 397 1204 362 c 0
 1204 303 1153 263 1103 263 c 0
 1087 263 1071 268 1056 276 c 0
 953 333 846 405 760 497 c 1
 755 445 749 395 744 346 c 0
 739 295 694 256 644 256 c 0
 586 256 544 304 544 356 c 0
 544 359 545 363 545 366 c 0
 560 511 573 670 581 824 c 1
 575 823 569 822 563 822 c 0
EndSplineSet
Colour: ffff
EndChar

StartChar: degree
Encoding: 176 176 368
Width: 648
VWidth: 2426
Flags: HMW
LayerCount: 2
Fore
SplineSet
494 1398 m 0
 494 1487 414 1574 323 1574 c 0
 246 1574 154 1485 154 1391 c 0
 154 1310 230 1234 309 1234 c 0
 412 1234 494 1316 494 1398 c 0
624 1398 m 0
 624 1234 476 1104 309 1104 c 0
 156 1104 24 1236 24 1391 c 0
 24 1555 164 1704 323 1704 c 0
 492 1704 624 1555 624 1398 c 0
EndSplineSet
Colour: ffff00
EndChar

StartChar: acute
Encoding: 180 180 369
Width: 518
VWidth: 2426
Flags: HMW
LayerCount: 2
Fore
SplineSet
357 1581 m 0
 413 1581 457 1533 457 1481 c 0
 457 1459 449 1437 435 1419 c 0
 361 1326 299 1245 246 1128 c 0
 229 1091 192 1069 154 1069 c 0
 94 1069 55 1120 55 1170 c 0
 55 1184 58 1197 64 1210 c 0
 127 1349 203 1448 279 1543 c 0
 299 1567 327 1581 357 1581 c 0
EndSplineSet
Colour: ffff
EndChar

StartChar: mu
Encoding: 181 181 370
Width: 1019
VWidth: 1823
Flags: HMW
LayerCount: 2
Fore
SplineSet
945 1015 m 0
 945 897 937 727 937 587 c 0
 937 403 942 228 959 58 c 0
 959 55 959 51 959 48 c 0
 959 -4 917 -52 859 -52 c 0
 809 -52 765 -13 760 38 c 0
 759 50 757 62 756 75 c 1
 688 -3 589 -55 471 -55 c 0
 396 -55 330 -40 273 -10 c 1
 282 -160 295 -307 308 -437 c 0
 308 -440 308 -444 308 -447 c 0
 308 -499 265 -547 208 -547 c 0
 158 -547 113 -508 108 -457 c 0
 84 -215 60 82 60 367 c 0
 60 421 62 478 65 534 c 2
 65 534 65 534 65 535 c 0
 65 661 86 793 108 902 c 0
 125 995 135 1115 237 1115 c 0
 298 1115 336 1062 336 1013 c 0
 336 1005 335 997 333 990 c 0
 299 856 275 691 265 528 c 1
 265 435 270 349 287 286 c 0
 312 190 346 145 471 145 c 0
 581 145 651 227 697 410 c 0
 719 497 730 599 737 700 c 1
 737 805 739 923 745 1021 c 0
 748 1063 787 1115 845 1115 c 0
 899 1115 945 1070 945 1015 c 0
EndSplineSet
Colour: ffff
EndChar

StartChar: paragraph
Encoding: 182 182 371
Width: 1319
VWidth: 2426
Flags: HMW
LayerCount: 2
Fore
SplineSet
690 1190 m 0
 744 1190 790 1144 790 1090 c 2
 790 409 l 1
 811 411 832 414 853 418 c 1
 853 1030 l 2
 853 1084 899 1130 953 1130 c 0
 1007 1130 1053 1084 1053 1030 c 2
 1053 418 l 1
 1069 401 1080 378 1080 351 c 0
 1080 325 1070 301 1053 282 c 1
 1053 -442 l 2
 1053 -496 1007 -542 953 -542 c 0
 899 -542 853 -496 853 -442 c 2
 853 215 l 1
 832 212 811 210 790 209 c 1
 790 -382 l 2
 790 -436 744 -482 690 -482 c 0
 636 -482 590 -436 590 -382 c 2
 590 225 l 1
 313 285 60 496 60 811 c 0
 60 1174 374 1416 715 1416 c 0
 938 1416 1114 1320 1234 1183 c 0
 1250 1164 1259 1140 1259 1117 c 0
 1259 1064 1215 1017 1159 1017 c 0
 1131 1017 1104 1029 1084 1051 c 0
 998 1150 878 1216 715 1216 c 0
 460 1216 260 1044 260 811 c 0
 260 632 403 486 590 431 c 1
 590 1090 l 2
 590 1144 636 1190 690 1190 c 0
EndSplineSet
Colour: ffff
EndChar

StartChar: uni00B9
Encoding: 185 185 373
Width: 438
VWidth: 2426
Flags: HMW
LayerCount: 2
Fore
SplineSet
300 768 m 0
 262 768 233 801 235 837 c 2
 266 1323 l 1
 230 1301 196 1284 158 1269 c 0
 150 1266 143 1264 135 1264 c 0
 103 1264 69 1289 69 1328 c 0
 69 1354 85 1379 110 1389 c 0
 180 1417 243 1458 297 1507 c 0
 307 1516 324 1524 340 1524 c 0
 377 1524 407 1492 405 1455 c 2
 365 829 l 2
 363 795 334 768 300 768 c 0
EndSplineSet
Colour: ffff00
EndChar

StartChar: onequarter
Encoding: 188 188 375
Width: 1893
VWidth: 1839
Flags: HMW
LayerCount: 2
Fore
SplineSet
459 -55 m 0
 404 -55 359 -9 359 45 c 0
 359 70 368 95 386 114 c 0
 739 489 1184 1075 1399 1463 c 0
 1417 1496 1452 1514 1487 1514 c 0
 1546 1514 1586 1463 1586 1413 c 0
 1586 1397 1582 1380 1574 1365 c 0
 1345 953 899 365 532 -24 c 0
 513 -45 486 -55 459 -55 c 0
1541 474 m 0
 1599 474 1641 426 1641 374 c 0
 1641 370 1640 367 1640 363 c 2
 1599 6 l 1
 1646 15 1692 25 1737 36 c 0
 1745 38 1751 39 1759 39 c 0
 1810 39 1860 0 1860 -60 c 0
 1860 -105 1828 -147 1783 -158 c 0
 1716 -174 1647 -189 1576 -201 c 1
 1556 -376 l 2
 1550 -426 1507 -465 1457 -465 c 0
 1399 -465 1357 -417 1357 -365 c 0
 1357 -361 1358 -358 1358 -354 c 2
 1372 -228 l 1
 1305 -234 1237 -238 1169 -238 c 0
 1133 -238 1096 -237 1055 -231 c 0
 1027 -227 966 -219 926 -159 c 0
 910 -136 902 -106 902 -78 c 0
 902 -26 922 6 938 29 c 0
 1108 276 1229 516 1345 802 c 0
 1361 841 1399 864 1439 864 c 0
 1499 864 1538 813 1538 763 c 0
 1538 751 1536 738 1531 726 c 0
 1419 449 1298 208 1135 -37 c 1
 1147 -37 1157 -38 1169 -38 c 0
 1243 -38 1319 -33 1395 -25 c 1
 1442 385 l 2
 1448 435 1491 474 1541 474 c 0
360 420 m 0
 303 420 260 467 260 520 c 0
 260 522 260 525 260 527 c 2
 317 1391 l 1
 273 1358 230 1330 184 1303 c 0
 169 1294 152 1289 135 1289 c 0
 84 1289 34 1329 34 1388 c 0
 34 1423 52 1457 84 1475 c 0
 168 1524 254 1592 327 1660 c 0
 342 1674 369 1687 395 1687 c 2
 430 1687 l 2
 483 1687 530 1642 530 1587 c 0
 530 1585 530 1582 530 1580 c 2
 460 513 l 2
 457 461 412 420 360 420 c 0
EndSplineSet
Colour: ffff
EndChar

StartChar: onehalf
Encoding: 189 189 376
Width: 1915
VWidth: 2426
Flags: HMW
LayerCount: 2
Fore
SplineSet
360 420 m 0
 303 420 260 467 260 520 c 2
 260 527 l 1
 317 1391 l 1
 273 1358 230 1330 184 1303 c 0
 169 1294 152 1289 135 1289 c 0
 84 1289 34 1329 34 1388 c 0
 34 1423 52 1457 84 1475 c 0
 168 1524 254 1592 327 1660 c 0
 342 1674 369 1687 395 1687 c 2
 430 1687 l 2
 483 1687 530 1642 530 1587 c 2
 530 1580 l 1
 460 513 l 2
 457 461 412 420 360 420 c 0
459 -55 m 0
 404 -55 359 -9 359 45 c 0
 359 70 368 95 386 114 c 0
 740 489 1184 1073 1399 1462 c 0
 1417 1495 1452 1514 1487 1514 c 0
 1546 1514 1586 1463 1586 1413 c 0
 1586 1397 1582 1381 1574 1366 c 0
 1345 953 900 365 532 -24 c 0
 513 -45 486 -55 459 -55 c 0
1194 -435 m 0
 1139 -435 1093 -389 1093 -335 c 0
 1093 -308 1105 -281 1126 -261 c 2
 1413 -0 l 2
 1415 1 1418 4 1420 6 c 0
 1608 147 1704 258 1704 424 c 0
 1704 539 1644 605 1541 605 c 0
 1423 605 1337 506 1337 370 c 0
 1337 316 1291 270 1237 270 c 0
 1183 270 1137 316 1137 370 c 0
 1137 590 1291 805 1541 805 c 0
 1766 805 1904 625 1904 424 c 0
 1904 162 1737 -5 1544 -151 c 1
 1469 -219 l 1
 1497 -218 1521 -218 1548 -218 c 0
 1647 -218 1749 -222 1849 -227 c 0
 1902 -230 1944 -275 1944 -327 c 0
 1944 -383 1897 -427 1844 -427 c 2
 1839 -427 l 1
 1741 -422 1641 -418 1548 -418 c 0
 1431 -418 1317 -422 1203 -434 c 0
 1200 -434 1197 -435 1194 -435 c 0
EndSplineSet
Colour: ffff
EndChar

StartChar: threequarters
Encoding: 190 190 377
Width: 2014
VWidth: 2426
Flags: HMW
LayerCount: 2
Fore
SplineSet
1662 474 m 0
 1720 474 1762 426 1762 374 c 0
 1762 370 1761 367 1761 363 c 2
 1720 6 l 1
 1767 15 1813 25 1858 36 c 0
 1866 38 1872 39 1880 39 c 0
 1931 39 1981 0 1981 -60 c 0
 1981 -105 1949 -147 1904 -158 c 0
 1837 -174 1767 -189 1696 -201 c 1
 1676 -376 l 2
 1670 -426 1627 -465 1577 -465 c 0
 1519 -465 1477 -417 1477 -365 c 0
 1477 -361 1478 -358 1478 -354 c 2
 1492 -228 l 1
 1424 -234 1357 -238 1289 -238 c 0
 1253 -238 1217 -237 1176 -231 c 0
 1148 -227 1086 -219 1046 -159 c 0
 1030 -136 1022 -106 1022 -78 c 0
 1022 -21 1047 11 1057 26 c 0
 1230 278 1348 514 1465 802 c 0
 1481 841 1519 864 1559 864 c 0
 1619 864 1658 813 1658 763 c 0
 1658 751 1656 738 1651 726 c 0
 1539 449 1417 207 1255 -37 c 1
 1267 -37 1277 -38 1289 -38 c 0
 1363 -38 1440 -33 1516 -25 c 1
 1563 385 l 2
 1569 435 1612 474 1662 474 c 0
579 -55 m 0
 524 -55 479 -9 479 45 c 0
 479 70 488 95 506 114 c 0
 860 489 1304 1073 1519 1462 c 0
 1537 1495 1572 1514 1607 1514 c 0
 1666 1514 1706 1463 1706 1413 c 0
 1706 1397 1702 1381 1694 1366 c 0
 1465 953 1020 365 652 -24 c 0
 633 -45 606 -55 579 -55 c 0
187 1251 m 0
 127 1251 88 1301 88 1352 c 0
 88 1359 88 1366 90 1373 c 0
 131 1554 298 1659 453 1659 c 0
 617 1659 769 1533 769 1307 c 0
 769 1211 725 1130 666 1075 c 1
 743 1022 795 937 799 829 c 1
 799 578 591 438 376 438 c 0
 268 438 158 473 71 545 c 0
 47 565 34 593 34 622 c 0
 34 678 81 722 134 722 c 0
 156 722 180 714 198 699 c 0
 245 661 312 638 376 638 c 0
 512 638 598 712 599 825 c 1
 595 895 539 940 438 940 c 0
 393 940 341 925 303 916 c 0
 296 914 289 914 282 914 c 0
 231 914 181 954 181 1013 c 0
 181 1060 216 1101 256 1111 c 0
 318 1127 388 1144 441 1167 c 0
 533 1207 569 1249 569 1307 c 0
 569 1435 511 1459 453 1459 c 0
 382 1459 303 1406 286 1329 c 0
 276 1283 233 1251 187 1251 c 0
EndSplineSet
Colour: ffff
EndChar

StartChar: Eth
Encoding: 208 208 394
Width: 1341
VWidth: 1823
Flags: HMW
LayerCount: 2
Fore
SplineSet
89 629 m 2
 36 629 -11 672 -11 729 c 0
 -11 780 29 825 81 829 c 0
 185 837 282 840 372 840 c 0
 474 840 567 836 652 829 c 0
 704 825 743 780 743 729 c 0
 743 672 696 629 643 629 c 2
 635 629 l 1
 555 636 468 640 372 640 c 0
 288 640 196 637 97 629 c 1
 89 629 l 2
EndSplineSet
Refer: 16 68 N 1 0 0 1 150 0 2
Colour: ffff
EndChar

StartChar: multiply
Encoding: 215 215 401
Width: 756
VWidth: 1823
Flags: HMW
LayerCount: 2
Fore
SplineSet
118 300 m 0
 61 300 18 348 18 400 c 0
 18 422 26 444 40 462 c 0
 102 540 165 613 230 683 c 1
 163 739 94 791 33 829 c 0
 3 848 -14 882 -14 915 c 0
 -14 973 36 1014 87 1014 c 0
 105 1014 123 1009 139 999 c 0
 214 952 293 892 369 828 c 1
 425 883 482 938 541 992 c 0
 560 1009 585 1018 609 1018 c 0
 662 1018 709 973 709 918 c 0
 709 891 698 863 677 844 c 0
 622 794 569 744 518 694 c 1
 607 607 688 512 727 435 c 0
 734 421 738 406 738 391 c 0
 738 341 699 290 639 290 c 0
 602 290 566 310 549 345 c 0
 531 380 452 477 378 550 c 1
 316 483 256 413 196 338 c 0
 176 313 148 300 118 300 c 0
EndSplineSet
Colour: ffff
EndChar

StartChar: germandbls
Encoding: 223 223 408
Width: 1032
VWidth: 2426
Flags: HMW
LayerCount: 2
Fore
SplineSet
134 -96 m 0
 77 -96 34 -49 34 4 c 2
 34 11 l 1
 59 383 82 724 121 1024 c 0
 158 1306 312 1416 495 1416 c 0
 726 1416 866 1242 866 1060 c 0
 866 909 818 822 721 744 c 0
 674 706 645 656 645 619 c 0
 645 595 652 578 717 545 c 0
 823 492 998 391 998 182 c 0
 998 -30 751 -86 606 -86 c 0
 510 -86 327 -62 327 54 c 0
 327 113 378 153 428 153 c 0
 444 153 461 148 476 140 c 0
 504 124 552 114 606 114 c 0
 749 114 798 180 798 182 c 0
 798 259 733 314 627 367 c 0
 548 408 445 481 445 619 c 0
 445 744 520 840 595 900 c 0
 663 955 666 944 666 1040 c 2
 666 1060 l 2
 666 1140 614 1216 495 1216 c 0
 404 1216 346 1210 319 998 c 0
 282 708 259 369 234 -3 c 0
 230 -55 186 -96 134 -96 c 0
EndSplineSet
Colour: ffff
EndChar

StartChar: ae
Encoding: 230 230 415
Width: 1832
VWidth: 2426
Flags: HMW
LayerCount: 2
Fore
SplineSet
1062 562 m 1
 1084 561 1106 560 1127 560 c 0
 1322 560 1567 673 1567 784 c 0
 1567 830 1520 879 1431 879 c 0
 1260 879 1116 745 1062 562 c 1
1110 972 m 1
 1199 1038 1308 1079 1431 1079 c 0
 1584 1079 1767 982 1767 784 c 0
 1767 449 1314 360 1127 360 c 0
 1101 360 1074 361 1048 363 c 1
 1076 235 1185 145 1346 145 c 0
 1450 145 1555 185 1632 255 c 0
 1651 272 1675 281 1699 281 c 0
 1752 281 1799 236 1799 181 c 0
 1799 154 1788 126 1766 107 c 0
 1651 3 1500 -55 1346 -55 c 0
 1168 -55 1010 24 920 159 c 1
 836 38 697 -55 503 -55 c 0
 227 -55 34 154 34 419 c 0
 34 710 236 1063 578 1063 c 0
 687 1063 793 1022 873 951 c 0
 889 937 899 919 904 900 c 1
 907 924 910 947 913 968 c 0
 919 1018 963 1055 1012 1055 c 0
 1063 1055 1102 1017 1110 972 c 1
842 493 m 0
 858 580 878 711 894 828 c 1
 876 797 843 776 807 776 c 0
 783 776 760 784 741 801 c 0
 699 838 635 863 578 863 c 0
 396 863 234 644 234 419 c 0
 234 254 337 145 503 145 c 0
 717 145 806 304 842 493 c 0
EndSplineSet
Colour: ffff
EndChar

StartChar: oslash
Encoding: 248 248 432
Width: 1083
VWidth: 1823
Flags: HMW
LayerCount: 2
Fore
SplineSet
133 -55 m 0
 75 -55 34 -5 34 46 c 0
 34 65 39 83 50 99 c 0
 293 475 568 772 853 1043 c 0
 872 1061 897 1071 922 1071 c 0
 976 1071 1022 1026 1022 971 c 0
 1022 944 1011 918 991 899 c 0
 712 634 449 349 218 -9 c 0
 199 -38 166 -55 133 -55 c 0
EndSplineSet
Refer: 5 111 N 1 0 0 1 0 0 2
Colour: ffff
EndChar

StartChar: thorn
Encoding: 254 254 438
Width: 1069
VWidth: 1823
Flags: HMW
LayerCount: 2
Fore
SplineSet
150 1461 m 0
 206 1461 251 1414 250 1359 c 2
 216 -367 l 2
 215 -421 170 -465 116 -465 c 0
 60 -465 15 -418 16 -363 c 2
 50 1363 l 2
 51 1417 96 1461 150 1461 c 0
EndSplineSet
Refer: 5 111 N 1 0 0 1 0 0 2
Colour: ffff
EndChar

StartChar: OE
Encoding: 338 338 440
Width: 2275
VWidth: 2426
Flags: HMW
LayerCount: 2
Fore
SplineSet
1193 107 m 0
 1193 167 1243 206 1294 206 c 0
 1301 206 1308 206 1315 204 c 0
 1481 167 1655 148 1823 148 c 0
 1928 148 2030 156 2126 170 c 0
 2131 171 2136 171 2141 171 c 0
 2193 171 2241 130 2241 71 c 0
 2241 23 2205 -21 2156 -28 c 0
 2050 -44 1938 -52 1823 -52 c 0
 1641 -52 1453 -33 1271 8 c 0
 1225 18 1193 61 1193 107 c 0
1087 1151 m 0
 1087 1099 1044 1051 987 1051 c 0
 956 1051 925 1066 906 1092 c 0
 851 1166 775 1216 673 1216 c 0
 432 1216 234 959 234 643 c 0
 234 332 430 145 670 145 c 0
 968 145 1100 347 1145 707 c 0
 1143 715 1142 723 1142 732 c 0
 1142 749 1146 765 1153 778 c 1
 1161 866 1164 961 1164 1065 c 0
 1164 1151 1157 1241 1157 1329 c 0
 1157 1388 1210 1429 1259 1429 c 0
 1263 1429 1266 1428 1270 1428 c 0
 1502 1397 1696 1372 1863 1372 c 0
 1949 1372 2026 1378 2100 1395 c 0
 2107 1397 2115 1398 2122 1398 c 0
 2173 1398 2222 1359 2222 1299 c 0
 2222 1254 2190 1211 2144 1201 c 0
 2052 1180 1959 1172 1863 1172 c 0
 1708 1172 1546 1190 1362 1214 c 1
 1363 1166 1364 1114 1364 1065 c 0
 1364 982 1362 900 1356 819 c 1
 1450 810 1563 804 1675 804 c 0
 1777 804 1877 809 1963 820 c 0
 1967 821 1972 821 1976 821 c 0
 2028 821 2076 779 2076 721 c 0
 2076 672 2039 628 1989 622 c 0
 1891 609 1783 604 1675 604 c 0
 1554 604 1433 610 1332 620 c 1
 1269 241 1095 -55 670 -55 c 0
 310 -55 34 240 34 643 c 0
 34 1023 278 1416 673 1416 c 0
 849 1416 985 1324 1068 1210 c 0
 1081 1192 1087 1172 1087 1151 c 0
EndSplineSet
Colour: ffff
EndChar

StartChar: dotlessi
Encoding: 305 305 442
Width: 390
VWidth: 2426
Flags: HMW
LayerCount: 2
Fore
SplineSet
211 1071 m 0
 267 1071 311 1024 311 971 c 0
 311 742 296 223 296 8 c 2
 296 0 l 2
 296 -54 251 -100 196 -100 c 0
 137 -100 96 -52 96 8 c 0
 96 225 100 740 111 976 c 0
 113 1029 159 1071 211 1071 c 0
EndSplineSet
Colour: ffff
EndChar

StartChar: uniE00A
Encoding: 57354 57354 443
Width: 600
VWidth: 1823
Flags: HMW
AnchorPoint: "Anchor-1" 342 0 basechar 0
AnchorPoint: "Anchor-3" 508 1856 basechar 0
LayerCount: 2
Fore
SplineSet
923 2031 m 0
 982 2031 1022 1980 1022 1930 c 0
 1022 1914 1018 1897 1009 1882 c 0
 948 1774 858 1685 727 1685 c 0
 650 1685 575 1713 496 1758 c 0
 428 1797 379 1809 346 1809 c 0
 294 1809 200 1737 183 1663 c 0
 173 1617 131 1585 85 1585 c 0
 25 1585 -15 1635 -15 1686 c 0
 -15 1693 -14 1700 -12 1707 c 0
 25 1871 182 2009 346 2009 c 0
 425 2009 508 1983 596 1932 c 0
 657 1897 702 1885 727 1885 c 0
 758 1885 788 1896 835 1980 c 0
 853 2012 888 2031 923 2031 c 0
EndSplineSet
Refer: 80 1575 N 1 0 0 1 200 0 2
Colour: ffff
EndChar

StartChar: uniE00C
Encoding: 57356 57356 445
Width: 1069
VWidth: 1823
Flags: HMW
LayerCount: 2
Fore
SplineSet
541 1071 m 0
 882 1071 1036 786 1036 508 c 0
 1036 230 882 -55 541 -55 c 0
 200 -55 47 230 47 508 c 0
 47 786 200 1071 541 1071 c 0
541 871 m 0
 344 871 247 726 247 508 c 0
 247 290 344 145 541 145 c 0
 738 145 836 290 836 508 c 0
 836 726 738 871 541 871 c 0
EndSplineSet
Colour: ffff
EndChar

StartChar: uniE00D
Encoding: 57357 57357 446
Width: 950
VWidth: 1823
Flags: HMW
LayerCount: 2
Fore
SplineSet
147 -100 m 0
 93 -100 47 -54 47 0 c 2
 47 584 l 2
 47 827 182 1071 482 1071 c 0
 782 1071 917 827 917 584 c 2
 917 0 l 2
 917 -54 871 -100 817 -100 c 0
 763 -100 717 -54 717 0 c 2
 717 584 l 2
 717 765 642 871 482 871 c 0
 322 871 247 765 247 584 c 2
 247 0 l 2
 247 -54 201 -100 147 -100 c 0
EndSplineSet
Colour: ffff
EndChar

StartChar: uniE00E
Encoding: 57358 57358 447
Width: 850
VWidth: 1823
Flags: HMW
LayerCount: 2
Fore
SplineSet
147 -100 m 0
 93 -100 47 -54 47 0 c 2
 47 598 l 2
 47 832 161 1071 432 1071 c 0
 703 1071 817 832 817 598 c 2
 817 0 l 2
 817 -54 771 -100 717 -100 c 0
 663 -100 617 -54 617 0 c 2
 617 598 l 2
 617 788 549 871 432 871 c 0
 315 871 247 788 247 598 c 2
 247 0 l 2
 247 -54 201 -100 147 -100 c 0
EndSplineSet
Colour: ffff
EndChar

StartChar: uniE00F
Encoding: 57359 57359 448
Width: 1089
VWidth: 1437
Flags: HW
AnchorPoint: "Anchor-3" 608 1160 basechar 0
AnchorPoint: "Anchor-1" 469 -164 basechar 0
LayerCount: 2
Fore
SplineSet
853 420 m 0
 853 259 934 145 1089 145 c 0
 1143 145 1189 99 1189 45 c 0
 1189 -9 1143 -55 1089 -55 c 0
 920 -55 793 32 723 150 c 1
 597 -38 392 -160 134 -160 c 0
 80 -160 34 -114 34 -60 c 0
 34 -6 80 40 134 40 c 0
 427 40 604 244 662 524 c 0
 662 526 663 528 663 529 c 2
 711 827 l 2
 719 876 763 911 811 911 c 0
 871 911 910 860 910 810 c 0
 910 805 910 800 909 795 c 2
 868 535 l 2
 863 501 853 456 853 420 c 0
EndSplineSet
Colour: ffff
EndChar

StartChar: uniE010
Encoding: 57360 57360 451
Width: 435
VWidth: 2296
Flags: HW
AnchorPoint: "Anchor-1" 83 -394 basechar 0
AnchorPoint: "Anchor-3" 205 1361 basechar 0
LayerCount: 2
Fore
SplineSet
342 591 m 0
 284 591 243 641 243 692 c 0
 243 736 271 742 271 795 c 0
 271 838 243 871 176 871 c 0
 126 871 90 830 90 799 c 0
 90 749 109 728 168 675 c 0
 189 656 201 628 201 601 c 0
 201 546 154 501 101 501 c 0
 77 501 53 510 34 527 c 0
 -22 578 -110 659 -110 799 c 0
 -110 958 30 1071 176 1071 c 0
 327 1071 471 966 471 795 c 0
 471 707 435 591 342 591 c 0
-250 -557 m 0
 -302 -557 -350 -515 -350 -457 c 0
 -350 -408 -313 -365 -264 -358 c 0
 33 -317 185 -170 185 181 c 0
 185 235 181 293 171 347 c 0
 170 353 169 358 169 364 c 0
 169 415 210 464 269 464 c 0
 316 464 360 429 368 381 c 0
 380 315 385 247 385 181 c 0
 385 -258 145 -503 -236 -556 c 0
 -240 -557 -246 -557 -250 -557 c 0
EndSplineSet
Colour: ffff
EndChar

StartChar: uniE011
Encoding: 57361 57361 452
Width: 593
VWidth: 2234
Flags: HW
AnchorPoint: "Anchor-1" 99 -394 basechar 0
AnchorPoint: "Anchor-3" 209 1361 basechar 0
LayerCount: 2
Fore
SplineSet
300 591 m 0
 242 591 201 641 201 692 c 0
 201 736 229 742 229 795 c 0
 229 838 201 871 134 871 c 0
 84 871 48 830 48 799 c 0
 48 749 67 728 126 675 c 0
 147 656 159 628 159 601 c 0
 159 546 112 501 59 501 c 0
 35 501 11 510 -8 527 c 0
 -64 578 -152 659 -152 799 c 0
 -152 958 -12 1071 134 1071 c 0
 285 1071 429 966 429 795 c 0
 429 707 393 591 300 591 c 0
77 382 m 0
 77 431 114 484 176 484 c 0
 218 484 258 457 272 415 c 0
 329 240 363 145 593 145 c 0
 647 145 693 99 693 45 c 0
 693 -9 647 -55 593 -55 c 0
 479 -55 385 -32 310 12 c 1
 274 -278 92 -475 -226 -554 c 0
 -234 -556 -241 -557 -249 -557 c 0
 -300 -557 -350 -518 -350 -458 c 0
 -350 -413 -319 -371 -274 -360 c 0
 14 -289 117 -138 117 137 c 0
 117 229 112 249 81 356 c 0
 79 364 77 373 77 382 c 0
EndSplineSet
Colour: ffff
EndChar
